$MeshFormat
2.2 0 8
$EndMeshFormat
$PhysicalNames
1
3 1 "tissue"
$EndPhysicalNames
$Nodes
512
1 0 0 0.08
2 0 0 0
3 0 0.08 0.08
4 0 0.08 0
5 0.08 0 0.08
6 0.08 0 0
7 0.08 0.08 0.08
8 0.08 0.08 0
9 0 0 0.01599999999999999
10 0 0 0.03199999999999999
11 0 0 0.048
12 0 0 0.064
13 0 0.01599999999999999 0.08
14 0 0.03199999999999999 0.08
15 0 0.048 0.08
16 0 0.064 0.08
17 0 0.08 0.01599999999999999
18 0 0.08 0.03199999999999999
19 0 0.08 0.048
20 0 0.08 0.064
21 0 0.01599999999999999 0
22 0 0.03199999999999999 0
23 0 0.048 0
24 0 0.064 0
25 0.08 0 0.01599999999999999
26 0.08 0 0.03199999999999999
27 0.08 0 0.048
28 0.08 0 0.064
29 0.08 0.01599999999999999 0.08
30 0.08 0.03199999999999999 0.08
31 0.08 0.048 0.08
32 0.08 0.064 0.08
33 0.08 0.08 0.01599999999999999
34 0.08 0.08 0.03199999999999999
35 0.08 0.08 0.048
36 0.08 0.08 0.064
37 0.08 0.01599999999999999 0
38 0.08 0.03199999999999999 0
39 0.08 0.048 0
40 0.08 0.064 0
41 0.01599999999999999 0 0
42 0.03199999999999999 0 0
43 0.048 0 0
44 0.064 0 0
45 0.01599999999999999 0 0.08
46 0.03199999999999999 0 0.08
47 0.048 0 0.08
48 0.064 0 0.08
49 0.01599999999999999 0.08 0
50 0.03199999999999999 0.08 0
51 0.048 0.08 0
52 0.064 0.08 0
53 0.01599999999999999 0.08 0.08
54 0.03199999999999999 0.08 0.08
55 0.048 0.08 0.08
56 0.064 0.08 0.08
57 0 0.01317202806656181 0.03922397514110575
58 0 0.06697958750560631 0.03922656756041135
59 0 0.0401307682818044 0.06621909264215023
60 0 0.04064415874760111 0.01068068236886871
61 0 0.05594014477140176 0.0664562329874826
62 0 0.04830791985767336 0.0536598042110498
63 0 0.03198399109869075 0.054041686078973
64 0 0.03999999999999992 0.03843078061834697
65 0 0.01355384698412469 0.02401475947116441
66 0 0.05478120697349739 0.01504728032178099
67 0 0.0148240430783687 0.05513196809196609
68 0 0.02444193589666098 0.06727998898199787
69 0 0.0670695385615148 0.02446178426113079
70 0 0.02527137812279241 0.01396192732696428
71 0 0.06495640816439387 0.0547114190668699
72 0 0.02654294658699119 0.03085314782394416
73 0 0.05440775583749585 0.03111002465522777
74 0 0.04187349931448533 0.02541569725831783
75 0 0.06828718707889796 0.06828718707889796
76 0 0.01171281292110206 0.06828718707889797
77 0 0.01171281292110204 0.01171281292110204
78 0 0.06828718707889797 0.01171281292110205
79 0 0.0248242423012893 0.04334385084663456
80 0 0.05518001793717769 0.04335014163024757
81 0.08 0.01317202806656181 0.03922397514110575
82 0.08 0.06697958750560631 0.03922656756041135
83 0.08 0.0401307682818044 0.06621909264215023
84 0.08 0.04064415874760111 0.01068068236886871
85 0.08 0.05594014477140176 0.0664562329874826
86 0.08 0.04830791985767336 0.0536598042110498
87 0.08 0.03198399109869075 0.054041686078973
88 0.08 0.03999999999999992 0.03843078061834697
89 0.08 0.01355384698412469 0.02401475947116441
90 0.08 0.05478120697349739 0.01504728032178099
91 0.08 0.0148240430783687 0.05513196809196609
92 0.08 0.02444193589666098 0.06727998898199787
93 0.08 0.0670695385615148 0.02446178426113079
94 0.08 0.02527137812279241 0.01396192732696428
95 0.08 0.06495640816439387 0.0547114190668699
96 0.08 0.02654294658699119 0.03085314782394416
97 0.08 0.05440775583749585 0.03111002465522777
98 0.08 0.04187349931448533 0.02541569725831783
99 0.08 0.06828718707889796 0.06828718707889796
100 0.08 0.01171281292110206 0.06828718707889797
101 0.08 0.01171281292110204 0.01171281292110204
102 0.08 0.06828718707889797 0.01171281292110205
103 0.08 0.0248242423012893 0.04334385084663456
104 0.08 0.05518001793717769 0.04335014163024757
105 0.01264646484981577 0 0.04094893064395688
106 0.06621909264215023 0 0.0401307682818044
107 0.03922656756041135 0 0.06697958750560631
108 0.03935733584221577 0 0.01309591159709492
109 0.0664562329874826 0 0.05594014477140176
110 0.0536598042110498 0 0.04830791985767336
111 0.05404273454290849 0 0.03198328105894625
112 0.03843078061834698 0 0.03999999999999991
113 0.0153281063904877 0 0.02544637722529658
114 0.01186104501668133 0 0.05599374563157195
115 0.05514632522958431 0 0.01481576892044234
116 0.06728255658225682 0 0.0244404385303825
117 0.02354743883839413 0 0.0646992312731634
118 0.02451078358857259 0 0.01296654278390127
119 0.05471141906686989 0 0.06495640816439387
120 0.03203812854687547 0 0.05313670774044388
121 0.03118679026821993 0 0.02564877160365599
122 0.02614359353944899 0 0.03756381595282095
123 0.06828718707889796 0 0.06828718707889796
124 0.06828718707889796 0 0.01171281292110206
125 0.01171281292110204 0 0.01171281292110204
126 0.01171281292110205 0 0.06828718707889797
127 0.04335014163024756 0 0.05518001793717769
128 0.04335014163024755 0 0.02481998206282232
129 0.02182063115976687 0 0.04873855548314837
130 0.01264646484981577 0.08 0.04094893064395688
131 0.06621909264215023 0.08 0.0401307682818044
132 0.03922656756041135 0.08 0.06697958750560631
133 0.03935733584221577 0.08 0.01309591159709492
134 0.0664562329874826 0.08 0.05594014477140176
135 0.0536598042110498 0.08 0.04830791985767336
136 0.05404273454290849 0.08 0.03198328105894625
137 0.03843078061834698 0.08 0.03999999999999991
138 0.0153281063904877 0.08 0.02544637722529658
139 0.01186104501668133 0.08 0.05599374563157195
140 0.05514632522958431 0.08 0.01481576892044234
141 0.06728255658225682 0.08 0.0244404385303825
142 0.02354743883839413 0.08 0.0646992312731634
143 0.02451078358857259 0.08 0.01296654278390127
144 0.05471141906686989 0.08 0.06495640816439387
145 0.03203812854687547 0.08 0.05313670774044388
146 0.03118679026821993 0.08 0.02564877160365599
147 0.02614359353944899 0.08 0.03756381595282095
148 0.06828718707889796 0.08 0.06828718707889796
149 0.06828718707889796 0.08 0.01171281292110206
150 0.01171281292110204 0.08 0.01171281292110204
151 0.01171281292110205 0.08 0.06828718707889797
152 0.04335014163024756 0.08 0.05518001793717769
153 0.04335014163024755 0.08 0.02481998206282232
154 0.02182063115976687 0.08 0.04873855548314837
155 0.01264646484981577 0.03905106935604311 0
156 0.06614359353944899 0.04 0
157 0.03922656756041135 0.06697958750560631 0
158 0.03922656756041135 0.01302041249439368 0
159 0.0664516472791067 0.05593220209150596 0
160 0.05364645674253694 0.04828480136405669 0
161 0.05382165939653381 0.03175136587853709 0
162 0.03843078061834695 0.04000000000000002 0
163 0.01186104501668133 0.02400625436842805 0
164 0.06643020454733461 0.02403764016052266 0
165 0.01532810639048771 0.05455362277470342 0
166 0.05470885718445721 0.06495197085389208 0
167 0.02449521593597683 0.06704244520451555 0
168 0.05486927072235825 0.01457875170219793 0
169 0.02354743883839413 0.01530076872683658 0
170 0.03203812854687546 0.0268632922595561 0
171 0.0311624009458199 0.054365309578197 0
172 0.02614359353944899 0.04243618404717907 0
173 0.06828718707889796 0.01171281292110207 0
174 0.06828718707889794 0.06828718707889794 0
175 0.01171281292110206 0.06828718707889797 0
176 0.01171281292110204 0.01171281292110204 0
177 0.04335014163024754 0.02481998206282231 0
178 0.04335014163024757 0.0551800179371777 0
179 0.02182063115976686 0.03126144451685164 0
180 0.04007144515103974 0.01222894022220937 0.08
181 0.04173491705126529 0.06872183123767284 0.08
182 0.06799267288873406 0.03941350851446632 0.08
183 0.01306750606869248 0.04114034897493699 0.08
184 0.06791026308025808 0.05656700549922412 0.08
185 0.05635258255008685 0.04839680515455086 0.08
186 0.05274316070081029 0.06774729156893143 0.08
187 0.04780973160540239 0.05689847213847288 0.08
188 0.01254036423489205 0.05269732831894331 0.08
189 0.02329870484255438 0.04796331347836992 0.08
190 0.02329462535172589 0.01001833738220825 0.08
191 0.030995889673631 0.02366496721200503 0.08
192 0.05656700549922414 0.01208973691974192 0.08
193 0.04867568358306383 0.02302614533638203 0.08
194 0.06744920557856381 0.02765046223108477 0.08
195 0.05766134494122339 0.0303548183856116 0.08
196 0.01074891376875063 0.02262886914795994 0.08
197 0.02329765953050326 0.03199999999999999 0.08
198 0.02424598186465291 0.06743359330065304 0.08
199 0.03017892570269366 0.05755300990271765 0.08
200 0.06784221436083335 0.01335751924347331 0.08
201 0.06695472096663246 0.06779469464312481 0.08
202 0.01216375952954623 0.01170138564486282 0.08
203 0.02197302398837635 0.02214272508731343 0.08
204 0.01225511127094461 0.06662548083925236 0.08
205 0.02156110733900875 0.05706098194319913 0.08
206 0.05707490201872643 0.05845387079059326 0.08
207 0.05870988758880658 0.02262369086512661 0.08
208 0.06423643983653764 0.04799999999999999 0.08
209 0.04826795587947361 0.01470254372703714 0.08
210 0.03314974552764252 0.06592304068490926 0.08
211 0.03954442672917329 0.05943155158342836 0.08
212 0.03624937158906481 0.05252122916935129 0.08
213 0.03064139384585878 0.05085641321386276 0.08
214 0.03449137142222324 0.04701628486493171 0.08
215 0.03971930510547565 0.04783390791430833 0.08
216 0.03767934878805368 0.04296496234033047 0.08
217 0.04268959639525148 0.04350706501462161 0.08
218 0.04067216861863522 0.03888599511000168 0.08
219 0.03275519689475771 0.04231259879648202 0.08
220 0.04564714342715185 0.03941482750911451 0.08
221 0.04362610554537997 0.03483402655706515 0.08
222 0.0386569882369374 0.03429397296565681 0.08
223 0.04473728496433265 0.04800826961235369 0.08
224 0.04153115061823592 0.03028948122927354 0.08
225 0.04859781715330062 0.03536543796546178 0.08
226 0.05060544156734282 0.03993191039627451 0.08
227 0.03676715178206771 0.0298322993112816 0.08
228 0.03372974733151603 0.03377816474927503 0.08
229 0.03979336715853254 0.02555248486162745 0.08
230 0.04241059683385736 0.05311505229010179 0.08
231 0.04647030446863128 0.0310104046447732 0.08
232 0.04766109613314364 0.04397614202394645 0.08
233 0.04970826204458847 0.0485333299820324 0.08
234 0.03209938110654799 0.02919404341505322 0.08
235 0.03572112091436573 0.03833526752254694 0.08
236 0.0308332756162944 0.03777591117353567 0.08
237 0.02780713682035535 0.04173334885275613 0.08
238 0.02881749667505818 0.03314140175259757 0.08
239 0.02580787463565253 0.03702975837123405 0.08
240 0.02150713329427183 0.04152364459632901 0.08
241 0.02981402365202729 0.0460133974221417 0.08
242 0.05165692865636126 0.03129019068962628 0.08
243 0.04721066740438844 0.0520182979165785 0.08
244 0.05304674874387641 0.05286062033931469 0.08
245 0.05257884840019457 0.044461449629282 0.08
246 0.05554500323319855 0.04037102861758463 0.08
247 0.0541301237720803 0.03572727276133888 0.08
248 0.02743669019482336 0.02802862749339385 0.08
249 0.04488505435639265 0.02645106349657315 0.08
250 0.04318858725947334 0.02032677939442397 0.08
251 0.03684879563845765 0.02069551688197843 0.08
252 0.02010232282045818 0.03667244129887645 0.08
253 0.0154267718514751 0.03126055659923858 0.08
254 0.06071420708105522 0.03705025051347451 0.08
255 0.0177993194210922 0.04508445269280104 0.08
256 0.02657467240791478 0.05249692377871611 0.08
257 0.05972835552451965 0.04324564165969201 0.08
258 0.04545805902166282 0.06319978663212637 0.08
259 0.03106283049696949 0.01531290434776328 0.08
260 0.04940916532003866 0.02783307818342729 0.08
261 0.05347092614146662 0.02624568802147605 0.08
262 0.0353903386366677 0.02578603615292393 0.08
263 0.0275821986870888 0.04933251197327262 0.08
264 0.06012434684006588 0.05286294605366029 0.08
265 0.05286294605366033 0.01987565315993412 0.08
266 0.03741014103862598 0.03980995238273611 0.04082906575670181
267 0.05284864783572944 0.02758368409133238 0.0580260491551556
268 0.03833393501754852 0.03886058414225452 0.06119049868452935
269 0.05807072931609293 0.05263548390001722 0.05673484064186696
270 0.02849851150985791 0.05294060123921544 0.06625133069647843
271 0.03674979596724821 0.02170027867675876 0.06360797323756634
272 0.04182935899148531 0.05845596666544096 0.05230091061065396
273 0.02071605092318414 0.03520847108796936 0.06462210142590909
274 0.02087864197710786 0.02207026334212404 0.04210606663380802
275 0.05104417496729022 0.04233547346406646 0.06815092340764668
276 0.04451154752310454 0.03205081204192343 0.06951695285578766
277 0.0252750222013073 0.0440370358670945 0.05286459113824953
278 0.05920729630253135 0.05968288952839452 0.03329286399857524
279 0.04147878491779147 0.04765794470982092 0.06979786243616734
280 0.03032115007142507 0.03108765231233131 0.05498722496813268
281 0.04207657299098439 0.01302426069750211 0.04373378620493174
282 0.02621205617306173 0.06009960356809538 0.03404339934144929
283 0.05136995926790607 0.04143605713788467 0.05256689182575642
284 0.06430337142108702 0.03009691539389283 0.03189199758802738
285 0.06508150832603628 0.03868599298842539 0.05705574404118003
286 0.0320680930580015 0.03375769700485116 0.06940684258839076
287 0.01648109640192683 0.01649417564814108 0.06615576503216608
288 0.04963690883438841 0.01828374186035179 0.07173626749037956
289 0.04262864927032367 0.03296048215424017 0.05332504453676692
290 0.03198235512148181 0.04358011778924874 0.07019603990254791
291 0.02113365320417349 0.06562834586961228 0.05210562310161317
292 0.04559799520021422 0.04698905543359325 0.06013584182983489
293 0.04629347624572509 0.06186377137633696 0.06195574624338496
294 0.03124723078723084 0.02440355603398025 0.01503529079892669
295 0.04343033392078151 0.04073882279377301 0.07076515280357484
296 0.04802145227148645 0.03664527221631095 0.06100907375179764
297 0.05639979247715769 0.03278350434810455 0.06794347683018062
298 0.01480476561213467 0.03939654950342403 0.03382623651773708
299 0.03483770826682037 0.04909561381045279 0.06108061469286273
300 0.03539408004775929 0.04388446011300751 0.04992907596346967
301 0.03676974691562947 0.06105054266549979 0.06445378374076689
302 0.04538082361683226 0.05220871727077581 0.04075820424561073
303 0.05000502753636809 0.0530860674461306 0.07215448177539234
304 0.01494455132877842 0.03660517302445778 0.05128398948137697
305 0.02822568756430229 0.04215949688458386 0.06015163182225575
306 0.01369344124420263 0.04543196704472711 0.06160369575619468
307 0.06493032878118411 0.01554096371407331 0.06542335391010193
308 0.06026690246623344 0.04785845382325045 0.07206081069971623
309 0.03982574197068208 0.03042606650553302 0.06063131140414926
310 0.05320390687029118 0.06743245503265265 0.04506279224038524
311 0.02409235153600189 0.04523066325290413 0.06754374227308528
312 0.06662275236106081 0.04590005968349539 0.0434320664169599
313 0.03252077837488613 0.03891513139851288 0.05569264657127066
314 0.03890599957859805 0.02642397407920532 0.07168734329322601
315 0.02703451982683218 0.02137224562514297 0.07316458824044214
316 0.04306460249588041 0.02313035290264439 0.06000895505903003
317 0.05392763661527813 0.0103919022757835 0.05429774237956893
318 0.06470784001487614 0.06130600970198646 0.0662896643929914
319 0.05115248366381807 0.0367869898473277 0.07278392279965018
320 0.05072923832704725 0.02577220701090586 0.07478691641464738
321 0.05423973381817469 0.02899950681061673 0.04277834006258758
322 0.06715485687006388 0.02793944808518882 0.04775274200670694
323 0.03520084426094894 0.05264896162241082 0.04330348386343515
324 0.03311063308688861 0.05101028173729247 0.07332397218865054
325 0.03052650004424558 0.03483420649827804 0.06132022317698724
326 0.02469749855878521 0.02689603296795692 0.06301304846459096
327 0.02767551848704516 0.0152837801477033 0.05545881700432812
328 0.03887112171625614 0.04625567038456688 0.01504937647194147
329 0.03180045308066486 0.02559936562968084 0.04555311315741005
330 0.02512732762999301 0.03618401058382498 0.05716669671366679
331 0.02548751892539458 0.03723775912529028 0.0741971117039356
332 0.02128808758292219 0.02892675958643534 0.07258479620342673
333 0.03827250282183303 0.03551570551527169 0.07368452473357277
334 0.02685434438702544 0.03524092690768837 0.04703658236663177
335 0.04760208434542811 0.04601473666793001 0.07337014137174593
336 0.04119125121675445 0.01584174698316507 0.07376220487930787
337 0.01975980643637855 0.06833233072297371 0.06870857813389465
338 0.04087717574697525 0.05815066761572358 0.07182708796295682
339 0.041082262599313 0.01341836949814391 0.05760564730879721
340 0.01750416984891813 0.03978554067691763 0.07283985134594942
341 0.01141779165482839 0.03004158656298754 0.06642637731398712
342 0.02584915114993847 0.04958936842333018 0.05952514886477651
343 0.02639495312421102 0.05108221690614779 0.07434811723120219
344 0.03984404080309317 0.06596860471313315 0.03695273734526214
345 0.03790112010189717 0.02513601816548627 0.05407552073505046
346 0.05006539936606251 0.04235823390266293 0.06061281305465105
347 0.05417773425426722 0.03598754433290242 0.0566234716497481
348 0.01521983676223174 0.05110528919425937 0.04831220208605878
349 0.05275650207498828 0.05030919930996497 0.04799596977662501
350 0.04562541629446638 0.0397072904139423 0.04715976132396414
351 0.04391557294365468 0.04174966081263989 0.06490828799667719
352 0.04014657137997386 0.03894368229166264 0.05461474269581995
353 0.04860190315073913 0.02492361247847966 0.06516794744284123
354 0.04377898690969498 0.02367831238763424 0.07014039908993348
355 0.03285915444954705 0.01134923801477588 0.0676927647399313
356 0.03731816250804194 0.04574997721337288 0.0733631536823894
357 0.05117089394837154 0.04908233832548013 0.06328537119189505
358 0.04373998147648437 0.05363718003986386 0.06428053068269543
359 0.0574518033021823 0.04579027254202981 0.06313700458651875
360 0.0672418568830041 0.04922845304969336 0.06150697242719424
361 0.06066026064114449 0.04000720280670358 0.0695650541937899
362 0.0687161368808042 0.03322562438841181 0.06976590461575718
363 0.03202372630599098 0.03799126893288111 0.07488272869479866
364 0.03713717988800298 0.04447110232633342 0.0660808860383453
365 0.04270509647754978 0.069635864446587 0.05249657696697524
366 0.03662218039555271 0.03900778445802809 0.06836911758755265
367 0.05003205336058311 0.03257068803732485 0.05116040559353716
368 0.04899472791159091 0.02179390594738515 0.05026498554798986
369 0.0573806196847843 0.03811964626110375 0.04694256234607708
370 0.04401080776053302 0.02949715822463037 0.07499727756176805
371 0.03393389624984698 0.05091793063727722 0.05346503465631162
372 0.04684907604396935 0.04725181043007003 0.0672691282548093
373 0.02848856276281957 0.05928897225441748 0.07159741065675196
374 0.04363097352455345 0.0266670510660223 0.03263669205172916
375 0.05782415228901387 0.04375067405357577 0.05508193814168231
376 0.05700868605048746 0.02412743652288758 0.06872903160764918
377 0.03325713573055402 0.02889243254400402 0.0628869198479067
378 0.06476143652734155 0.01630936447144146 0.01913949400011678
379 0.06158964087628878 0.03040035968328156 0.06079738329719005
380 0.02857471148241643 0.03900061366185246 0.06617304816362568
381 0.0334470189243809 0.05617267455990074 0.05858519755760255
382 0.04064119079201661 0.05034945965277796 0.05659598509516704
383 0.03236838125207824 0.0615260593692593 0.04914748457744736
384 0.06606684608290442 0.04124206143602731 0.01432356959681657
385 0.05182472742364651 0.06189128723704516 0.07036240784061026
386 0.04370443043027879 0.03676421854723777 0.07572776057853885
387 0.03596874787879644 0.05107253033286268 0.06763156857596886
388 0.04881605078361053 0.03636058746010812 0.06646333023713963
389 0.0363689114855115 0.03362778246512954 0.05720824525254584
390 0.03635407707843358 0.0344679339759983 0.04984539997910346
391 0.0339194858651914 0.03076860886144643 0.07520140967125451
392 0.01931907158897233 0.05470985846122885 0.06869248862563782
393 0.04483969819677072 0.05078451435674403 0.07489019771365263
394 0.06500190360966954 0.06226376011548931 0.04909331484510464
395 0.01700944363521652 0.0641358178198074 0.01674602015737846
396 0.05538644759694048 0.03817925767807122 0.06339680853740003
397 0.04217007623328966 0.03551830417438791 0.06515425925175125
398 0.05156643259988947 0.04062071222940029 0.03442810333202197
399 0.03167754442230059 0.04522155679893134 0.05747837296694625
400 0.02383735421304161 0.05900419886063021 0.05992767917544671
401 0.06341341302105762 0.06426038221289965 0.01701076685175075
402 0.01136404467448149 0.06065915584342368 0.05925256724978732
403 0.04841856856385787 0.05304242311727593 0.05685349243047162
404 0.05395261002891621 0.06111585188386204 0.0563096026522976
405 0.04518027824079947 0.07020618690902455 0.06923218059419649
406 0.01406537356723548 0.01348226403022957 0.02797274289198555
407 0.0376529483913877 0.03168682772609806 0.06922943462875902
408 0.03720193797953885 0.04814170908230062 0.03122648326959902
409 0.0526440799000398 0.03173687168562834 0.06302256081041811
410 0.04630869034782401 0.03092380139243262 0.06273518839501864
411 0.0562094060607252 0.01471798717577689 0.03850173579130762
412 0.04513048176302348 0.04483368622273912 0.0540895018455349
413 0.0549852560062762 0.04175731959052741 0.07491059169338428
414 0.02945712610253674 0.02057469719723498 0.06498116752096074
415 0.02856167779376227 0.03047712945890649 0.07464719739493222
416 0.02614719116494492 0.04509079519025132 0.04204095762813461
417 0.05612117777325119 0.07048701468761924 0.06015210484963953
418 0.05226044911524913 0.0483744509423499 0.07594321012523852
419 0.05373786125991738 0.04763263055128442 0.06984159049751808
420 0.05508552351946863 0.05456423859710836 0.06507587281852145
421 0.02799913310018135 0.0315423819075029 0.03116055777362225
422 0.03046794571369042 0.04625250110144689 0.0645754100411798
423 0.01732107923499951 0.0456426611784049 0.0169703977050804
424 0.05715716677294941 0.05471429676878471 0.07397841005198742
425 0.04035525526664414 0.06627529019837172 0.01410724043252575
426 0.03786963662608475 0.04435051499055259 0.05793027339281245
427 0.02609259562335036 0.04474321464480858 0.07515638661309926
428 0.03150936098159688 0.04573873774371033 0.07584979949056044
429 0.02697802700345044 0.03216384662654059 0.06765501165899125
430 0.05093512034563741 0.0188307497169112 0.06052410078532374
431 0.03716919050833533 0.04077915814372732 0.07510317143208911
432 0.04124361724067985 0.02736289517603645 0.06551994489678173
433 0.04348616942328679 0.01833548178856116 0.06544203995639569
434 0.05688979860565575 0.03125688311693973 0.07461590862486517
435 0.03388824924640459 0.02462221337743582 0.07536936435879804
436 0.03411747882798078 0.06756777503653484 0.07193883821743846
437 0.01045239641734457 0.04829875286978862 0.07188875486327304
438 0.03882371287740621 0.05126853793697309 0.07523368082829304
439 0.04947551327888301 0.02780044992143311 0.01333606079909314
440 0.03021841983668545 0.01252897907481051 0.03748273387166291
441 0.03179659922724916 0.06891205351483475 0.05913673507371914
442 0.04201555460224797 0.04935606158260208 0.04871351629190072
443 0.05746237178468794 0.03031672787076205 0.0520693526777426
444 0.02121024265148224 0.02681546280518891 0.05434200014546055
445 0.01193114505134094 0.01760031464602049 0.05043880101442018
446 0.04880329857264438 0.03230801186179345 0.07575761539526321
447 0.04100707178244475 0.04664704101674669 0.06308513321605595
448 0.0319992649606776 0.02673194298601024 0.06915558038780226
449 0.0360545830105244 0.0199146317849625 0.07140652696419035
450 0.02219465505887643 0.04147161931008376 0.0604785601409888
451 0.05194211774513191 0.04732224034606222 0.05672054901087803
452 0.04267529964321907 0.04392407806904706 0.07590414995704253
453 0.03334551001740177 0.0414884589416382 0.06271927115746569
454 0.04317238508397054 0.02233997325732158 0.07539534143703742
455 0.04267562489181423 0.02943793247100785 0.04569867351734042
456 0.05032856502890826 0.03002672260955863 0.06984948154664411
457 0.04353774300272538 0.04076724435757886 0.05944191963388096
458 0.0682678457440947 0.01229336689236149 0.04288964560649337
459 0.01959911325564284 0.04794746367728949 0.07386081969739164
460 0.04857178179204256 0.03297936535118959 0.05733431066266711
461 0.01243306440206012 0.0267025165171766 0.0129998926160548
462 0.03338750728052439 0.05629231816791046 0.07601480500727302
463 0.02931386631881699 0.04807067468245381 0.07024224875073311
464 0.05862585929672881 0.02098640917397054 0.05342117690315288
465 0.04663591056302948 0.01388491015477453 0.02205688311479578
466 0.0431811883989338 0.03489343674838247 0.05875056757223179
467 0.02999535797583935 0.07110343326790851 0.04550848756919579
468 0.03021288130183277 0.02448686199773191 0.05714913769159255
469 0.04692750593875476 0.03803909248304521 0.05523085837437932
470 0.02664855677542861 0.05336022123762423 0.04922204430797087
471 0.03881842154104115 0.03053069202221525 0.07648086420066845
472 0.03548923324944064 0.03499617837091556 0.06449332490185976
473 0.01373225168317566 0.06518468433039028 0.03955648235201661
474 0.04612763099901343 0.02778243852045251 0.0564341894935365
475 0.0690395647875035 0.05004282882456949 0.07263132659272609
476 0.04842360619514791 0.04122170790914881 0.07592908115049886
477 0.04850316113953371 0.009352918231230831 0.06800911098720301
478 0.03895651280252835 0.009696392454268392 0.009619172270787409
479 0.07226545447562595 0.07149274302443462 0.05626512605227151
480 0.07327322171827393 0.07335316056535905 0.02001424513540383
481 0.07322037644947074 0.006747148492376225 0.02287323264341505
482 0.006427795321348369 0.008140375286914688 0.05816953224091237
483 0.007792355112711878 0.07310160408487702 0.02561181974145093
484 0.00613978147848307 0.0721994105475029 0.05265706338283459
485 0.007764871040721378 0.04458391245870239 0.006771100685727943
486 0.02091607937305247 0.006424113488376992 0.07276705943477306
487 0.04019036276858819 0.007459151251629008 0.07363463928346949
488 0.008380498751181723 0.03860561927527362 0.07263539727089585
489 0.0585844744238069 0.07084692741701447 0.07212280733098012
490 0.006670123961485704 0.01946984082755945 0.07342871140538695
491 0.07313182134553797 0.007246454732488558 0.05980298380783851
492 0.07338320207067034 0.06021549432612618 0.07348805727288253
493 0.009555519156991328 0.05997764853377086 0.07198719709117979
494 0.0734009186629014 0.02034860852264031 0.07330540965372569
495 0.05819398906446947 0.007348793904644501 0.008336411397823868
496 0.07279104199559368 0.05925946913063358 0.007716392841031012
497 0.008569044925382061 0.01105003513235426 0.01082453282282909
498 0.07046005453874675 0.07187199173361655 0.03333546369289851
499 0.05895875810060126 0.07261295360671756 0.0075830264234599
500 0.006116559389182444 0.07363882075315169 0.03974424000682669
501 0.006096765103234441 0.007434383906808333 0.04466364280355742
502 0.07199989541648087 0.07150350027295345 0.07246179854149058
503 0.007962238383623085 0.05853517950509486 0.007801796188557713
504 0.0208202651693939 0.07307378409485286 0.007100220075618249
505 0.008369617118515325 0.07136572202151722 0.06961291322269557
506 0.009748873262466238 0.007738330899811484 0.07039206501987566
507 0.07316240453071104 0.02095787693375688 0.007752225679053482
508 0.02050847540412481 0.01075617154318494 0.008610078138173808
509 0.07292365382015852 0.008039816144844811 0.07236214593025542
510 0.07216320945028404 0.007977097520523927 0.008567708422085889
511 0.07196282973446265 0.07212246324964285 0.008053666455198999
512 0.008159406743035781 0.07200544408767288 0.008346572743241321
$EndNodes
$Elements
2144
1 4 2 1 1 358 381 299 387
2 4 2 1 1 318 420 308 424
3 4 2 1 1 271 316 339 345
4 4 2 1 1 277 306 304 450
5 4 2 1 1 277 304 330 450
6 4 2 1 1 272 323 302 442
7 4 2 1 1 313 453 426 399
8 4 2 1 1 313 399 305 453
9 4 2 1 1 384 312 97 278
10 4 2 1 1 93 278 498 401
11 4 2 1 1 313 300 352 390
12 4 2 1 1 179 423 461 294
13 4 2 1 1 358 387 279 338
14 4 2 1 1 292 372 358 447
15 4 2 1 1 423 294 172 328
16 4 2 1 1 276 295 319 388
17 4 2 1 1 40 511 174 496
18 4 2 1 1 295 388 276 397
19 4 2 1 1 174 496 511 401
20 4 2 1 1 238 331 363 415
21 4 2 1 1 388 410 409 456
22 4 2 1 1 305 330 325 380
23 4 2 1 1 276 333 295 397
24 4 2 1 1 276 410 388 456
25 4 2 1 1 346 357 292 372
26 4 2 1 1 305 325 313 453
27 4 2 1 1 121 478 118 294
28 4 2 1 1 409 410 353 456
29 4 2 1 1 275 357 346 372
30 4 2 1 1 40 511 496 102
31 4 2 1 1 45 506 202 486
32 4 2 1 1 313 325 268 453
33 4 2 1 1 114 327 445 287
34 4 2 1 1 202 486 506 287
35 4 2 1 1 498 141 480 401
36 4 2 1 1 273 326 325 429
37 4 2 1 1 276 295 333 386
38 4 2 1 1 508 406 294 461
39 4 2 1 1 288 320 265 376
40 4 2 1 1 360 420 269 359
41 4 2 1 1 481 458 378 116
42 4 2 1 1 304 273 330 450
43 4 2 1 1 320 354 288 454
44 4 2 1 1 276 353 410 456
45 4 2 1 1 506 45 117 486
46 4 2 1 1 238 363 391 415
47 4 2 1 1 272 302 310 349
48 4 2 1 1 481 458 116 26
49 4 2 1 1 131 310 278 394
50 4 2 1 1 498 93 401 480
51 4 2 1 1 313 352 268 389
52 4 2 1 1 290 366 356 431
53 4 2 1 1 356 366 295 431
54 4 2 1 1 352 389 313 390
55 4 2 1 1 238 331 236 363
56 4 2 1 1 292 358 357 403
57 4 2 1 1 299 381 358 382
58 4 2 1 1 179 423 294 172
59 4 2 1 1 277 305 313 399
60 4 2 1 1 37 510 507 173
61 4 2 1 1 507 173 510 378
62 4 2 1 1 160 425 328 401
63 4 2 1 1 172 294 162 328
64 4 2 1 1 82 498 278 394
65 4 2 1 1 81 89 481 378
66 4 2 1 1 284 378 458 411
67 4 2 1 1 358 403 420 357
68 4 2 1 1 243 393 303 418
69 4 2 1 1 321 374 368 455
70 4 2 1 1 326 332 273 341
71 4 2 1 1 285 312 87 322
72 4 2 1 1 478 169 294 158
73 4 2 1 1 290 324 356 387
74 4 2 1 1 280 330 313 334
75 4 2 1 1 299 399 426 453
76 4 2 1 1 325 326 273 330
77 4 2 1 1 437 488 340 183
78 4 2 1 1 356 364 295 366
79 4 2 1 1 330 334 280 444
80 4 2 1 1 280 326 325 330
81 4 2 1 1 290 364 356 366
82 4 2 1 1 37 510 173 6
83 4 2 1 1 237 428 363 427
84 4 2 1 1 238 363 228 391
85 4 2 1 1 49 512 175 504
86 4 2 1 1 324 214 356 438
87 4 2 1 1 292 382 403 412
88 4 2 1 1 462 213 343 324
89 4 2 1 1 254 413 361 434
90 4 2 1 1 175 504 512 395
91 4 2 1 1 299 422 399 453
92 4 2 1 1 457 447 426 268
93 4 2 1 1 290 324 387 463
94 4 2 1 1 274 129 327 445
95 4 2 1 1 172 170 162 294
96 4 2 1 1 457 447 268 351
97 4 2 1 1 268 325 313 389
98 4 2 1 1 313 352 300 426
99 4 2 1 1 268 352 313 426
100 4 2 1 1 302 349 272 442
101 4 2 1 1 290 356 364 387
102 4 2 1 1 295 364 351 366
103 4 2 1 1 270 373 324 387
104 4 2 1 1 283 367 350 369
105 4 2 1 1 153 278 344 425
106 4 2 1 1 508 406 125 118
107 4 2 1 1 351 364 295 279
108 4 2 1 1 193 320 288 454
109 4 2 1 1 306 488 340 437
110 4 2 1 1 272 358 382 403
111 4 2 1 1 326 341 273 444
112 4 2 1 1 325 377 280 389
113 4 2 1 1 325 326 280 377
114 4 2 1 1 49 512 504 150
115 4 2 1 1 388 410 397 296
116 4 2 1 1 287 315 190 355
117 4 2 1 1 93 278 401 97
118 4 2 1 1 388 397 410 276
119 4 2 1 1 508 176 497 461
120 4 2 1 1 271 345 327 468
121 4 2 1 1 277 330 304 334
122 4 2 1 1 277 313 305 330
123 4 2 1 1 284 458 378 96
124 4 2 1 1 340 488 253 183
125 4 2 1 1 93 278 97 82
126 4 2 1 1 324 387 373 338
127 4 2 1 1 160 425 401 166
128 4 2 1 1 457 447 351 292
129 4 2 1 1 318 424 308 475
130 4 2 1 1 274 327 129 440
131 4 2 1 1 253 488 340 341
132 4 2 1 1 120 327 281 440
133 4 2 1 1 333 228 235 363
134 4 2 1 1 281 368 374 455
135 4 2 1 1 363 428 219 431
136 4 2 1 1 289 389 352 390
137 4 2 1 1 292 357 358 372
138 4 2 1 1 273 325 330 380
139 4 2 1 1 498 136 401 278
140 4 2 1 1 508 176 41 497
141 4 2 1 1 117 327 287 355
142 4 2 1 1 271 314 354 432
143 4 2 1 1 360 362 361 285
144 4 2 1 1 268 351 364 366
145 4 2 1 1 409 376 456 353
146 4 2 1 1 268 389 309 472
147 4 2 1 1 324 356 214 428
148 4 2 1 1 328 395 171 423
149 4 2 1 1 253 488 14 183
150 4 2 1 1 303 393 335 418
151 4 2 1 1 296 409 388 410
152 4 2 1 1 361 413 319 434
153 4 2 1 1 2 41 176 497
154 4 2 1 1 153 278 425 401
155 4 2 1 1 346 351 296 388
156 4 2 1 1 53 505 337 204
157 4 2 1 1 275 351 346 388
158 4 2 1 1 268 325 389 472
159 4 2 1 1 226 247 319 413
160 4 2 1 1 297 388 319 396
161 4 2 1 1 270 299 381 387
162 4 2 1 1 171 395 328 425
163 4 2 1 1 452 279 438 393
164 4 2 1 1 267 353 376 409
165 4 2 1 1 299 426 364 453
166 4 2 1 1 360 362 285 83
167 4 2 1 1 228 363 333 391
168 4 2 1 1 136 278 131 310
169 4 2 1 1 121 478 294 465
170 4 2 1 1 333 366 295 397
171 4 2 1 1 487 259 180 336
172 4 2 1 1 220 386 218 452
173 4 2 1 1 313 325 305 330
174 4 2 1 1 313 330 277 334
175 4 2 1 1 324 373 343 462
176 4 2 1 1 160 328 384 401
177 4 2 1 1 363 366 286 380
178 4 2 1 1 313 426 453 268
179 4 2 1 1 309 389 268 466
180 4 2 1 1 268 364 351 447
181 4 2 1 1 464 321 411 368
182 4 2 1 1 350 352 300 390
183 4 2 1 1 260 320 370 446
184 4 2 1 1 331 363 286 380
185 4 2 1 1 290 428 363 431
186 4 2 1 1 94 284 384 378
187 4 2 1 1 386 431 218 452
188 4 2 1 1 333 235 228 222
189 4 2 1 1 305 399 422 453
190 4 2 1 1 53 505 204 3
191 4 2 1 1 14 488 253 341
192 4 2 1 1 498 136 278 131
193 4 2 1 1 268 457 397 466
194 4 2 1 1 457 447 292 426
195 4 2 1 1 47 192 48 477
196 4 2 1 1 335 452 393 279
197 4 2 1 1 121 294 118 406
198 4 2 1 1 331 332 273 429
199 4 2 1 1 266 442 300 350
200 4 2 1 1 201 502 492 318
201 4 2 1 1 358 420 403 293
202 4 2 1 1 121 478 465 108
203 4 2 1 1 290 356 428 431
204 4 2 1 1 306 277 342 450
205 4 2 1 1 162 328 294 439
206 4 2 1 1 270 381 301 387
207 4 2 1 1 233 335 393 418
208 4 2 1 1 397 457 296 466
209 4 2 1 1 376 456 353 320
210 4 2 1 1 299 358 387 447
211 4 2 1 1 279 387 358 447
212 4 2 1 1 196 332 287 341
213 4 2 1 1 270 324 343 463
214 4 2 1 1 508 406 118 294
215 4 2 1 1 295 351 388 397
216 4 2 1 1 268 352 457 466
217 4 2 1 1 335 393 372 279
218 4 2 1 1 299 270 342 422
219 4 2 1 1 331 290 311 427
220 4 2 1 1 96 89 81 378
221 4 2 1 1 271 309 345 377
222 4 2 1 1 226 413 319 476
223 4 2 1 1 286 363 331 415
224 4 2 1 1 268 389 352 466
225 4 2 1 1 315 332 248 415
226 4 2 1 1 207 320 261 434
227 4 2 1 1 235 333 363 431
228 4 2 1 1 299 342 399 422
229 4 2 1 1 269 403 357 420
230 4 2 1 1 179 294 461 169
231 4 2 1 1 103 284 458 322
232 4 2 1 1 115 478 465 495
233 4 2 1 1 331 238 197 415
234 4 2 1 1 471 228 333 391
235 4 2 1 1 290 387 422 463
236 4 2 1 1 32 502 492 201
237 4 2 1 1 368 430 339 317
238 4 2 1 1 280 325 313 330
239 4 2 1 1 290 387 364 422
240 4 2 1 1 313 325 280 389
241 4 2 1 1 270 301 373 387
242 4 2 1 1 269 404 394 349
243 4 2 1 1 301 381 358 387
244 4 2 1 1 286 391 363 415
245 4 2 1 1 249 320 370 260
246 4 2 1 1 276 370 333 407
247 4 2 1 1 333 235 218 431
248 4 2 1 1 333 407 370 471
249 4 2 1 1 216 428 356 431
250 4 2 1 1 217 220 218 452
251 4 2 1 1 331 311 290 380
252 4 2 1 1 48 477 192 307
253 4 2 1 1 286 325 377 429
254 4 2 1 1 478 439 294 465
255 4 2 1 1 32 502 201 7
256 4 2 1 1 281 368 455 345
257 4 2 1 1 298 423 73 473
258 4 2 1 1 282 423 298 473
259 4 2 1 1 220 386 452 476
260 4 2 1 1 493 392 188 437
261 4 2 1 1 160 425 166 178
262 4 2 1 1 88 98 284 312
263 4 2 1 1 275 388 346 396
264 4 2 1 1 277 334 304 416
265 4 2 1 1 296 346 388 396
266 4 2 1 1 506 13 202 490
267 4 2 1 1 309 345 377 389
268 4 2 1 1 272 358 381 382
269 4 2 1 1 305 399 342 422
270 4 2 1 1 87 362 285 379
271 4 2 1 1 103 284 322 88
272 4 2 1 1 301 387 358 338
273 4 2 1 1 263 427 343 428
274 4 2 1 1 320 370 354 454
275 4 2 1 1 462 343 213 256
276 4 2 1 1 216 219 428 431
277 4 2 1 1 273 325 380 429
278 4 2 1 1 297 319 361 396
279 4 2 1 1 153 278 401 136
280 4 2 1 1 282 395 423 473
281 4 2 1 1 243 303 244 418
282 4 2 1 1 506 13 490 76
283 4 2 1 1 373 387 301 338
284 4 2 1 1 328 278 401 425
285 4 2 1 1 73 423 395 473
286 4 2 1 1 271 339 327 345
287 4 2 1 1 295 366 351 397
288 4 2 1 1 413 254 247 434
289 4 2 1 1 65 497 461 406
290 4 2 1 1 268 351 366 397
291 4 2 1 1 346 347 375 396
292 4 2 1 1 290 366 363 380
293 4 2 1 1 218 222 333 386
294 4 2 1 1 300 412 352 350
295 4 2 1 1 271 339 316 433
296 4 2 1 1 370 407 314 471
297 4 2 1 1 452 438 279 356
298 4 2 1 1 290 380 311 422
299 4 2 1 1 311 380 305 422
300 4 2 1 1 360 420 359 308
301 4 2 1 1 311 331 273 380
302 4 2 1 1 162 294 177 439
303 4 2 1 1 268 426 364 447
304 4 2 1 1 279 358 338 393
305 4 2 1 1 290 363 366 431
306 4 2 1 1 270 299 342 381
307 4 2 1 1 362 31 475 182
308 4 2 1 1 319 386 276 446
309 4 2 1 1 289 352 350 390
310 4 2 1 1 116 378 111 411
311 4 2 1 1 129 274 105 445
312 4 2 1 1 273 304 330 444
313 4 2 1 1 357 358 303 420
314 4 2 1 1 185 413 418 308
315 4 2 1 1 407 432 314 448
316 4 2 1 1 299 364 422 453
317 4 2 1 1 95 360 318 394
318 4 2 1 1 314 276 432 407
319 4 2 1 1 508 176 461 169
320 4 2 1 1 120 281 327 339
321 4 2 1 1 268 364 426 453
322 4 2 1 1 326 377 325 429
323 4 2 1 1 114 327 287 117
324 4 2 1 1 116 111 106 411
325 4 2 1 1 282 395 328 423
326 4 2 1 1 153 278 136 344
327 4 2 1 1 234 415 391 435
328 4 2 1 1 270 299 387 422
329 4 2 1 1 218 386 333 431
330 4 2 1 1 97 384 278 401
331 4 2 1 1 276 319 446 456
332 4 2 1 1 272 349 310 404
333 4 2 1 1 311 340 331 427
334 4 2 1 1 478 439 465 168
335 4 2 1 1 314 432 276 354
336 4 2 1 1 278 310 136 344
337 4 2 1 1 290 427 363 428
338 4 2 1 1 314 354 276 370
339 4 2 1 1 202 506 490 287
340 4 2 1 1 270 301 381 400
341 4 2 1 1 481 124 510 25
342 4 2 1 1 481 124 378 510
343 4 2 1 1 331 363 290 427
344 4 2 1 1 221 386 370 471
345 4 2 1 1 115 478 495 43
346 4 2 1 1 328 395 282 425
347 4 2 1 1 362 31 182 30
348 4 2 1 1 277 342 305 399
349 4 2 1 1 239 236 238 331
350 4 2 1 1 276 314 370 407
351 4 2 1 1 276 319 295 386
352 4 2 1 1 272 403 349 404
353 4 2 1 1 215 356 214 438
354 4 2 1 1 25 6 124 510
355 4 2 1 1 215 438 393 452
356 4 2 1 1 333 218 235 222
357 4 2 1 1 281 374 329 455
358 4 2 1 1 281 440 327 329
359 4 2 1 1 296 351 346 457
360 4 2 1 1 512 4 17 150
361 4 2 1 1 265 288 193 320
362 4 2 1 1 327 444 326 468
363 4 2 1 1 139 291 402 473
364 4 2 1 1 114 327 117 129
365 4 2 1 1 300 399 313 426
366 4 2 1 1 290 363 331 380
367 4 2 1 1 218 221 222 386
368 4 2 1 1 120 129 327 440
369 4 2 1 1 233 393 243 418
370 4 2 1 1 226 246 247 413
371 4 2 1 1 271 314 432 448
372 4 2 1 1 104 278 394 82
373 4 2 1 1 371 381 299 382
374 4 2 1 1 293 338 301 358
375 4 2 1 1 238 236 228 363
376 4 2 1 1 53 337 54 198
377 4 2 1 1 79 298 64 304
378 4 2 1 1 308 361 257 413
379 4 2 1 1 297 396 361 379
380 4 2 1 1 483 512 17 150
381 4 2 1 1 271 432 316 309
382 4 2 1 1 205 392 343 459
383 4 2 1 1 275 346 357 359
384 4 2 1 1 305 380 311 450
385 4 2 1 1 338 358 303 393
386 4 2 1 1 268 351 397 457
387 4 2 1 1 333 370 276 386
388 4 2 1 1 289 350 352 469
389 4 2 1 1 368 339 430 316
390 4 2 1 1 479 417 394 318
391 4 2 1 1 360 420 308 318
392 4 2 1 1 297 319 388 456
393 4 2 1 1 442 403 382 412
394 4 2 1 1 346 283 412 451
395 4 2 1 1 311 290 422 463
396 4 2 1 1 439 398 384 328
397 4 2 1 1 275 319 361 413
398 4 2 1 1 271 316 345 309
399 4 2 1 1 314 271 354 449
400 4 2 1 1 281 455 329 345
401 4 2 1 1 276 386 370 446
402 4 2 1 1 279 387 356 438
403 4 2 1 1 356 387 324 438
404 4 2 1 1 346 375 359 396
405 4 2 1 1 280 334 313 390
406 4 2 1 1 483 512 150 395
407 4 2 1 1 346 351 292 457
408 4 2 1 1 372 358 279 393
409 4 2 1 1 442 403 412 349
410 4 2 1 1 351 295 372 279
411 4 2 1 1 276 333 397 407
412 4 2 1 1 278 384 328 401
413 4 2 1 1 298 304 274 334
414 4 2 1 1 140 499 401 425
415 4 2 1 1 305 277 330 450
416 4 2 1 1 249 320 260 193
417 4 2 1 1 275 372 351 295
418 4 2 1 1 237 363 331 427
419 4 2 1 1 296 347 346 396
420 4 2 1 1 221 370 386 446
421 4 2 1 1 298 423 421 461
422 4 2 1 1 297 376 362 434
423 4 2 1 1 207 376 320 434
424 4 2 1 1 285 360 312 375
425 4 2 1 1 158 170 169 294
426 4 2 1 1 338 230 438 393
427 4 2 1 1 158 177 294 439
428 4 2 1 1 8 33 149 511
429 4 2 1 1 322 411 284 458
430 4 2 1 1 273 332 326 429
431 4 2 1 1 511 480 33 149
432 4 2 1 1 511 480 149 401
433 4 2 1 1 290 356 324 428
434 4 2 1 1 292 382 358 403
435 4 2 1 1 354 456 320 353
436 4 2 1 1 312 369 285 375
437 4 2 1 1 408 423 328 421
438 4 2 1 1 331 380 286 429
439 4 2 1 1 334 444 329 280
440 4 2 1 1 236 331 237 363
441 4 2 1 1 397 410 276 432
442 4 2 1 1 318 394 269 404
443 4 2 1 1 280 313 389 390
444 4 2 1 1 273 450 304 306
445 4 2 1 1 242 320 260 446
446 4 2 1 1 269 312 360 375
447 4 2 1 1 338 230 393 187
448 4 2 1 1 205 493 392 188
449 4 2 1 1 403 420 404 293
450 4 2 1 1 408 423 421 298
451 4 2 1 1 225 319 386 476
452 4 2 1 1 315 415 248 435
453 4 2 1 1 282 348 416 470
454 4 2 1 1 286 429 377 448
455 4 2 1 1 366 397 333 407
456 4 2 1 1 292 346 412 451
457 4 2 1 1 280 329 334 390
458 4 2 1 1 275 372 335 419
459 4 2 1 1 354 456 353 276
460 4 2 1 1 295 431 386 452
461 4 2 1 1 142 291 441 337
462 4 2 1 1 121 478 108 118
463 4 2 1 1 73 348 298 473
464 4 2 1 1 172 328 171 423
465 4 2 1 1 94 284 378 96
466 4 2 1 1 357 419 359 420
467 4 2 1 1 139 505 484 402
468 4 2 1 1 327 440 274 329
469 4 2 1 1 505 139 337 402
470 4 2 1 1 326 414 327 468
471 4 2 1 1 494 29 30 194
472 4 2 1 1 151 3 20 505
473 4 2 1 1 357 359 346 451
474 4 2 1 1 290 428 324 463
475 4 2 1 1 408 423 298 282
476 4 2 1 1 391 435 415 448
477 4 2 1 1 345 377 280 468
478 4 2 1 1 279 364 356 387
479 4 2 1 1 270 343 311 463
480 4 2 1 1 279 358 372 447
481 4 2 1 1 295 364 356 279
482 4 2 1 1 270 373 301 400
483 4 2 1 1 345 280 377 389
484 4 2 1 1 434 446 319 456
485 4 2 1 1 303 358 372 393
486 4 2 1 1 308 360 318 475
487 4 2 1 1 314 449 354 454
488 4 2 1 1 268 397 309 466
489 4 2 1 1 316 353 410 432
490 4 2 1 1 87 285 322 379
491 4 2 1 1 495 478 465 168
492 4 2 1 1 97 90 384 401
493 4 2 1 1 286 380 366 472
494 4 2 1 1 357 372 303 358
495 4 2 1 1 435 471 314 391
496 4 2 1 1 386 295 452 476
497 4 2 1 1 54 198 337 436
498 4 2 1 1 505 337 139 151
499 4 2 1 1 95 318 479 394
500 4 2 1 1 309 410 397 432
501 4 2 1 1 229 435 314 454
502 4 2 1 1 392 306 311 459
503 4 2 1 1 31 32 492 184
504 4 2 1 1 221 231 370 446
505 4 2 1 1 304 334 330 444
506 4 2 1 1 346 292 357 451
507 4 2 1 1 292 412 346 457
508 4 2 1 1 88 312 284 322
509 4 2 1 1 435 471 391 262
510 4 2 1 1 170 158 177 294
511 4 2 1 1 140 401 153 425
512 4 2 1 1 270 311 422 463
513 4 2 1 1 324 270 343 373
514 4 2 1 1 491 123 509 307
515 4 2 1 1 287 332 326 341
516 4 2 1 1 413 418 308 419
517 4 2 1 1 491 123 28 509
518 4 2 1 1 349 412 283 451
519 4 2 1 1 378 439 168 465
520 4 2 1 1 439 398 328 374
521 4 2 1 1 408 423 282 328
522 4 2 1 1 190 287 203 315
523 4 2 1 1 249 320 193 454
524 4 2 1 1 304 306 277 348
525 4 2 1 1 303 372 335 393
526 4 2 1 1 354 456 276 370
527 4 2 1 1 28 5 509 123
528 4 2 1 1 213 263 343 428
529 4 2 1 1 354 456 370 320
530 4 2 1 1 46 486 45 190
531 4 2 1 1 276 410 353 432
532 4 2 1 1 471 228 391 227
533 4 2 1 1 296 397 351 457
534 4 2 1 1 304 62 63 306
535 4 2 1 1 368 443 464 321
536 4 2 1 1 479 148 502 36
537 4 2 1 1 36 502 7 148
538 4 2 1 1 334 329 444 274
539 4 2 1 1 479 148 318 502
540 4 2 1 1 278 328 384 398
541 4 2 1 1 331 340 240 427
542 4 2 1 1 233 335 223 393
543 4 2 1 1 304 334 298 416
544 4 2 1 1 94 507 378 384
545 4 2 1 1 286 415 331 429
546 4 2 1 1 215 356 438 452
547 4 2 1 1 115 378 495 465
548 4 2 1 1 286 380 325 429
549 4 2 1 1 213 343 324 428
550 4 2 1 1 276 446 370 456
551 4 2 1 1 292 351 372 447
552 4 2 1 1 286 325 380 472
553 4 2 1 1 331 332 252 340
554 4 2 1 1 335 372 303 419
555 4 2 1 1 118 125 113 406
556 4 2 1 1 346 347 296 469
557 4 2 1 1 316 430 368 474
558 4 2 1 1 286 363 333 366
559 4 2 1 1 372 295 335 279
560 4 2 1 1 216 431 356 452
561 4 2 1 1 277 371 399 300
562 4 2 1 1 268 309 397 472
563 4 2 1 1 479 417 318 148
564 4 2 1 1 326 280 377 468
565 4 2 1 1 283 347 346 469
566 4 2 1 1 501 114 445 482
567 4 2 1 1 225 226 319 476
568 4 2 1 1 258 338 181 405
569 4 2 1 1 242 320 446 434
570 4 2 1 1 96 81 103 458
571 4 2 1 1 322 369 321 443
572 4 2 1 1 263 241 427 428
573 4 2 1 1 287 341 326 444
574 4 2 1 1 479 95 99 318
575 4 2 1 1 318 360 269 394
576 4 2 1 1 63 341 304 306
577 4 2 1 1 21 2 176 497
578 4 2 1 1 290 311 427 463
579 4 2 1 1 184 492 31 475
580 4 2 1 1 372 447 351 279
581 4 2 1 1 273 330 326 444
582 4 2 1 1 490 287 68 341
583 4 2 1 1 166 157 178 425
584 4 2 1 1 296 347 396 409
585 4 2 1 1 214 356 216 428
586 4 2 1 1 214 213 324 428
587 4 2 1 1 278 408 344 425
588 4 2 1 1 273 331 311 340
589 4 2 1 1 223 393 335 452
590 4 2 1 1 439 164 384 378
591 4 2 1 1 346 412 469 457
592 4 2 1 1 277 371 342 399
593 4 2 1 1 435 471 262 229
594 4 2 1 1 370 386 333 471
595 4 2 1 1 333 363 286 391
596 4 2 1 1 94 284 96 98
597 4 2 1 1 380 453 366 472
598 4 2 1 1 154 291 139 473
599 4 2 1 1 275 335 413 419
600 4 2 1 1 188 16 204 493
601 4 2 1 1 207 265 261 320
602 4 2 1 1 325 453 380 472
603 4 2 1 1 207 265 320 376
604 4 2 1 1 120 327 117 355
605 4 2 1 1 237 428 427 241
606 4 2 1 1 276 353 354 432
607 4 2 1 1 160 384 328 439
608 4 2 1 1 205 373 343 392
609 4 2 1 1 238 391 234 415
610 4 2 1 1 132 405 436 441
611 4 2 1 1 121 128 108 465
612 4 2 1 1 320 446 434 456
613 4 2 1 1 283 412 349 350
614 4 2 1 1 224 221 370 471
615 4 2 1 1 319 276 388 456
616 4 2 1 1 21 176 461 497
617 4 2 1 1 347 367 267 460
618 4 2 1 1 269 394 312 349
619 4 2 1 1 158 168 177 439
620 4 2 1 1 197 332 331 415
621 4 2 1 1 114 129 105 445
622 4 2 1 1 179 294 169 170
623 4 2 1 1 79 72 298 406
624 4 2 1 1 15 493 188 437
625 4 2 1 1 126 12 1 506
626 4 2 1 1 139 291 337 402
627 4 2 1 1 278 328 408 425
628 4 2 1 1 45 506 126 1
629 4 2 1 1 220 452 232 476
630 4 2 1 1 306 488 437 59
631 4 2 1 1 117 287 486 355
632 4 2 1 1 117 506 486 287
633 4 2 1 1 261 265 193 320
634 4 2 1 1 175 4 24 512
635 4 2 1 1 311 380 273 450
636 4 2 1 1 313 334 277 300
637 4 2 1 1 49 512 150 4
638 4 2 1 1 275 388 319 295
639 4 2 1 1 235 363 219 431
640 4 2 1 1 342 450 311 306
641 4 2 1 1 504 150 512 395
642 4 2 1 1 203 315 287 332
643 4 2 1 1 64 304 298 348
644 4 2 1 1 435 449 314 454
645 4 2 1 1 272 310 302 344
646 4 2 1 1 267 430 368 464
647 4 2 1 1 111 281 411 465
648 4 2 1 1 160 425 178 328
649 4 2 1 1 503 512 175 24
650 4 2 1 1 316 339 430 433
651 4 2 1 1 90 384 496 39
652 4 2 1 1 476 275 413 319
653 4 2 1 1 312 398 384 284
654 4 2 1 1 223 215 393 452
655 4 2 1 1 271 433 354 449
656 4 2 1 1 368 374 321 411
657 4 2 1 1 293 404 385 420
658 4 2 1 1 323 300 266 442
659 4 2 1 1 289 367 350 469
660 4 2 1 1 503 512 395 175
661 4 2 1 1 435 471 229 314
662 4 2 1 1 185 413 308 257
663 4 2 1 1 486 202 45 190
664 4 2 1 1 490 76 68 287
665 4 2 1 1 203 287 196 332
666 4 2 1 1 394 404 318 417
667 4 2 1 1 305 342 311 422
668 4 2 1 1 368 443 321 367
669 4 2 1 1 394 404 310 349
670 4 2 1 1 300 371 399 426
671 4 2 1 1 273 332 331 340
672 4 2 1 1 67 501 445 482
673 4 2 1 1 438 211 230 338
674 4 2 1 1 225 386 319 446
675 4 2 1 1 174 511 8 52
676 4 2 1 1 271 377 345 468
677 4 2 1 1 312 384 398 278
678 4 2 1 1 40 511 102 8
679 4 2 1 1 328 398 278 408
680 4 2 1 1 214 324 212 438
681 4 2 1 1 299 382 358 447
682 4 2 1 1 358 382 292 447
683 4 2 1 1 384 312 284 98
684 4 2 1 1 332 340 273 341
685 4 2 1 1 294 406 121 440
686 4 2 1 1 370 446 320 456
687 4 2 1 1 167 395 171 425
688 4 2 1 1 131 134 310 394
689 4 2 1 1 57 406 79 445
690 4 2 1 1 65 497 406 9
691 4 2 1 1 269 312 375 349
692 4 2 1 1 297 379 376 409
693 4 2 1 1 190 46 486 355
694 4 2 1 1 335 372 275 295
695 4 2 1 1 318 360 85 475
696 4 2 1 1 496 102 511 401
697 4 2 1 1 331 415 332 429
698 4 2 1 1 439 164 378 168
699 4 2 1 1 289 352 389 466
700 4 2 1 1 444 329 280 468
701 4 2 1 1 90 496 384 401
702 4 2 1 1 289 474 309 345
703 4 2 1 1 276 407 397 432
704 4 2 1 1 304 62 306 348
705 4 2 1 1 147 344 467 282
706 4 2 1 1 271 327 414 468
707 4 2 1 1 275 413 361 419
708 4 2 1 1 187 338 303 393
709 4 2 1 1 268 352 426 457
710 4 2 1 1 489 385 405 417
711 4 2 1 1 86 285 83 360
712 4 2 1 1 269 360 359 375
713 4 2 1 1 397 407 309 432
714 4 2 1 1 270 387 324 463
715 4 2 1 1 272 302 323 344
716 4 2 1 1 215 216 356 452
717 4 2 1 1 160 328 162 439
718 4 2 1 1 333 391 286 407
719 4 2 1 1 275 359 357 419
720 4 2 1 1 267 368 430 474
721 4 2 1 1 142 291 337 139
722 4 2 1 1 495 478 168 43
723 4 2 1 1 134 310 394 417
724 4 2 1 1 286 377 325 472
725 4 2 1 1 377 429 326 448
726 4 2 1 1 272 381 371 382
727 4 2 1 1 342 371 299 399
728 4 2 1 1 111 411 378 465
729 4 2 1 1 333 295 366 431
730 4 2 1 1 364 351 447 279
731 4 2 1 1 324 428 343 463
732 4 2 1 1 275 357 372 419
733 4 2 1 1 269 349 375 451
734 4 2 1 1 292 426 412 457
735 4 2 1 1 376 456 320 434
736 4 2 1 1 286 366 333 407
737 4 2 1 1 277 304 348 416
738 4 2 1 1 146 344 282 425
739 4 2 1 1 143 395 504 425
740 4 2 1 1 499 511 174 52
741 4 2 1 1 493 337 392 402
742 4 2 1 1 113 121 118 406
743 4 2 1 1 156 161 164 384
744 4 2 1 1 300 382 371 426
745 4 2 1 1 371 382 299 426
746 4 2 1 1 346 347 283 375
747 4 2 1 1 326 332 315 448
748 4 2 1 1 97 88 104 312
749 4 2 1 1 359 375 346 451
750 4 2 1 1 87 312 88 322
751 4 2 1 1 67 501 482 11
752 4 2 1 1 403 404 420 269
753 4 2 1 1 350 367 321 369
754 4 2 1 1 371 299 399 426
755 4 2 1 1 499 511 401 174
756 4 2 1 1 275 346 359 396
757 4 2 1 1 412 426 352 457
758 4 2 1 1 335 418 413 419
759 4 2 1 1 340 311 306 459
760 4 2 1 1 408 416 298 421
761 4 2 1 1 288 430 376 307
762 4 2 1 1 319 434 247 446
763 4 2 1 1 138 146 282 395
764 4 2 1 1 289 455 367 474
765 4 2 1 1 282 298 408 416
766 4 2 1 1 303 418 335 419
767 4 2 1 1 267 367 368 474
768 4 2 1 1 373 436 301 441
769 4 2 1 1 225 319 247 446
770 4 2 1 1 95 360 394 86
771 4 2 1 1 282 291 348 470
772 4 2 1 1 376 456 434 297
773 4 2 1 1 227 262 391 471
774 4 2 1 1 315 435 259 449
775 4 2 1 1 249 320 454 370
776 4 2 1 1 282 395 146 425
777 4 2 1 1 219 236 237 363
778 4 2 1 1 333 366 363 431
779 4 2 1 1 65 497 9 77
780 4 2 1 1 304 273 341 444
781 4 2 1 1 136 153 140 401
782 4 2 1 1 270 311 342 422
783 4 2 1 1 104 278 82 97
784 4 2 1 1 272 365 344 383
785 4 2 1 1 418 232 335 476
786 4 2 1 1 171 328 178 425
787 4 2 1 1 275 361 359 419
788 4 2 1 1 127 317 281 339
789 4 2 1 1 271 432 354 433
790 4 2 1 1 120 339 327 355
791 4 2 1 1 486 202 190 287
792 4 2 1 1 490 202 287 196
793 4 2 1 1 364 426 299 447
794 4 2 1 1 316 309 474 345
795 4 2 1 1 278 310 302 349
796 4 2 1 1 316 353 432 433
797 4 2 1 1 484 402 71 473
798 4 2 1 1 362 376 194 434
799 4 2 1 1 162 177 294 170
800 4 2 1 1 418 232 476 245
801 4 2 1 1 114 327 129 445
802 4 2 1 1 83 285 87 362
803 4 2 1 1 303 372 357 419
804 4 2 1 1 360 420 318 269
805 4 2 1 1 233 223 243 393
806 4 2 1 1 327 355 271 414
807 4 2 1 1 225 226 247 319
808 4 2 1 1 362 379 297 361
809 4 2 1 1 286 407 391 448
810 4 2 1 1 314 391 407 448
811 4 2 1 1 173 6 510 44
812 4 2 1 1 282 416 323 470
813 4 2 1 1 138 395 282 473
814 4 2 1 1 343 373 270 392
815 4 2 1 1 193 260 261 320
816 4 2 1 1 37 510 6 101
817 4 2 1 1 87 307 362 379
818 4 2 1 1 215 216 214 356
819 4 2 1 1 190 315 259 355
820 4 2 1 1 101 507 510 378
821 4 2 1 1 510 495 173 44
822 4 2 1 1 312 284 322 369
823 4 2 1 1 368 443 267 464
824 4 2 1 1 349 278 394 312
825 4 2 1 1 225 386 220 476
826 4 2 1 1 260 370 231 446
827 4 2 1 1 285 359 360 375
828 4 2 1 1 281 374 368 411
829 4 2 1 1 293 404 403 272
830 4 2 1 1 388 396 297 409
831 4 2 1 1 283 349 369 350
832 4 2 1 1 510 495 378 173
833 4 2 1 1 486 287 190 355
834 4 2 1 1 137 344 310 365
835 4 2 1 1 267 460 367 474
836 4 2 1 1 69 395 483 473
837 4 2 1 1 288 433 430 477
838 4 2 1 1 103 284 88 96
839 4 2 1 1 128 281 465 440
840 4 2 1 1 68 341 287 445
841 4 2 1 1 297 361 319 434
842 4 2 1 1 184 424 318 475
843 4 2 1 1 342 400 381 470
844 4 2 1 1 285 369 347 375
845 4 2 1 1 481 510 101 25
846 4 2 1 1 184 318 492 475
847 4 2 1 1 296 396 388 409
848 4 2 1 1 359 361 275 396
849 4 2 1 1 274 334 304 444
850 4 2 1 1 266 302 323 442
851 4 2 1 1 347 285 375 396
852 4 2 1 1 388 409 297 456
853 4 2 1 1 205 337 373 392
854 4 2 1 1 382 426 292 447
855 4 2 1 1 67 287 445 68
856 4 2 1 1 94 284 98 384
857 4 2 1 1 117 506 287 114
858 4 2 1 1 509 5 29 200
859 4 2 1 1 357 359 269 420
860 4 2 1 1 319 297 434 456
861 4 2 1 1 331 197 238 239
862 4 2 1 1 197 252 331 332
863 4 2 1 1 349 394 278 310
864 4 2 1 1 266 302 442 350
865 4 2 1 1 138 282 147 473
866 4 2 1 1 376 379 267 409
867 4 2 1 1 296 410 397 466
868 4 2 1 1 298 406 72 461
869 4 2 1 1 223 335 232 452
870 4 2 1 1 283 346 375 451
871 4 2 1 1 274 334 329 421
872 4 2 1 1 136 310 137 344
873 4 2 1 1 273 380 331 429
874 4 2 1 1 286 391 415 448
875 4 2 1 1 340 427 311 459
876 4 2 1 1 138 146 147 282
877 4 2 1 1 224 221 231 370
878 4 2 1 1 26 25 116 481
879 4 2 1 1 157 167 171 425
880 4 2 1 1 300 352 412 426
881 4 2 1 1 361 413 308 419
882 4 2 1 1 442 403 349 272
883 4 2 1 1 232 452 335 476
884 4 2 1 1 282 383 291 470
885 4 2 1 1 248 415 234 435
886 4 2 1 1 298 348 282 473
887 4 2 1 1 153 344 146 425
888 4 2 1 1 509 48 5 200
889 4 2 1 1 251 449 435 454
890 4 2 1 1 320 353 288 354
891 4 2 1 1 97 90 98 384
892 4 2 1 1 120 281 112 440
893 4 2 1 1 494 509 29 200
894 4 2 1 1 154 139 130 473
895 4 2 1 1 277 399 313 300
896 4 2 1 1 353 409 267 410
897 4 2 1 1 509 48 123 5
898 4 2 1 1 282 323 383 470
899 4 2 1 1 299 371 342 381
900 4 2 1 1 368 443 367 267
901 4 2 1 1 277 306 342 348
902 4 2 1 1 237 236 239 331
903 4 2 1 1 371 382 300 442
904 4 2 1 1 296 388 351 397
905 4 2 1 1 99 95 85 318
906 4 2 1 1 269 359 357 451
907 4 2 1 1 293 365 404 272
908 4 2 1 1 376 430 464 307
909 4 2 1 1 245 257 246 413
910 4 2 1 1 324 338 373 462
911 4 2 1 1 279 338 387 438
912 4 2 1 1 387 338 324 438
913 4 2 1 1 310 344 272 365
914 4 2 1 1 69 73 395 473
915 4 2 1 1 192 376 307 288
916 4 2 1 1 382 412 292 426
917 4 2 1 1 280 326 330 444
918 4 2 1 1 294 440 121 465
919 4 2 1 1 438 211 338 462
920 4 2 1 1 413 418 335 476
921 4 2 1 1 297 362 376 379
922 4 2 1 1 492 318 85 475
923 4 2 1 1 239 252 240 331
924 4 2 1 1 312 398 369 349
925 4 2 1 1 110 281 317 411
926 4 2 1 1 82 479 498 394
927 4 2 1 1 230 393 215 438
928 4 2 1 1 283 367 347 469
929 4 2 1 1 325 268 453 472
930 4 2 1 1 266 398 350 455
931 4 2 1 1 268 366 364 453
932 4 2 1 1 160 384 159 401
933 4 2 1 1 298 334 274 421
934 4 2 1 1 494 509 200 307
935 4 2 1 1 82 479 394 95
936 4 2 1 1 343 428 427 463
937 4 2 1 1 285 322 379 443
938 4 2 1 1 478 169 508 294
939 4 2 1 1 284 369 312 398
940 4 2 1 1 490 506 76 287
941 4 2 1 1 283 350 367 469
942 4 2 1 1 335 295 452 279
943 4 2 1 1 442 403 272 382
944 4 2 1 1 478 169 42 508
945 4 2 1 1 292 403 357 451
946 4 2 1 1 58 484 473 500
947 4 2 1 1 120 129 117 327
948 4 2 1 1 23 22 155 485
949 4 2 1 1 439 398 374 284
950 4 2 1 1 293 403 358 272
951 4 2 1 1 267 376 353 430
952 4 2 1 1 489 385 417 318
953 4 2 1 1 28 27 109 491
954 4 2 1 1 266 416 408 421
955 4 2 1 1 305 380 325 453
956 4 2 1 1 285 396 347 379
957 4 2 1 1 290 364 366 453
958 4 2 1 1 492 99 85 318
959 4 2 1 1 73 64 298 348
960 4 2 1 1 397 410 309 466
961 4 2 1 1 238 228 234 391
962 4 2 1 1 270 392 373 400
963 4 2 1 1 128 281 440 112
964 4 2 1 1 27 109 491 458
965 4 2 1 1 491 509 100 307
966 4 2 1 1 142 436 337 441
967 4 2 1 1 409 456 376 297
968 4 2 1 1 109 307 491 458
969 4 2 1 1 254 362 434 361
970 4 2 1 1 266 398 374 408
971 4 2 1 1 270 381 342 400
972 4 2 1 1 140 425 133 51
973 4 2 1 1 278 302 398 349
974 4 2 1 1 58 69 483 473
975 4 2 1 1 354 432 353 433
976 4 2 1 1 273 304 341 306
977 4 2 1 1 115 478 43 108
978 4 2 1 1 275 351 388 295
979 4 2 1 1 310 404 394 417
980 4 2 1 1 266 390 350 300
981 4 2 1 1 155 423 485 461
982 4 2 1 1 309 377 407 472
983 4 2 1 1 221 386 225 446
984 4 2 1 1 508 497 406 461
985 4 2 1 1 471 228 227 222
986 4 2 1 1 326 327 287 444
987 4 2 1 1 327 329 444 468
988 4 2 1 1 142 291 139 154
989 4 2 1 1 289 466 460 469
990 4 2 1 1 185 308 418 424
991 4 2 1 1 64 79 72 298
992 4 2 1 1 311 342 305 450
993 4 2 1 1 508 42 41 169
994 4 2 1 1 290 366 380 453
995 4 2 1 1 491 123 307 109
996 4 2 1 1 412 457 352 469
997 4 2 1 1 314 229 370 471
998 4 2 1 1 194 376 207 434
999 4 2 1 1 371 300 277 470
1000 4 2 1 1 66 395 73 423
1001 4 2 1 1 326 429 332 448
1002 4 2 1 1 308 359 419 420
1003 4 2 1 1 346 469 412 283
1004 4 2 1 1 355 487 477 336
1005 4 2 1 1 267 410 409 460
1006 4 2 1 1 471 228 222 333
1007 4 2 1 1 359 375 285 396
1008 4 2 1 1 103 284 96 458
1009 4 2 1 1 120 127 281 339
1010 4 2 1 1 306 488 59 341
1011 4 2 1 1 152 441 365 405
1012 4 2 1 1 301 400 373 441
1013 4 2 1 1 333 386 295 431
1014 4 2 1 1 165 171 395 423
1015 4 2 1 1 491 509 28 100
1016 4 2 1 1 207 261 195 434
1017 4 2 1 1 216 235 219 431
1018 4 2 1 1 147 344 282 146
1019 4 2 1 1 74 73 298 423
1020 4 2 1 1 310 404 365 272
1021 4 2 1 1 299 426 382 447
1022 4 2 1 1 153 137 146 344
1023 4 2 1 1 171 172 162 328
1024 4 2 1 1 274 406 298 421
1025 4 2 1 1 315 326 287 332
1026 4 2 1 1 483 130 473 138
1027 4 2 1 1 313 390 334 300
1028 4 2 1 1 267 367 347 443
1029 4 2 1 1 147 344 146 137
1030 4 2 1 1 366 407 286 472
1031 4 2 1 1 188 15 16 493
1032 4 2 1 1 293 358 301 272
1033 4 2 1 1 187 303 243 393
1034 4 2 1 1 21 176 163 461
1035 4 2 1 1 254 413 246 257
1036 4 2 1 1 229 224 370 471
1037 4 2 1 1 131 134 135 310
1038 4 2 1 1 82 479 95 35
1039 4 2 1 1 269 375 359 451
1040 4 2 1 1 82 479 35 498
1041 4 2 1 1 482 76 12 506
1042 4 2 1 1 244 418 303 424
1043 4 2 1 1 283 375 349 451
1044 4 2 1 1 305 422 380 453
1045 4 2 1 1 100 91 491 307
1046 4 2 1 1 290 380 422 453
1047 4 2 1 1 272 371 323 442
1048 4 2 1 1 397 407 366 472
1049 4 2 1 1 329 374 281 440
1050 4 2 1 1 214 216 219 428
1051 4 2 1 1 120 122 129 440
1052 4 2 1 1 288 354 336 454
1053 4 2 1 1 293 385 358 420
1054 4 2 1 1 237 428 241 219
1055 4 2 1 1 417 148 489 318
1056 4 2 1 1 269 318 404 420
1057 4 2 1 1 132 436 142 441
1058 4 2 1 1 240 427 340 459
1059 4 2 1 1 160 161 384 439
1060 4 2 1 1 219 235 236 363
1061 4 2 1 1 266 408 374 421
1062 4 2 1 1 185 413 257 245
1063 4 2 1 1 209 193 288 454
1064 4 2 1 1 508 497 41 125
1065 4 2 1 1 407 377 286 472
1066 4 2 1 1 493 392 437 402
1067 4 2 1 1 407 286 377 448
1068 4 2 1 1 294 374 328 421
1069 4 2 1 1 283 347 367 369
1070 4 2 1 1 155 23 485 165
1071 4 2 1 1 140 153 133 425
1072 4 2 1 1 165 485 155 423
1073 4 2 1 1 284 384 378 439
1074 4 2 1 1 87 322 307 379
1075 4 2 1 1 86 88 87 312
1076 4 2 1 1 273 341 340 306
1077 4 2 1 1 369 349 398 350
1078 4 2 1 1 74 298 72 461
1079 4 2 1 1 115 478 108 465
1080 4 2 1 1 508 294 169 461
1081 4 2 1 1 289 389 345 309
1082 4 2 1 1 128 121 440 465
1083 4 2 1 1 273 311 450 306
1084 4 2 1 1 215 214 212 438
1085 4 2 1 1 415 435 315 448
1086 4 2 1 1 314 370 229 454
1087 4 2 1 1 349 269 403 451
1088 4 2 1 1 140 425 51 499
1089 4 2 1 1 194 494 307 362
1090 4 2 1 1 430 433 339 477
1091 4 2 1 1 384 164 38 507
1092 4 2 1 1 163 22 21 461
1093 4 2 1 1 271 316 432 433
1094 4 2 1 1 58 484 500 19
1095 4 2 1 1 507 164 38 37
1096 4 2 1 1 296 457 346 469
1097 4 2 1 1 335 452 295 476
1098 4 2 1 1 439 398 284 384
1099 4 2 1 1 272 344 323 383
1100 4 2 1 1 122 121 406 440
1101 4 2 1 1 498 93 480 34
1102 4 2 1 1 278 398 312 349
1103 4 2 1 1 494 200 194 307
1104 4 2 1 1 133 50 425 143
1105 4 2 1 1 221 224 222 471
1106 4 2 1 1 507 164 378 384
1107 4 2 1 1 160 162 161 439
1108 4 2 1 1 127 110 281 317
1109 4 2 1 1 253 340 332 341
1110 4 2 1 1 111 281 112 110
1111 4 2 1 1 364 387 299 422
1112 4 2 1 1 171 178 157 425
1113 4 2 1 1 236 235 228 363
1114 4 2 1 1 315 259 355 449
1115 4 2 1 1 117 506 114 126
1116 4 2 1 1 197 252 239 331
1117 4 2 1 1 155 485 22 461
1118 4 2 1 1 476 275 319 295
1119 4 2 1 1 146 395 143 425
1120 4 2 1 1 287 482 114 506
1121 4 2 1 1 220 232 452 217
1122 4 2 1 1 162 160 178 328
1123 4 2 1 1 498 93 34 82
1124 4 2 1 1 311 306 392 342
1125 4 2 1 1 358 385 303 420
1126 4 2 1 1 311 343 270 392
1127 4 2 1 1 191 315 248 435
1128 4 2 1 1 304 62 348 64
1129 4 2 1 1 314 448 271 449
1130 4 2 1 1 298 282 348 416
1131 4 2 1 1 81 26 481 89
1132 4 2 1 1 285 359 396 361
1133 4 2 1 1 67 501 11 57
1134 4 2 1 1 481 458 26 81
1135 4 2 1 1 354 433 336 449
1136 4 2 1 1 266 329 374 455
1137 4 2 1 1 153 136 137 344
1138 4 2 1 1 79 64 63 304
1139 4 2 1 1 356 431 295 452
1140 4 2 1 1 88 98 96 284
1141 4 2 1 1 135 137 310 365
1142 4 2 1 1 287 327 326 414
1143 4 2 1 1 39 384 156 38
1144 4 2 1 1 59 341 63 306
1145 4 2 1 1 98 84 94 384
1146 4 2 1 1 266 323 408 416
1147 4 2 1 1 242 247 434 446
1148 4 2 1 1 357 403 269 451
1149 4 2 1 1 138 147 130 473
1150 4 2 1 1 303 358 338 385
1151 4 2 1 1 289 460 367 469
1152 4 2 1 1 366 453 268 472
1153 4 2 1 1 296 347 409 460
1154 4 2 1 1 194 362 307 376
1155 4 2 1 1 289 352 466 469
1156 4 2 1 1 493 337 402 505
1157 4 2 1 1 209 288 336 454
1158 4 2 1 1 495 378 168 465
1159 4 2 1 1 342 381 371 470
1160 4 2 1 1 128 281 112 111
1161 4 2 1 1 156 159 384 39
1162 4 2 1 1 482 506 12 114
1163 4 2 1 1 303 338 187 385
1164 4 2 1 1 271 377 414 448
1165 4 2 1 1 162 178 171 328
1166 4 2 1 1 464 321 443 322
1167 4 2 1 1 154 467 291 473
1168 4 2 1 1 306 488 341 340
1169 4 2 1 1 267 410 460 474
1170 4 2 1 1 266 334 329 390
1171 4 2 1 1 347 460 296 469
1172 4 2 1 1 396 379 285 361
1173 4 2 1 1 223 233 232 335
1174 4 2 1 1 135 310 134 417
1175 4 2 1 1 74 423 298 461
1176 4 2 1 1 328 374 294 439
1177 4 2 1 1 321 350 398 455
1178 4 2 1 1 374 411 281 465
1179 4 2 1 1 115 108 128 465
1180 4 2 1 1 279 364 387 447
1181 4 2 1 1 299 387 364 447
1182 4 2 1 1 332 415 315 448
1183 4 2 1 1 492 201 318 184
1184 4 2 1 1 287 482 506 76
1185 4 2 1 1 109 317 119 307
1186 4 2 1 1 506 126 12 114
1187 4 2 1 1 304 298 348 416
1188 4 2 1 1 303 418 419 424
1189 4 2 1 1 124 495 378 510
1190 4 2 1 1 374 398 328 408
1191 4 2 1 1 491 307 91 458
1192 4 2 1 1 354 449 336 454
1193 4 2 1 1 374 281 440 465
1194 4 2 1 1 285 347 369 443
1195 4 2 1 1 354 370 314 454
1196 4 2 1 1 221 225 231 446
1197 4 2 1 1 317 464 430 307
1198 4 2 1 1 291 348 402 473
1199 4 2 1 1 69 483 18 58
1200 4 2 1 1 506 117 45 126
1201 4 2 1 1 257 308 182 361
1202 4 2 1 1 194 307 207 376
1203 4 2 1 1 253 332 196 341
1204 4 2 1 1 58 484 19 71
1205 4 2 1 1 350 369 321 398
1206 4 2 1 1 3 16 505 204
1207 4 2 1 1 274 406 421 440
1208 4 2 1 1 302 278 398 408
1209 4 2 1 1 385 404 318 420
1210 4 2 1 1 269 360 312 394
1211 4 2 1 1 314 435 391 448
1212 4 2 1 1 384 507 38 94
1213 4 2 1 1 281 339 317 368
1214 4 2 1 1 53 505 3 151
1215 4 2 1 1 57 10 65 406
1216 4 2 1 1 233 243 244 418
1217 4 2 1 1 54 405 181 436
1218 4 2 1 1 67 501 57 445
1219 4 2 1 1 245 418 413 476
1220 4 2 1 1 190 202 203 287
1221 4 2 1 1 252 240 331 340
1222 4 2 1 1 260 249 231 370
1223 4 2 1 1 505 493 204 16
1224 4 2 1 1 289 345 389 390
1225 4 2 1 1 289 350 367 455
1226 4 2 1 1 316 432 410 309
1227 4 2 1 1 301 338 293 405
1228 4 2 1 1 268 397 366 472
1229 4 2 1 1 300 412 382 426
1230 4 2 1 1 483 130 138 18
1231 4 2 1 1 507 173 378 164
1232 4 2 1 1 284 321 369 398
1233 4 2 1 1 112 128 121 440
1234 4 2 1 1 230 223 215 393
1235 4 2 1 1 336 355 259 449
1236 4 2 1 1 493 337 505 204
1237 4 2 1 1 90 384 39 84
1238 4 2 1 1 108 42 118 478
1239 4 2 1 1 211 436 338 462
1240 4 2 1 1 301 436 405 441
1241 4 2 1 1 124 495 510 44
1242 4 2 1 1 212 214 213 324
1243 4 2 1 1 55 181 54 405
1244 4 2 1 1 142 291 154 441
1245 4 2 1 1 213 263 256 343
1246 4 2 1 1 289 460 466 474
1247 4 2 1 1 266 390 329 455
1248 4 2 1 1 147 282 467 473
1249 4 2 1 1 381 400 383 470
1250 4 2 1 1 343 427 311 463
1251 4 2 1 1 267 347 409 379
1252 4 2 1 1 160 156 159 384
1253 4 2 1 1 218 220 221 386
1254 4 2 1 1 58 484 71 473
1255 4 2 1 1 302 310 278 344
1256 4 2 1 1 251 336 449 454
1257 4 2 1 1 495 173 168 378
1258 4 2 1 1 245 413 226 476
1259 4 2 1 1 122 120 112 440
1260 4 2 1 1 225 220 226 476
1261 4 2 1 1 271 327 339 355
1262 4 2 1 1 205 493 188 204
1263 4 2 1 1 267 376 430 464
1264 4 2 1 1 410 466 460 474
1265 4 2 1 1 321 322 284 369
1266 4 2 1 1 303 385 187 424
1267 4 2 1 1 137 136 135 310
1268 4 2 1 1 270 422 387 463
1269 4 2 1 1 270 311 392 342
1270 4 2 1 1 38 84 384 94
1271 4 2 1 1 137 344 365 467
1272 4 2 1 1 319 295 386 476
1273 4 2 1 1 251 259 435 449
1274 4 2 1 1 425 167 504 50
1275 4 2 1 1 282 408 323 416
1276 4 2 1 1 357 303 419 420
1277 4 2 1 1 13 14 196 490
1278 4 2 1 1 438 211 462 212
1279 4 2 1 1 229 251 435 454
1280 4 2 1 1 358 381 301 272
1281 4 2 1 1 113 122 121 406
1282 4 2 1 1 439 164 168 161
1283 4 2 1 1 283 347 369 375
1284 4 2 1 1 258 187 338 385
1285 4 2 1 1 202 196 203 287
1286 4 2 1 1 384 164 156 38
1287 4 2 1 1 327 281 329 345
1288 4 2 1 1 326 414 377 448
1289 4 2 1 1 368 430 317 464
1290 4 2 1 1 256 199 213 462
1291 4 2 1 1 254 413 257 361
1292 4 2 1 1 166 160 159 401
1293 4 2 1 1 412 442 349 350
1294 4 2 1 1 80 402 348 473
1295 4 2 1 1 308 419 418 424
1296 4 2 1 1 115 111 378 465
1297 4 2 1 1 418 232 245 233
1298 4 2 1 1 306 348 62 402
1299 4 2 1 1 234 391 262 435
1300 4 2 1 1 295 356 452 279
1301 4 2 1 1 378 411 284 465
1302 4 2 1 1 115 111 116 378
1303 4 2 1 1 243 187 244 303
1304 4 2 1 1 374 408 328 421
1305 4 2 1 1 147 154 130 473
1306 4 2 1 1 478 169 158 42
1307 4 2 1 1 190 259 46 355
1308 4 2 1 1 504 50 167 49
1309 4 2 1 1 212 438 324 462
1310 4 2 1 1 328 282 408 425
1311 4 2 1 1 289 390 350 455
1312 4 2 1 1 287 315 355 414
1313 4 2 1 1 147 467 154 473
1314 4 2 1 1 485 60 22 461
1315 4 2 1 1 176 169 163 461
1316 4 2 1 1 152 441 405 132
1317 4 2 1 1 273 340 311 306
1318 4 2 1 1 381 272 383 441
1319 4 2 1 1 229 262 227 471
1320 4 2 1 1 486 46 117 355
1321 4 2 1 1 266 350 390 455
1322 4 2 1 1 271 448 414 449
1323 4 2 1 1 285 379 362 361
1324 4 2 1 1 217 223 232 452
1325 4 2 1 1 504 175 49 167
1326 4 2 1 1 312 360 86 394
1327 4 2 1 1 242 195 261 434
1328 4 2 1 1 418 232 233 335
1329 4 2 1 1 288 354 353 433
1330 4 2 1 1 497 70 65 461
1331 4 2 1 1 499 149 401 511
1332 4 2 1 1 66 485 503 423
1333 4 2 1 1 439 164 161 384
1334 4 2 1 1 10 9 406 113
1335 4 2 1 1 165 172 171 423
1336 4 2 1 1 111 281 110 411
1337 4 2 1 1 143 150 504 395
1338 4 2 1 1 270 392 400 342
1339 4 2 1 1 406 9 125 113
1340 4 2 1 1 163 155 22 461
1341 4 2 1 1 503 78 395 512
1342 4 2 1 1 342 371 277 470
1343 4 2 1 1 323 300 371 470
1344 4 2 1 1 102 480 511 401
1345 4 2 1 1 504 395 167 425
1346 4 2 1 1 198 373 337 436
1347 4 2 1 1 66 69 73 395
1348 4 2 1 1 23 24 503 165
1349 4 2 1 1 296 409 410 460
1350 4 2 1 1 245 246 226 413
1351 4 2 1 1 288 336 433 477
1352 4 2 1 1 229 224 249 370
1353 4 2 1 1 289 367 460 474
1354 4 2 1 1 327 339 281 345
1355 4 2 1 1 494 200 29 194
1356 4 2 1 1 290 427 428 463
1357 4 2 1 1 14 196 490 341
1358 4 2 1 1 104 88 86 312
1359 4 2 1 1 272 382 371 442
1360 4 2 1 1 112 127 110 281
1361 4 2 1 1 481 510 378 101
1362 4 2 1 1 165 24 503 175
1363 4 2 1 1 353 316 430 433
1364 4 2 1 1 410 309 466 474
1365 4 2 1 1 293 404 365 417
1366 4 2 1 1 113 105 122 406
1367 4 2 1 1 62 59 63 306
1368 4 2 1 1 186 258 181 405
1369 4 2 1 1 355 477 487 107
1370 4 2 1 1 288 353 320 376
1371 4 2 1 1 84 98 90 384
1372 4 2 1 1 66 485 423 60
1373 4 2 1 1 496 174 159 401
1374 4 2 1 1 301 381 400 441
1375 4 2 1 1 221 220 225 386
1376 4 2 1 1 73 64 74 298
1377 4 2 1 1 135 136 131 310
1378 4 2 1 1 136 140 141 401
1379 4 2 1 1 209 193 265 288
1380 4 2 1 1 266 374 398 455
1381 4 2 1 1 308 359 361 419
1382 4 2 1 1 477 355 433 339
1383 4 2 1 1 489 405 144 417
1384 4 2 1 1 61 306 437 59
1385 4 2 1 1 288 336 354 433
1386 4 2 1 1 316 474 368 345
1387 4 2 1 1 499 149 511 52
1388 4 2 1 1 306 400 342 348
1389 4 2 1 1 194 30 494 362
1390 4 2 1 1 185 264 308 424
1391 4 2 1 1 66 485 60 23
1392 4 2 1 1 196 287 490 341
1393 4 2 1 1 483 78 512 395
1394 4 2 1 1 138 143 146 395
1395 4 2 1 1 367 369 347 443
1396 4 2 1 1 102 480 401 93
1397 4 2 1 1 464 321 322 411
1398 4 2 1 1 139 505 151 20
1399 4 2 1 1 165 171 167 395
1400 4 2 1 1 148 489 318 502
1401 4 2 1 1 306 400 392 342
1402 4 2 1 1 367 455 368 474
1403 4 2 1 1 437 306 392 459
1404 4 2 1 1 93 90 97 401
1405 4 2 1 1 337 436 373 441
1406 4 2 1 1 148 489 502 56
1407 4 2 1 1 79 304 63 445
1408 4 2 1 1 91 307 87 322
1409 4 2 1 1 300 382 412 442
1410 4 2 1 1 147 344 137 467
1411 4 2 1 1 102 496 90 401
1412 4 2 1 1 504 175 167 395
1413 4 2 1 1 477 433 355 336
1414 4 2 1 1 120 107 339 355
1415 4 2 1 1 280 326 444 468
1416 4 2 1 1 289 466 309 474
1417 4 2 1 1 497 70 461 21
1418 4 2 1 1 284 439 378 465
1419 4 2 1 1 338 436 373 462
1420 4 2 1 1 406 105 10 113
1421 4 2 1 1 287 326 315 414
1422 4 2 1 1 54 337 142 436
1423 4 2 1 1 332 429 415 448
1424 4 2 1 1 503 78 512 24
1425 4 2 1 1 267 379 376 464
1426 4 2 1 1 128 281 111 465
1427 4 2 1 1 487 259 355 46
1428 4 2 1 1 91 307 322 458
1429 4 2 1 1 503 165 395 423
1430 4 2 1 1 212 324 213 462
1431 4 2 1 1 347 285 379 443
1432 4 2 1 1 282 348 291 473
1433 4 2 1 1 229 370 249 454
1434 4 2 1 1 227 262 234 391
1435 4 2 1 1 482 12 11 114
1436 4 2 1 1 494 92 307 362
1437 4 2 1 1 66 485 23 503
1438 4 2 1 1 248 238 234 415
1439 4 2 1 1 46 487 107 355
1440 4 2 1 1 92 87 307 362
1441 4 2 1 1 104 312 86 394
1442 4 2 1 1 266 323 302 408
1443 4 2 1 1 278 302 344 408
1444 4 2 1 1 290 422 364 453
1445 4 2 1 1 483 78 395 69
1446 4 2 1 1 309 407 397 472
1447 4 2 1 1 205 256 343 373
1448 4 2 1 1 197 248 332 415
1449 4 2 1 1 271 414 377 468
1450 4 2 1 1 503 485 23 165
1451 4 2 1 1 289 466 389 309
1452 4 2 1 1 165 175 503 395
1453 4 2 1 1 209 336 288 477
1454 4 2 1 1 286 415 429 448
1455 4 2 1 1 503 485 165 423
1456 4 2 1 1 262 229 251 435
1457 4 2 1 1 186 181 55 405
1458 4 2 1 1 190 203 259 315
1459 4 2 1 1 192 376 288 265
1460 4 2 1 1 487 259 46 180
1461 4 2 1 1 416 348 277 470
1462 4 2 1 1 185 413 245 418
1463 4 2 1 1 507 101 94 378
1464 4 2 1 1 479 417 148 134
1465 4 2 1 1 460 466 296 469
1466 4 2 1 1 485 423 60 461
1467 4 2 1 1 66 503 395 423
1468 4 2 1 1 267 347 379 443
1469 4 2 1 1 61 306 59 62
1470 4 2 1 1 302 398 349 350
1471 4 2 1 1 347 267 409 460
1472 4 2 1 1 323 266 300 416
1473 4 2 1 1 317 411 368 464
1474 4 2 1 1 266 334 416 421
1475 4 2 1 1 59 488 14 341
1476 4 2 1 1 338 385 293 405
1477 4 2 1 1 334 300 266 416
1478 4 2 1 1 481 458 81 378
1479 4 2 1 1 489 55 186 56
1480 4 2 1 1 192 376 265 207
1481 4 2 1 1 263 213 241 428
1482 4 2 1 1 406 501 57 10
1483 4 2 1 1 274 444 327 329
1484 4 2 1 1 60 423 74 461
1485 4 2 1 1 14 253 196 341
1486 4 2 1 1 284 374 439 465
1487 4 2 1 1 493 61 402 437
1488 4 2 1 1 251 336 259 449
1489 4 2 1 1 80 62 348 402
1490 4 2 1 1 287 341 444 445
1491 4 2 1 1 67 287 68 76
1492 4 2 1 1 120 127 112 281
1493 4 2 1 1 181 405 338 436
1494 4 2 1 1 323 344 282 383
1495 4 2 1 1 321 398 374 455
1496 4 2 1 1 280 389 345 390
1497 4 2 1 1 266 398 302 350
1498 4 2 1 1 186 489 56 201
1499 4 2 1 1 110 106 411 458
1500 4 2 1 1 274 421 329 440
1501 4 2 1 1 327 345 329 468
1502 4 2 1 1 340 306 437 459
1503 4 2 1 1 495 173 44 168
1504 4 2 1 1 201 56 7 502
1505 4 2 1 1 244 303 187 424
1506 4 2 1 1 272 371 381 383
1507 4 2 1 1 289 390 455 345
1508 4 2 1 1 489 55 144 405
1509 4 2 1 1 14 490 68 341
1510 4 2 1 1 203 248 315 332
1511 4 2 1 1 383 400 381 441
1512 4 2 1 1 321 367 350 455
1513 4 2 1 1 179 294 170 172
1514 4 2 1 1 323 344 302 408
1515 4 2 1 1 135 365 310 417
1516 4 2 1 1 57 72 79 406
1517 4 2 1 1 484 75 71 402
1518 4 2 1 1 326 315 414 448
1519 4 2 1 1 281 368 317 411
1520 4 2 1 1 94 89 96 378
1521 4 2 1 1 343 392 311 459
1522 4 2 1 1 110 106 111 411
1523 4 2 1 1 287 355 327 414
1524 4 2 1 1 301 293 365 405
1525 4 2 1 1 271 414 355 449
1526 4 2 1 1 296 460 410 466
1527 4 2 1 1 476 275 295 335
1528 4 2 1 1 484 19 20 139
1529 4 2 1 1 135 152 137 365
1530 4 2 1 1 215 217 216 452
1531 4 2 1 1 272 323 371 383
1532 4 2 1 1 367 460 347 469
1533 4 2 1 1 154 441 291 467
1534 4 2 1 1 317 477 119 307
1535 4 2 1 1 338 358 293 385
1536 4 2 1 1 55 54 132 405
1537 4 2 1 1 133 146 143 425
1538 4 2 1 1 492 502 99 318
1539 4 2 1 1 259 315 191 435
1540 4 2 1 1 324 438 338 462
1541 4 2 1 1 168 161 177 439
1542 4 2 1 1 414 448 315 449
1543 4 2 1 1 301 365 293 272
1544 4 2 1 1 417 148 134 144
1545 4 2 1 1 266 334 390 300
1546 4 2 1 1 254 257 182 361
1547 4 2 1 1 266 329 334 421
1548 4 2 1 1 206 385 318 424
1549 4 2 1 1 311 427 343 459
1550 4 2 1 1 484 505 75 402
1551 4 2 1 1 46 107 117 355
1552 4 2 1 1 322 458 307 464
1553 4 2 1 1 124 495 44 115
1554 4 2 1 1 503 78 24 66
1555 4 2 1 1 494 100 509 307
1556 4 2 1 1 494 100 307 92
1557 4 2 1 1 502 489 201 56
1558 4 2 1 1 55 132 144 405
1559 4 2 1 1 301 373 338 436
1560 4 2 1 1 301 365 272 441
1561 4 2 1 1 86 285 360 312
1562 4 2 1 1 280 345 329 390
1563 4 2 1 1 142 132 54 436
1564 4 2 1 1 291 383 282 467
1565 4 2 1 1 504 143 49 150
1566 4 2 1 1 195 194 207 434
1567 4 2 1 1 192 288 307 477
1568 4 2 1 1 489 385 186 405
1569 4 2 1 1 225 247 242 446
1570 4 2 1 1 291 467 282 473
1571 4 2 1 1 74 66 73 423
1572 4 2 1 1 342 348 400 470
1573 4 2 1 1 205 188 392 459
1574 4 2 1 1 499 149 52 140
1575 4 2 1 1 186 55 489 405
1576 4 2 1 1 502 489 318 201
1577 4 2 1 1 347 396 409 379
1578 4 2 1 1 306 402 400 348
1579 4 2 1 1 329 421 374 440
1580 4 2 1 1 359 360 308 361
1581 4 2 1 1 237 428 219 363
1582 4 2 1 1 294 421 406 440
1583 4 2 1 1 102 480 93 33
1584 4 2 1 1 284 322 321 411
1585 4 2 1 1 160 161 156 384
1586 4 2 1 1 124 495 115 378
1587 4 2 1 1 301 272 381 441
1588 4 2 1 1 75 493 402 505
1589 4 2 1 1 230 215 212 438
1590 4 2 1 1 205 343 189 459
1591 4 2 1 1 344 383 365 467
1592 4 2 1 1 303 419 420 424
1593 4 2 1 1 116 124 115 378
1594 4 2 1 1 206 318 184 424
1595 4 2 1 1 132 142 145 441
1596 4 2 1 1 285 360 359 361
1597 4 2 1 1 349 403 269 404
1598 4 2 1 1 306 392 400 402
1599 4 2 1 1 280 329 345 468
1600 4 2 1 1 373 400 337 441
1601 4 2 1 1 74 64 72 298
1602 4 2 1 1 339 355 107 477
1603 4 2 1 1 115 128 111 465
1604 4 2 1 1 210 198 54 436
1605 4 2 1 1 484 505 20 75
1606 4 2 1 1 182 361 308 475
1607 4 2 1 1 337 373 392 400
1608 4 2 1 1 291 400 337 402
1609 4 2 1 1 302 349 442 350
1610 4 2 1 1 22 60 70 461
1611 4 2 1 1 80 71 402 473
1612 4 2 1 1 32 502 7 99
1613 4 2 1 1 307 376 362 379
1614 4 2 1 1 344 408 282 425
1615 4 2 1 1 188 437 392 459
1616 4 2 1 1 342 277 348 470
1617 4 2 1 1 503 78 66 395
1618 4 2 1 1 300 442 412 350
1619 4 2 1 1 383 272 365 441
1620 4 2 1 1 110 411 317 458
1621 4 2 1 1 25 481 89 101
1622 4 2 1 1 499 149 140 401
1623 4 2 1 1 58 73 69 473
1624 4 2 1 1 132 405 54 436
1625 4 2 1 1 293 405 385 417
1626 4 2 1 1 168 173 164 378
1627 4 2 1 1 406 105 501 10
1628 4 2 1 1 266 374 329 421
1629 4 2 1 1 381 383 371 470
1630 4 2 1 1 102 480 33 511
1631 4 2 1 1 317 430 339 477
1632 4 2 1 1 73 80 348 473
1633 4 2 1 1 365 404 310 417
1634 4 2 1 1 21 22 70 461
1635 4 2 1 1 91 322 103 458
1636 4 2 1 1 234 228 227 391
1637 4 2 1 1 87 88 103 322
1638 4 2 1 1 250 336 251 454
1639 4 2 1 1 306 392 402 437
1640 4 2 1 1 284 321 374 411
1641 4 2 1 1 70 74 72 461
1642 4 2 1 1 266 302 398 408
1643 4 2 1 1 139 142 151 337
1644 4 2 1 1 142 154 145 441
1645 4 2 1 1 249 224 231 370
1646 4 2 1 1 484 130 19 139
1647 4 2 1 1 304 62 64 63
1648 4 2 1 1 75 493 505 16
1649 4 2 1 1 205 337 198 373
1650 4 2 1 1 445 406 105 501
1651 4 2 1 1 360 362 83 475
1652 4 2 1 1 223 230 243 393
1653 4 2 1 1 501 11 10 105
1654 4 2 1 1 481 124 25 116
1655 4 2 1 1 304 444 341 445
1656 4 2 1 1 315 355 414 449
1657 4 2 1 1 60 74 70 461
1658 4 2 1 1 507 173 164 37
1659 4 2 1 1 122 112 121 440
1660 4 2 1 1 211 181 258 338
1661 4 2 1 1 123 109 119 307
1662 4 2 1 1 103 91 87 322
1663 4 2 1 1 314 435 448 449
1664 4 2 1 1 263 189 343 427
1665 4 2 1 1 288 353 430 433
1666 4 2 1 1 91 92 87 307
1667 4 2 1 1 308 420 419 424
1668 4 2 1 1 301 338 405 436
1669 4 2 1 1 91 491 28 100
1670 4 2 1 1 206 489 201 318
1671 4 2 1 1 321 369 367 443
1672 4 2 1 1 400 402 291 348
1673 4 2 1 1 491 123 109 28
1674 4 2 1 1 65 72 57 406
1675 4 2 1 1 301 405 365 441
1676 4 2 1 1 501 114 482 11
1677 4 2 1 1 161 162 177 439
1678 4 2 1 1 73 80 64 348
1679 4 2 1 1 152 365 135 417
1680 4 2 1 1 501 114 11 105
1681 4 2 1 1 206 187 385 424
1682 4 2 1 1 479 36 99 95
1683 4 2 1 1 479 502 318 99
1684 4 2 1 1 254 182 362 361
1685 4 2 1 1 283 375 369 349
1686 4 2 1 1 496 40 102 90
1687 4 2 1 1 130 139 484 473
1688 4 2 1 1 277 300 334 416
1689 4 2 1 1 476 275 335 413
1690 4 2 1 1 360 362 475 361
1691 4 2 1 1 148 489 56 144
1692 4 2 1 1 32 85 492 99
1693 4 2 1 1 209 336 250 454
1694 4 2 1 1 317 339 127 477
1695 4 2 1 1 179 163 169 461
1696 4 2 1 1 417 148 144 489
1697 4 2 1 1 293 365 405 417
1698 4 2 1 1 209 250 193 454
1699 4 2 1 1 373 436 210 462
1700 4 2 1 1 109 110 317 458
1701 4 2 1 1 353 376 288 430
1702 4 2 1 1 119 477 48 307
1703 4 2 1 1 497 70 21 77
1704 4 2 1 1 27 26 106 458
1705 4 2 1 1 297 409 396 379
1706 4 2 1 1 79 67 57 445
1707 4 2 1 1 483 78 69 17
1708 4 2 1 1 298 416 334 421
1709 4 2 1 1 139 402 484 473
1710 4 2 1 1 14 68 59 341
1711 4 2 1 1 142 53 151 337
1712 4 2 1 1 216 218 235 431
1713 4 2 1 1 362 31 30 83
1714 4 2 1 1 337 400 392 402
1715 4 2 1 1 282 383 344 467
1716 4 2 1 1 487 209 477 336
1717 4 2 1 1 483 78 17 512
1718 4 2 1 1 321 368 367 455
1719 4 2 1 1 94 101 89 378
1720 4 2 1 1 258 186 187 385
1721 4 2 1 1 374 284 411 465
1722 4 2 1 1 294 374 440 465
1723 4 2 1 1 109 110 119 317
1724 4 2 1 1 323 282 344 408
1725 4 2 1 1 203 248 191 315
1726 4 2 1 1 120 117 107 355
1727 4 2 1 1 217 215 223 452
1728 4 2 1 1 362 361 182 475
1729 4 2 1 1 304 341 63 445
1730 4 2 1 1 174 166 159 401
1731 4 2 1 1 315 448 435 449
1732 4 2 1 1 337 400 291 441
1733 4 2 1 1 119 317 127 477
1734 4 2 1 1 78 69 66 395
1735 4 2 1 1 172 165 155 423
1736 4 2 1 1 102 90 93 401
1737 4 2 1 1 211 181 338 436
1738 4 2 1 1 497 70 77 65
1739 4 2 1 1 116 106 26 458
1740 4 2 1 1 411 458 322 464
1741 4 2 1 1 483 130 500 473
1742 4 2 1 1 141 140 149 401
1743 4 2 1 1 138 18 17 483
1744 4 2 1 1 326 377 414 468
1745 4 2 1 1 337 204 198 53
1746 4 2 1 1 488 59 15 437
1747 4 2 1 1 47 48 119 477
1748 4 2 1 1 483 130 18 500
1749 4 2 1 1 68 63 341 445
1750 4 2 1 1 307 379 322 464
1751 4 2 1 1 413 247 254 246
1752 4 2 1 1 67 76 12 482
1753 4 2 1 1 253 252 332 340
1754 4 2 1 1 167 175 165 395
1755 4 2 1 1 107 487 47 477
1756 4 2 1 1 143 138 150 395
1757 4 2 1 1 500 18 19 130
1758 4 2 1 1 47 209 192 477
1759 4 2 1 1 500 484 130 19
1760 4 2 1 1 92 83 87 362
1761 4 2 1 1 27 491 91 458
1762 4 2 1 1 83 85 360 475
1763 4 2 1 1 274 444 304 445
1764 4 2 1 1 30 83 92 362
1765 4 2 1 1 500 484 473 130
1766 4 2 1 1 27 81 26 458
1767 4 2 1 1 362 31 83 475
1768 4 2 1 1 507 94 101 37
1769 4 2 1 1 20 71 484 75
1770 4 2 1 1 194 254 362 434
1771 4 2 1 1 383 400 291 470
1772 4 2 1 1 139 505 20 484
1773 4 2 1 1 208 182 257 308
1774 4 2 1 1 61 306 62 402
1775 4 2 1 1 154 145 441 467
1776 4 2 1 1 199 373 210 462
1777 4 2 1 1 52 499 51 166
1778 4 2 1 1 107 127 120 339
1779 4 2 1 1 492 201 184 32
1780 4 2 1 1 244 185 418 424
1781 4 2 1 1 52 140 51 499
1782 4 2 1 1 224 229 227 471
1783 4 2 1 1 495 115 43 44
1784 4 2 1 1 75 493 16 61
1785 4 2 1 1 410 316 309 474
1786 4 2 1 1 23 24 66 503
1787 4 2 1 1 487 209 336 180
1788 4 2 1 1 54 181 210 436
1789 4 2 1 1 191 248 234 435
1790 4 2 1 1 294 439 374 465
1791 4 2 1 1 222 224 227 471
1792 4 2 1 1 144 405 152 417
1793 4 2 1 1 492 85 31 475
1794 4 2 1 1 100 92 91 307
1795 4 2 1 1 68 490 13 76
1796 4 2 1 1 75 493 61 402
1797 4 2 1 1 28 27 491 91
1798 4 2 1 1 14 15 488 59
1799 4 2 1 1 163 179 155 461
1800 4 2 1 1 264 206 184 424
1801 4 2 1 1 263 241 189 427
1802 4 2 1 1 145 365 441 467
1803 4 2 1 1 80 71 62 402
1804 4 2 1 1 499 52 174 166
1805 4 2 1 1 95 479 36 35
1806 4 2 1 1 210 373 198 436
1807 4 2 1 1 438 211 212 230
1808 4 2 1 1 496 40 90 39
1809 4 2 1 1 231 242 260 446
1810 4 2 1 1 138 17 150 483
1811 4 2 1 1 34 35 498 82
1812 4 2 1 1 10 9 65 406
1813 4 2 1 1 197 238 248 415
1814 4 2 1 1 303 420 385 424
1815 4 2 1 1 317 458 411 464
1816 4 2 1 1 27 106 109 458
1817 4 2 1 1 58 71 80 473
1818 4 2 1 1 145 365 467 137
1819 4 2 1 1 204 198 205 337
1820 4 2 1 1 284 374 321 398
1821 4 2 1 1 26 25 481 89
1822 4 2 1 1 174 499 166 401
1823 4 2 1 1 152 405 365 417
1824 4 2 1 1 494 100 92 29
1825 4 2 1 1 118 42 41 508
1826 4 2 1 1 123 119 48 307
1827 4 2 1 1 383 441 365 467
1828 4 2 1 1 191 259 203 315
1829 4 2 1 1 374 421 294 440
1830 4 2 1 1 143 50 504 49
1831 4 2 1 1 494 30 92 362
1832 4 2 1 1 27 91 81 458
1833 4 2 1 1 153 146 133 425
1834 4 2 1 1 253 203 196 332
1835 4 2 1 1 494 100 29 509
1836 4 2 1 1 31 32 85 492
1837 4 2 1 1 53 142 54 337
1838 4 2 1 1 206 489 318 385
1839 4 2 1 1 501 114 105 445
1840 4 2 1 1 192 288 477 209
1841 4 2 1 1 194 195 254 434
1842 4 2 1 1 499 425 51 166
1843 4 2 1 1 207 194 200 307
1844 4 2 1 1 483 18 17 69
1845 4 2 1 1 499 166 401 425
1846 4 2 1 1 127 119 110 317
1847 4 2 1 1 226 220 232 476
1848 4 2 1 1 490 202 196 13
1849 4 2 1 1 66 74 60 423
1850 4 2 1 1 205 199 256 373
1851 4 2 1 1 255 340 437 459
1852 4 2 1 1 211 210 436 462
1853 4 2 1 1 219 241 214 428
1854 4 2 1 1 214 241 213 428
1855 4 2 1 1 425 50 133 51
1856 4 2 1 1 93 34 33 480
1857 4 2 1 1 15 61 493 437
1858 4 2 1 1 85 86 83 360
1859 4 2 1 1 68 67 63 445
1860 4 2 1 1 138 483 150 395
1861 4 2 1 1 308 361 360 475
1862 4 2 1 1 187 243 230 393
1863 4 2 1 1 203 197 248 332
1864 4 2 1 1 369 375 312 349
1865 4 2 1 1 255 437 188 459
1866 4 2 1 1 144 132 152 405
1867 4 2 1 1 127 339 107 477
1868 4 2 1 1 67 12 11 482
1869 4 2 1 1 498 136 131 141
1870 4 2 1 1 34 35 131 498
1871 4 2 1 1 498 141 131 34
1872 4 2 1 1 498 479 35 131
1873 4 2 1 1 493 15 16 61
1874 4 2 1 1 267 443 379 464
1875 4 2 1 1 144 55 489 56
1876 4 2 1 1 506 13 76 1
1877 4 2 1 1 242 231 225 446
1878 4 2 1 1 400 348 291 470
1879 4 2 1 1 71 19 20 484
1880 4 2 1 1 195 242 247 434
1881 4 2 1 1 376 379 307 464
1882 4 2 1 1 255 340 459 240
1883 4 2 1 1 46 117 45 486
1884 4 2 1 1 291 400 383 441
1885 4 2 1 1 498 479 131 394
1886 4 2 1 1 258 187 211 338
1887 4 2 1 1 498 131 278 394
1888 4 2 1 1 498 136 141 401
1889 4 2 1 1 483 500 58 473
1890 4 2 1 1 323 371 383 470
1891 4 2 1 1 192 288 209 265
1892 4 2 1 1 57 11 10 501
1893 4 2 1 1 206 201 184 318
1894 4 2 1 1 58 18 19 500
1895 4 2 1 1 80 62 64 348
1896 4 2 1 1 189 343 427 459
1897 4 2 1 1 208 185 264 308
1898 4 2 1 1 108 42 478 43
1899 4 2 1 1 256 189 205 343
1900 4 2 1 1 91 103 81 458
1901 4 2 1 1 104 95 82 394
1902 4 2 1 1 232 245 226 476
1903 4 2 1 1 109 106 110 458
1904 4 2 1 1 59 61 15 437
1905 4 2 1 1 94 507 38 37
1906 4 2 1 1 487 46 107 47
1907 4 2 1 1 197 253 252 332
1908 4 2 1 1 234 262 191 435
1909 4 2 1 1 61 306 402 437
1910 4 2 1 1 92 29 30 494
1911 4 2 1 1 186 206 187 385
1912 4 2 1 1 509 48 200 307
1913 4 2 1 1 13 14 490 68
1914 4 2 1 1 83 31 85 475
1915 4 2 1 1 208 182 308 475
1916 4 2 1 1 39 84 384 38
1917 4 2 1 1 206 489 385 186
1918 4 2 1 1 145 365 152 441
1919 4 2 1 1 48 192 200 307
1920 4 2 1 1 30 194 182 362
1921 4 2 1 1 144 135 134 417
1922 4 2 1 1 107 47 119 477
1923 4 2 1 1 208 257 185 308
1924 4 2 1 1 32 502 99 492
1925 4 2 1 1 189 255 188 459
1926 4 2 1 1 379 443 322 464
1927 4 2 1 1 506 13 1 202
1928 4 2 1 1 483 500 18 58
1929 4 2 1 1 455 390 329 345
1930 4 2 1 1 49 512 4 175
1931 4 2 1 1 25 6 510 101
1932 4 2 1 1 8 33 511 102
1933 4 2 1 1 145 365 137 152
1934 4 2 1 1 67 79 63 445
1935 4 2 1 1 185 233 244 418
1936 4 2 1 1 240 189 427 459
1937 4 2 1 1 59 68 63 341
1938 4 2 1 1 497 9 2 125
1939 4 2 1 1 53 505 151 337
1940 4 2 1 1 291 441 383 467
1941 4 2 1 1 205 198 199 373
1942 4 2 1 1 251 180 259 336
1943 4 2 1 1 73 58 80 473
1944 4 2 1 1 21 2 497 77
1945 4 2 1 1 37 510 101 507
1946 4 2 1 1 189 256 263 343
1947 4 2 1 1 250 180 251 336
1948 4 2 1 1 251 229 250 454
1949 4 2 1 1 509 48 307 123
1950 4 2 1 1 241 237 189 427
1951 4 2 1 1 237 240 189 427
1952 4 2 1 1 95 104 86 394
1953 4 2 1 1 2 41 497 125
1954 4 2 1 1 3 16 75 505
1955 4 2 1 1 23 22 485 60
1956 4 2 1 1 510 6 124 44
1957 4 2 1 1 385 420 318 424
1958 4 2 1 1 45 506 1 202
1959 4 2 1 1 229 249 250 454
1960 4 2 1 1 100 5 29 509
1961 4 2 1 1 71 61 62 402
1962 4 2 1 1 506 12 1 76
1963 4 2 1 1 40 511 8 174
1964 4 2 1 1 511 149 8 52
1965 4 2 1 1 244 264 185 424
1966 4 2 1 1 502 56 7 148
1967 4 2 1 1 205 189 188 459
1968 4 2 1 1 512 4 24 78
1969 4 2 1 1 77 9 2 497
1970 4 2 1 1 78 4 17 512
1971 4 2 1 1 259 191 251 435
1972 4 2 1 1 199 211 212 462
1973 4 2 1 1 233 185 245 418
1974 4 2 1 1 210 199 198 373
1975 4 2 1 1 249 193 250 454
1976 4 2 1 1 203 253 197 332
1977 4 2 1 1 28 5 100 509
1978 4 2 1 1 36 99 7 502
1979 4 2 1 1 192 376 207 307
1980 4 2 1 1 505 3 20 75
1981 4 2 1 1 206 244 187 424
1982 4 2 1 1 144 152 135 417
1983 4 2 1 1 483 395 138 473
1984 4 2 1 1 191 262 251 435
1985 4 2 1 1 254 182 194 362
1986 4 2 1 1 211 199 210 462
1987 4 2 1 1 199 212 213 462
1988 4 2 1 1 184 31 208 475
1989 4 2 1 1 182 208 31 475
1990 4 2 1 1 119 127 107 477
1991 4 2 1 1 75 61 71 402
1992 4 2 1 1 188 183 15 437
1993 4 2 1 1 211 210 181 436
1994 4 2 1 1 209 180 250 336
1995 4 2 1 1 240 252 183 340
1996 4 2 1 1 247 254 195 434
1997 4 2 1 1 137 145 147 467
1998 4 2 1 1 147 145 154 467
1999 4 2 1 1 253 183 252 340
2000 4 2 1 1 188 255 183 437
2001 4 2 1 1 207 200 192 307
2002 4 2 1 1 264 244 206 424
2003 4 2 1 1 240 255 189 459
2004 4 2 1 1 423 294 328 421
2005 4 2 1 1 423 294 421 461
2006 4 2 1 1 346 372 351 275
2007 4 2 1 1 351 372 346 292
2008 4 2 1 1 411 116 458 106
2009 4 2 1 1 411 458 116 378
2010 4 2 1 1 458 378 96 81
2011 4 2 1 1 206 489 186 201
2012 4 2 1 1 406 497 125 9
2013 4 2 1 1 371 442 300 323
2014 4 2 1 1 396 319 275 388
2015 4 2 1 1 396 275 319 361
2016 4 2 1 1 14 15 183 488
2017 4 2 1 1 413 434 247 319
2018 4 2 1 1 508 406 497 125
2019 4 2 1 1 297 361 434 362
2020 4 2 1 1 386 222 471 221
2021 4 2 1 1 386 471 222 333
2022 4 2 1 1 368 339 345 281
2023 4 2 1 1 368 345 339 316
2024 4 2 1 1 385 258 405 338
2025 4 2 1 1 385 405 258 186
2026 4 2 1 1 466 457 469 352
2027 4 2 1 1 466 469 457 296
2028 4 2 1 1 312 98 97 88
2029 4 2 1 1 384 312 98 97
2030 4 2 1 1 445 406 501 57
2031 4 2 1 1 445 105 406 274
2032 4 2 1 1 159 40 496 39
2033 4 2 1 1 305 342 277 450
2034 4 2 1 1 496 174 40 159
2035 4 2 1 1 496 159 384 401
2036 4 2 1 1 350 412 469 283
2037 4 2 1 1 469 412 350 352
2038 4 2 1 1 274 79 445 304
2039 4 2 1 1 274 79 304 298
2040 4 2 1 1 274 79 298 406
2041 4 2 1 1 274 79 406 445
2042 4 2 1 1 474 410 353 267
2043 4 2 1 1 353 410 474 316
2044 4 2 1 1 353 430 474 267
2045 4 2 1 1 474 430 353 316
2046 4 2 1 1 389 472 377 309
2047 4 2 1 1 377 472 389 325
2048 4 2 1 1 86 285 312 87
2049 4 2 1 1 86 285 87 83
2050 4 2 1 1 450 380 330 305
2051 4 2 1 1 450 330 380 273
2052 4 2 1 1 403 412 451 292
2053 4 2 1 1 451 412 403 349
2054 4 2 1 1 208 475 264 184
2055 4 2 1 1 208 264 475 308
2056 4 2 1 1 424 264 475 184
2057 4 2 1 1 424 475 264 308
2058 4 2 1 1 322 369 285 312
2059 4 2 1 1 322 285 369 443
2060 4 2 1 1 496 384 159 39
2061 4 2 1 1 438 279 338 393
2062 4 2 1 1 218 452 216 217
2063 4 2 1 1 216 452 218 431
2064 4 2 1 1 432 448 377 271
2065 4 2 1 1 377 448 432 407
2066 4 2 1 1 377 309 432 271
2067 4 2 1 1 432 309 377 407
2068 4 2 1 1 183 488 15 437
2069 4 2 1 1 242 320 434 261
2070 4 2 1 1 242 320 261 260
2071 4 2 1 1 104 278 97 312
2072 4 2 1 1 104 278 312 394
2073 4 2 1 1 406 440 105 122
2074 4 2 1 1 406 105 440 274
2075 4 2 1 1 129 105 440 122
2076 4 2 1 1 129 440 105 274
2077 4 2 1 1 508 125 41 118
2078 4 2 1 1 508 176 169 41
2079 4 2 1 1 331 237 240 239
2080 4 2 1 1 331 240 237 427
2081 4 2 1 1 67 287 76 482
2082 4 2 1 1 67 287 482 445
2083 4 2 1 1 471 407 391 333
2084 4 2 1 1 471 391 407 314
2085 4 2 1 1 338 230 187 211
2086 4 2 1 1 180 46 487 47
2087 4 2 1 1 205 493 204 337
2088 4 2 1 1 205 493 337 392
2089 4 2 1 1 461 421 406 294
2090 4 2 1 1 461 406 421 298
2091 4 2 1 1 404 385 417 293
2092 4 2 1 1 404 417 385 318
2093 4 2 1 1 179 423 172 155
2094 4 2 1 1 179 423 155 461
2095 4 2 1 1 481 124 116 378
2096 4 2 1 1 101 378 481 89
2097 4 2 1 1 477 430 307 317
2098 4 2 1 1 477 307 430 288
2099 4 2 1 1 168 495 43 44
2100 4 2 1 1 317 307 458 464
2101 4 2 1 1 317 458 307 109
2102 4 2 1 1 487 209 47 477
2103 4 2 1 1 449 433 355 271
2104 4 2 1 1 449 355 433 336
2105 4 2 1 1 339 355 433 271
2106 4 2 1 1 487 209 180 47
2107 4 2 1 1 327 445 444 274
2108 4 2 1 1 444 445 327 287
2109 4 2 1 1 152 441 132 145
2110 4 2 1 1 487 259 336 355
2111 4 2 1 1 373 256 462 199
2112 4 2 1 1 373 462 256 343
2113 4 2 1 1 95 360 86 85
2114 4 2 1 1 95 360 85 318
2115 4 2 1 1 474 455 345 289
2116 4 2 1 1 474 345 455 368
2117 4 2 1 1 470 300 416 323
2118 4 2 1 1 470 416 300 277
2119 4 2 1 1 461 65 72 70
2120 4 2 1 1 461 72 65 406
2121 4 2 1 1 255 340 240 183
2122 4 2 1 1 255 340 183 437
2123 4 2 1 1 287 482 445 114
2124 4 2 1 1 425 504 143 50
2125 4 2 1 1 51 425 157 166
2126 4 2 1 1 425 167 50 157
2127 4 2 1 1 157 50 425 51
2128 4 2 1 1 478 508 42 118
2129 4 2 1 1 478 439 168 158
2130 4 2 1 1 478 439 158 294
2131 4 2 1 1 168 478 158 43
2132 4 2 1 1 478 508 118 294
2133 4 2 1 1 478 42 158 43
2134 4 2 1 1 479 417 134 394
2135 4 2 1 1 479 502 99 36
2136 4 2 1 1 131 479 134 394
2137 4 2 1 1 35 479 134 131
2138 4 2 1 1 479 148 36 134
2139 4 2 1 1 479 134 36 35
2140 4 2 1 1 93 278 82 498
2141 4 2 1 1 498 141 34 480
2142 4 2 1 1 480 141 149 401
2143 4 2 1 1 149 480 33 141
2144 4 2 1 1 480 34 33 141
$EndElements
