$MeshFormat
2.2 0 8
$EndMeshFormat
$PhysicalNames
1
3 1 "tissue"
$EndPhysicalNames
$Nodes
580
1 0 0 0.08
2 0 0 0
3 0 0.08 0.08
4 0 0.08 0
5 0.08 0 0.08
6 0.08 0 0
7 0.08 0.08 0.08
8 0.08 0.08 0
9 0 0 0.01599999999999999
10 0 0 0.03199999999999999
11 0 0 0.048
12 0 0 0.064
13 0 0.01415107770935447 0.08
14 0 0.02764721624275486 0.08
15 0 0.03999999999999996 0.08
16 0 0.05235278375724504 0.08
17 0 0.06584892229064553 0.08
18 0 0.08 0.01599999999999999
19 0 0.08 0.03199999999999999
20 0 0.08 0.048
21 0 0.08 0.064
22 0 0.01599999999999999 0
23 0 0.03199999999999999 0
24 0 0.048 0
25 0 0.064 0
26 0.08 0 0.01599999999999999
27 0.08 0 0.03199999999999999
28 0.08 0 0.048
29 0.08 0 0.064
30 0.08 0.01415107770935447 0.08
31 0.08 0.02764721624275486 0.08
32 0.08 0.03999999999999996 0.08
33 0.08 0.05235278375724504 0.08
34 0.08 0.06584892229064553 0.08
35 0.08 0.08 0.01599999999999999
36 0.08 0.08 0.03199999999999999
37 0.08 0.08 0.048
38 0.08 0.08 0.064
39 0.08 0.01599999999999999 0
40 0.08 0.03199999999999999 0
41 0.08 0.048 0
42 0.08 0.064 0
43 0.01599999999999999 0 0
44 0.03199999999999999 0 0
45 0.048 0 0
46 0.064 0 0
47 0.01415107770935447 0 0.08
48 0.02764721624275486 0 0.08
49 0.03999999999999996 0 0.08
50 0.05235278375724504 0 0.08
51 0.06584892229064553 0 0.08
52 0.01599999999999999 0.08 0
53 0.03199999999999999 0.08 0
54 0.048 0.08 0
55 0.064 0.08 0
56 0.01415107770935447 0.08 0.08
57 0.02764721624275486 0.08 0.08
58 0.03999999999999996 0.08 0.08
59 0.05235278375724504 0.08 0.08
60 0.06584892229064553 0.08 0.08
61 0 0.03910742394692408 0.01311680516603734
62 0 0.0461763918786225 0.06930217545876997
63 0 0.06615540603529564 0.04003448557323966
64 0 0.01301840040672473 0.04071593829856796
65 0 0.02108841488807167 0.06896606219194552
66 0 0.06575001874153362 0.05689354921979894
67 0 0.05233444026051788 0.04737816624259999
68 0 0.05365389840425118 0.03162388792441849
69 0 0.03875559498202665 0.03860177285910517
70 0 0.03934611299701854 0.05584747760255655
71 0 0.06651838263996888 0.02407497721074907
72 0 0.02400970293247473 0.01355406021753825
73 0 0.05880580028677387 0.06924066104650803
74 0 0.01395404076548458 0.05697155193601459
75 0 0.03374244838527517 0.06911156454830843
76 0 0.02614714558233142 0.04798009359530735
77 0 0.05470932193165919 0.01506240126094296
78 0 0.0151166426428994 0.02524479439117906
79 0 0.03091481396382373 0.02526261348829246
80 0 0.02728344070401094 0.05961881277523155
81 0 0.06826161149184705 0.01173838850815295
82 0 0.01171281292110204 0.01171281292110204
83 0 0.05242627178691756 0.05962169087778893
84 0 0.009838706672582144 0.06998752282559202
85 0 0.07008094826379059 0.07002684205326139
86 0 0.02497169640747496 0.03595157125526955
87 0 0.04342821064573697 0.02473349613975928
88 0.08 0.03910742394692408 0.01311680516603734
89 0.08 0.0461763918786225 0.06930217545876997
90 0.08 0.06615540603529564 0.04003448557323966
91 0.08 0.01301840040672473 0.04071593829856796
92 0.08 0.02108841488807167 0.06896606219194552
93 0.08 0.06575001874153362 0.05689354921979894
94 0.08 0.05233444026051788 0.04737816624259999
95 0.08 0.05365389840425118 0.03162388792441849
96 0.08 0.03875559498202665 0.03860177285910517
97 0.08 0.03934611299701854 0.05584747760255655
98 0.08 0.06651838263996888 0.02407497721074907
99 0.08 0.02400970293247473 0.01355406021753825
100 0.08 0.05880580028677387 0.06924066104650803
101 0.08 0.01395404076548458 0.05697155193601459
102 0.08 0.03374244838527517 0.06911156454830843
103 0.08 0.02614714558233142 0.04798009359530735
104 0.08 0.05470932193165919 0.01506240126094296
105 0.08 0.0151166426428994 0.02524479439117906
106 0.08 0.03091481396382373 0.02526261348829246
107 0.08 0.02728344070401094 0.05961881277523155
108 0.08 0.06826161149184705 0.01173838850815295
109 0.08 0.01171281292110204 0.01171281292110204
110 0.08 0.05242627178691756 0.05962169087778893
111 0.08 0.009838706672582144 0.06998752282559202
112 0.08 0.07008094826379059 0.07002684205326139
113 0.08 0.02497169640747496 0.03595157125526955
114 0.08 0.04342821064573697 0.02473349613975928
115 0.03924029071979515 0 0.01304079319462211
116 0.0461763918786225 0 0.06930217545876997
117 0.06615540603529566 0 0.04003448557323965
118 0.01309410604491233 0 0.04058485191601045
119 0.02108841488807167 0 0.06896606219194552
120 0.06575001874153362 0 0.05689354921979892
121 0.05233444026051787 0 0.04737816624259995
122 0.05365475047371075 0 0.0316233116568764
123 0.03875769244328059 0 0.03860097827562737
124 0.03934632702367709 0 0.05584739652260984
125 0.06651843439345895 0 0.0240749422090762
126 0.01523940409134227 0 0.02520432825299302
127 0.05880580028677387 0 0.06924066104650803
128 0.01396485585665423 0 0.05695282530993497
129 0.03374246658482095 0 0.06911155765375512
130 0.02614714558233138 0 0.04798009359530736
131 0.05472916236202748 0 0.01505096114010259
132 0.02448607732379352 0 0.01293830407267896
133 0.03103822258108408 0 0.02513954764700758
134 0.027284567981294 0 0.05961689291802957
135 0.06826161149184708 0 0.01173838850815294
136 0.01171281292110204 0 0.01171281292110204
137 0.05242628738652826 0 0.05962168496817181
138 0.009840869690816073 0 0.06998377750037608
139 0.0700809482637906 0 0.07002684205326139
140 0.02496380752213579 0 0.03583092144110072
141 0.04348402371597961 0 0.02469111838284721
142 0.0391074239469241 0.08 0.01311680516603734
143 0.0461763918786225 0.08 0.06930217545876997
144 0.01301840040672472 0.08 0.04071593829856796
145 0.06615540603529566 0.08 0.04003448557323965
146 0.02108841488807167 0.08 0.06896606219194552
147 0.06575001874153362 0.08 0.05689354921979892
148 0.05233444026051787 0.08 0.04737816624259995
149 0.05365389840425121 0.08 0.03162388792441847
150 0.03875559498202666 0.08 0.03860177285910515
151 0.03934611299701853 0.08 0.05584747760255655
152 0.06651838263996893 0.08 0.02407497721074906
153 0.02400970293247473 0.08 0.01355406021753825
154 0.05880580028677387 0.08 0.06924066104650803
155 0.01395404076548457 0.08 0.05697155193601459
156 0.03374244838527517 0.08 0.06911156454830843
157 0.02614714558233138 0.08 0.04798009359530736
158 0.0547093219316592 0.08 0.01506240126094295
159 0.0151166426428994 0.08 0.02524479439117905
160 0.03091481396382374 0.08 0.02526261348829244
161 0.02728344070401094 0.08 0.05961881277523157
162 0.06826161149184708 0.08 0.01173838850815294
163 0.01171281292110204 0.08 0.01171281292110204
164 0.05242627178691757 0.08 0.05962169087778892
165 0.009838706672582144 0.08 0.06998752282559202
166 0.0700809482637906 0.08 0.07002684205326139
167 0.02497169640747496 0.08 0.03595157125526953
168 0.04342821064573698 0.08 0.02473349613975927
169 0.03909320685930133 0.01309652896386057 0
170 0.03922656756041135 0.06697958750560631 0
171 0.06614359353944899 0.04 0
172 0.01068068236886871 0.04064415874760111 0
173 0.0664516472791067 0.05593220209150596 0
174 0.05364645674253694 0.04828480136405668 0
175 0.05382061093259831 0.03175207591828158 0
176 0.03843078061834695 0.04000000000000001 0
177 0.06643015906004043 0.02403767096538454 0
178 0.01504728032178098 0.05478120697349741 0
179 0.0240090861283817 0.01355057147814189 0
180 0.05470885718445721 0.06495197085389208 0
181 0.05485490894317942 0.01458702900347755 0
182 0.02446178426113079 0.06706953856151482 0
183 0.01396163196342916 0.02527120759457589 0
184 0.03083035832592378 0.02652978906417445 0
185 0.03111002465522777 0.05440775583749588 0
186 0.02541469572850578 0.04187292108097878 0
187 0.06828718707889796 0.01171281292110207 0
188 0.06828718707889794 0.06828718707889794 0
189 0.01171281292110206 0.06828718707889796 0
190 0.01171281292110204 0.01171281292110204 0
191 0.04334385084663455 0.02482424230128928 0
192 0.04335014163024758 0.05518001793717771 0
193 0.07062624193886435 0.0477685884096757 0.08
194 0.01069782454123002 0.0461763918786225 0.08
195 0.04548288212186047 0.00885321690133783 0.08
196 0.04573225499899326 0.07065971032484136 0.08
197 0.0192238944244087 0.00894255216166609 0.08
198 0.06921910629858734 0.0216055484036298 0.08
199 0.02236950708114516 0.06938376453617258 0.08
200 0.06948120301506364 0.03167756563221712 0.08
201 0.0593216937661545 0.03979148420117791 0.08
202 0.061738952236405 0.02688143441135189 0.08
203 0.05842857236489615 0.01885614026338853 0.08
204 0.05078923199830748 0.0223651835998213 0.08
205 0.05193421495722052 0.03101878518479858 0.08
206 0.03601785009192439 0.01123461607281358 0.08
207 0.02697333560305301 0.02051042036177645 0.08
208 0.03775397350359833 0.02000805774314688 0.08
209 0.01900799051866989 0.0196508011369712 0.08
210 0.02171680789107166 0.02959239437580602 0.08
211 0.03112816714949072 0.02840890003812386 0.08
212 0.01248324183662074 0.02840243678324894 0.08
213 0.01789167566172186 0.03545620022100812 0.08
214 0.02482351496837878 0.03594747982947566 0.08
215 0.0221362926542628 0.04119939612897158 0.08
216 0.02776438194307759 0.04089519286525 0.08
217 0.02547326718609607 0.04552521813854209 0.08
218 0.03059810918959136 0.04524975023043085 0.08
219 0.03303157532968094 0.04082065372535471 0.08
220 0.03564444535960393 0.04510174501456023 0.08
221 0.0380442523512597 0.04071008752985415 0.08
222 0.04064796833454185 0.04497089208717513 0.08
223 0.03329088523910805 0.04951076620719144 0.08
224 0.04303664106581556 0.04063583869161689 0.08
225 0.0456435216457047 0.04485344780217899 0.08
226 0.04043559814027782 0.03654939107512206 0.08
227 0.04325688722478883 0.04923632239947179 0.08
228 0.0483005000534601 0.04908124270518853 0.08
229 0.04803344269614129 0.04051913020837207 0.08
230 0.04587155263608134 0.05349683121524097 0.08
231 0.0510021636898307 0.05362598896803215 0.08
232 0.04080859088715029 0.05366040975680467 0.08
233 0.05355282211172839 0.04896144423462393 0.08
234 0.05657934583265018 0.05369190515738007 0.08
235 0.05383840932368505 0.05920633857778447 0.08
236 0.06110189623074105 0.05949809582618819 0.08
237 0.04397735939478729 0.05842893145790823 0.08
238 0.03840469438419501 0.05834147579773472 0.08
239 0.03431091521564589 0.06976098569613326 0.08
240 0.05869713012367565 0.04884862082129691 0.08
241 0.05652248052227982 0.06812908425494964 0.08
242 0.02854387094656878 0.06097672187050947 0.08
243 0.01918429804819304 0.05980355311121808 0.08
244 0.02501122571539749 0.05445894398619767 0.08
245 0.01960658991890363 0.04616348176319873 0.08
246 0.06781775338427229 0.06777879638105272 0.08
247 0.03047878952025621 0.03646916688221639 0.08
248 0.05064041008563862 0.04471672517743358 0.08
249 0.05319970626268451 0.04024316565779297 0.08
250 0.05014977980680611 0.03604710320758096 0.08
251 0.055418538513804 0.03593214515556994 0.08
252 0.04688235817588373 0.03204444313492651 0.08
253 0.03826145428940531 0.04936412349861689 0.08
254 0.04818043640737518 0.02715285201094545 0.08
255 0.04306327600219483 0.0287233709609747 0.08
256 0.04411295233525633 0.02327779293892329 0.08
257 0.03591994869123887 0.05370460552649814 0.08
258 0.03548269163045441 0.03650104449275278 0.08
259 0.03775040890163815 0.03257751998335158 0.08
260 0.06161285526946166 0.03421118100497313 0.08
261 0.03898262335730827 0.02544326876735202 0.08
262 0.02838517080657409 0.04963869785682073 0.08
263 0.0307898342035698 0.05431184979399227 0.08
264 0.07030787370533706 0.057817318976778 0.08
265 0.0330906493653275 0.03239089923455055 0.08
266 0.04522261540573637 0.03644681680183832 0.08
267 0.03517506533694264 0.02818642423258423 0.08
268 0.03260524042775229 0.0237999131550984 0.08
269 0.00912421653044335 0.03646058544374797 0.08
270 0.04115484057696224 0.06407178894934287 0.08
271 0.05536399371695408 0.04444015826214472 0.08
272 0.04251092460318798 0.01592294951398279 0.08
273 0.009738183827457312 0.0567712184167203 0.08
274 0.01090717777769166 0.0686345763924594 0.08
275 0.008314873192563983 0.01998693309597175 0.08
276 0.06811121400222019 0.01056192738739798 0.08
277 0.04884018220176881 0.05774554498032328 0.08
278 0.02787052216582897 0.03137238561226027 0.08
279 0.01610281332598406 0.041367199126321 0.08
280 0.05656855658336128 0.009085391410969448 0.08
281 0.01009522266242611 0.01021873628359754 0.08
282 0.04233211037283911 0.03264498751334393 0.08
283 0.03373014834585297 0.05812092974510474 0.08
284 0.03516132235380138 0.06254455621891478 0.08
285 0.01805635670540109 0.0521991384592545 0.08
286 0.05673240209350375 0.03111479452755533 0.08
287 0.04908607193334438 0.0636309314786446 0.08
288 0.04918696496330038 0.01624106391369236 0.08
289 0.02330652206647447 0.04959709604080275 0.08
290 0.06709815654673654 0.03976090486796927 0.08
291 0.06352169475006098 0.05201348333306727 0.08
292 0.06283230291050956 0.04515696783718278 0.08
293 0.03212531299997024 0.01790412752200703 0.08
294 0.02683259998013018 0.01304041954253906 0.08
295 0.02598520410044896 0.02542547331338917 0.08
296 0.05463396834295135 0.02623153166631018 0.08
297 0.03947780524936978 0.02935432917156905 0.08
298 0.04147998561678989 0.03875180960060677 0.03736940821628264
299 0.04786121285071364 0.05622690218969238 0.05527749384564375
300 0.02671218654533084 0.05010588126148371 0.05542538347459732
301 0.04738610718318895 0.0315222649224358 0.05926458486858408
302 0.02734009761089723 0.02801888404549724 0.06039812053946688
303 0.03606734240286597 0.04625873376423857 0.06428295264444227
304 0.03539072676855749 0.06291582069488739 0.06313443619333624
305 0.05994644908925573 0.04651224188252061 0.06438968123958434
306 0.05747971951491651 0.04354689270817841 0.04634362280442257
307 0.0384619888036063 0.03165528324993412 0.06844609204933849
308 0.02530619102458947 0.0396762762885435 0.06590659312593322
309 0.04262480080836169 0.01179773747886019 0.04565536407996737
310 0.02390205177182382 0.02709114070548706 0.03345020700782
311 0.05825207484038737 0.02575305263239594 0.02780880962708079
312 0.04898377669385175 0.01672816916174897 0.06412876195870977
313 0.06208540639670513 0.02555692941400088 0.04595405835421141
314 0.03580444869589558 0.04022559960858563 0.05208370141462075
315 0.03955410614564491 0.05517650366718985 0.04498130893330072
316 0.05235670904469642 0.06185464408341462 0.02401231341627337
317 0.02357899190651688 0.05317131278353358 0.02096933709243038
318 0.02594470297795921 0.04309071498826837 0.0425747391914026
319 0.0297563396680107 0.05044146966912322 0.06896432038112059
320 0.04912238179486426 0.05276652675451868 0.06968235089086297
321 0.06055591432862402 0.03027738249030719 0.06580700285100102
322 0.0384775888539493 0.03032510430908786 0.05886140220205869
323 0.03419227338741215 0.01719049492735954 0.06425087277927143
324 0.04465660827761476 0.04048231950930851 0.06962578761483609
325 0.04853549195717786 0.03076721163219834 0.07104794944399034
326 0.06177257558497876 0.06013102206444582 0.07224360935623129
327 0.01265883060288914 0.06641909176973584 0.0455501290468967
328 0.04583096943696509 0.04700078201829588 0.05715660634282949
329 0.04084535178537983 0.05690098022317637 0.06807619016854688
330 0.04653065707249017 0.06602009390542982 0.07074204879112556
331 0.01273647140896167 0.06649569734804356 0.06229199561666614
332 0.04741740637358061 0.03295400112372492 0.04596072937066702
333 0.032135228575859 0.03238516108128553 0.04179712381297927
334 0.03580361802671617 0.02852711151029636 0.01745692901601061
335 0.03631482275917704 0.03774892058480388 0.07112563968668201
336 0.02502285244806071 0.04032437306688958 0.05764660351428857
337 0.01168813474385082 0.03109992815843966 0.06325082346602032
338 0.01156095663219439 0.05294908422504422 0.06826974111718424
339 0.02858459500682597 0.03036575531430168 0.07123830362642025
340 0.06700883075378664 0.06506980048321788 0.04526189029748873
341 0.03552425591894837 0.04683884342845734 0.05609161969662289
342 0.03537127345605006 0.03811364293105579 0.06407771885201378
343 0.01009941794414906 0.03568404187360293 0.04970700126275111
344 0.03191040389623877 0.01695842978403559 0.05271980676861404
345 0.01538910282305488 0.01219857655592307 0.066609047420379
346 0.04062642149781151 0.0504005106088791 0.06146950539449784
347 0.04031044431278344 0.06429124019628016 0.05306359035890906
348 0.04871744956468312 0.04928436449299145 0.04718531074972373
349 0.04291343709759567 0.02752855752600223 0.06329508798169972
350 0.05069070958016508 0.02711485982680414 0.05280881208162475
351 0.04177182826984899 0.04737860881767377 0.0737912587914811
352 0.04263435217329644 0.03476635092167714 0.06346312288486905
353 0.03339719410049197 0.04741495085120427 0.07416828885395062
354 0.05983996627645526 0.03931162033802939 0.05371318076500582
355 0.05305102753307609 0.04618772808286777 0.07388923143044007
356 0.04309334514253936 0.03485088727215666 0.07379566614681016
357 0.05075761070632295 0.04337908978306267 0.06203885544843891
358 0.05264223279250996 0.03423078797500319 0.06624249608580859
359 0.03069455539625856 0.04500013073449659 0.06148467493009938
360 0.04270002705251046 0.02481715553735745 0.07468016611082606
361 0.05158817159650426 0.04033246210743682 0.05258657052331102
362 0.04100123934764897 0.02763794350596005 0.03576542549903648
363 0.06774928282478071 0.01335028388299696 0.06729581064280825
364 0.05586175826646056 0.04677756466544183 0.05589745746545431
365 0.06725780900288522 0.0476281881061747 0.05491259105501711
366 0.05347591250344914 0.02843321131038746 0.06264458538682174
367 0.0361239842570187 0.02345237278614876 0.07320525988528058
368 0.01731232339809941 0.02132803456203578 0.05007825450264315
369 0.03189132792100605 0.05860838805233522 0.05332481317576548
370 0.04775151566013828 0.04700255254474269 0.06761688400960321
371 0.02413420549344812 0.02065172367968723 0.06747379764153488
372 0.03355296100129324 0.05288126981940333 0.06163350050361262
373 0.01535581597178232 0.0484937137744826 0.04647645168904004
374 0.05255761291822764 0.05115942062168126 0.06256153888253679
375 0.05819480320441425 0.03911394898843056 0.07186477484541087
376 0.0503580168399766 0.06326343801482726 0.04190898828315154
377 0.03325978519930634 0.06496920706119742 0.03752341866778517
378 0.02577496341268371 0.04565981300298699 0.07387249641309412
379 0.02942971350197556 0.04312860140443592 0.05203090836684739
380 0.02807172977201779 0.03645265159506648 0.04924493659681716
381 0.06953140414841098 0.04089872058419033 0.06865096467233153
382 0.03921088413175949 0.036152244593707 0.05710509633705966
383 0.04052353016201542 0.04513400797504194 0.04958422325876165
384 0.05077854896270026 0.03514171543953264 0.07373019358513477
385 0.06168370927711339 0.04665490249258158 0.07366433800625535
386 0.01610972205391387 0.03674643196337841 0.0158668243208356
387 0.05642532215114831 0.04295458061790391 0.02506872185598359
388 0.02374691052111052 0.04824528201031772 0.06461215034321492
389 0.01542431576978587 0.04304804779909941 0.05987868241720805
390 0.03912648709641568 0.04215244866773544 0.05872863066385282
391 0.05736289479666357 0.05371926509013503 0.06792280468703808
392 0.03863951323743951 0.01223772525210181 0.07151264737479431
393 0.05521077314110978 0.02117700282329365 0.0710712603155926
394 0.06807105860797474 0.03750207057428507 0.0454191007450756
395 0.02688226174298777 0.05188096185892689 0.04609511334889683
396 0.03133990290106688 0.03421875820091934 0.05621900510850099
397 0.03580729126052191 0.03328543467507897 0.05081935098907665
398 0.03043898852908515 0.03581344070805086 0.07545213759735885
399 0.01847473785650576 0.03398350732378469 0.07237498581212544
400 0.02057629238709979 0.03387428207614581 0.06366277298849435
401 0.04787367239307972 0.0406804942172822 0.04451253637931071
402 0.05460658886937889 0.03513177478513029 0.03760858717057425
403 0.04331976300725575 0.05146650568246511 0.03187074271669991
404 0.04018680825699289 0.04662714564060964 0.01539271772480295
405 0.03886477454948613 0.05276778304145364 0.0537755556169334
406 0.0343136399093675 0.0310617679095571 0.073493427901461
407 0.03014326264377933 0.03955795421207461 0.03111737812186282
408 0.04415378508772526 0.05396662043122359 0.07504978406897481
409 0.03418918246517303 0.04078414150907873 0.04438583297837174
410 0.03020181622056042 0.01586656436058783 0.03845232557184552
411 0.05164658912416475 0.05964961267137658 0.06502589658363868
412 0.05044942552475964 0.05885615068439796 0.07366188203021842
413 0.03559622734311085 0.02447350008663817 0.06251719674123989
414 0.04229160220747216 0.021535133508334 0.05628438537435723
415 0.04384845350084646 0.03929250320384748 0.05210518098482209
416 0.02738377977883163 0.02709644896791142 0.05027008033053019
417 0.02655043295364172 0.06718364254973909 0.07096194278042074
418 0.0598693996915421 0.05740980307682506 0.0601010898403429
419 0.01944472185127156 0.01630027755282008 0.01704164923302584
420 0.04557767395248469 0.01327356509193129 0.02939436292890264
421 0.01744469100233681 0.04257528793332362 0.07083064763162854
422 0.02111873989933206 0.03314257206005381 0.05501704030229814
423 0.01430229635405596 0.04195505714191167 0.03256168764786393
424 0.03978060554162353 0.02967857033451016 0.07580161035929023
425 0.05211572258697909 0.06831583965728739 0.05627518497755051
426 0.05626432016455228 0.03412603585469449 0.04772607019988576
427 0.02728447173757421 0.05678106428356496 0.06137800690292953
428 0.04099406731519434 0.0402887552737405 0.07550971545470717
429 0.02933897104430333 0.05787245469063073 0.07447017820463926
430 0.03558845874095339 0.06497564302048164 0.07290186821467053
431 0.02826353183150835 0.07011308761003533 0.0525874052578213
432 0.05234837778887183 0.01735364059285033 0.05212715827179865
433 0.04655258355026542 0.03471896472778536 0.06874060664773092
434 0.01987956256982839 0.05206117629954769 0.0736692727305135
435 0.04444819342403751 0.06237956619617762 0.06145331152759098
436 0.05521484600545221 0.03010103002167113 0.0747687488114027
437 0.02134320302883033 0.05966120570118254 0.05136642897319788
438 0.06850106058546737 0.05298140556867181 0.06853070221874868
439 0.05237005916902497 0.04036259462476662 0.06780841691460097
440 0.04188898917422938 0.0497766463084633 0.06825434393641
441 0.03243300060126675 0.03086211197641337 0.06431466601607053
442 0.01943822523883271 0.0242694967472249 0.06148687021464214
443 0.06361185110402165 0.05350930042958461 0.01354433851869126
444 0.03344707163606735 0.02667967013758043 0.05572713427366349
445 0.06213815301345145 0.01359164871342847 0.03658007650806307
446 0.03058541568447802 0.04186354478842718 0.06963017530412734
447 0.06270364805267424 0.05024910623689319 0.03661568513295284
448 0.039177511566963 0.02608162106324897 0.04789071067808916
449 0.06739915091211598 0.03142076555346647 0.05607310371572147
450 0.0215583431371107 0.0419697297676814 0.050654153374686
451 0.04604074865958582 0.04451948043705289 0.07601617418925402
452 0.0461068266736979 0.03850521750469415 0.05811572345487677
453 0.05033316407748392 0.02325322519749138 0.04272907453211679
454 0.04865512954271747 0.05064994996434345 0.07569153371415914
455 0.03819466208615514 0.06465374948947751 0.0158514246670859
456 0.04838991197760298 0.02424725198179453 0.06780879936245893
457 0.03109033698056068 0.03517462579225321 0.06840472918879204
458 0.03861412950351846 0.05187354086717434 0.07525784566306078
459 0.03351427456261364 0.04151756963795564 0.07550612244114753
460 0.05766021881098818 0.05532401883329813 0.04931564474653442
461 0.0462165809012262 0.05385652090820916 0.06335853182909605
462 0.06784494501824602 0.06743084030128084 0.02108142936055536
463 0.04883933028773649 0.02581757547063993 0.07487808629814127
464 0.03228348671731292 0.04010580673994919 0.05825421575123457
465 0.01184243805541312 0.02055997934866403 0.07051207218986032
466 0.04573493457758452 0.01433060576470151 0.01376748058178416
467 0.02752614423026364 0.0152528411933129 0.07278556852221023
468 0.008376070777240462 0.01975562661024085 0.05853543766222011
469 0.06001274500733923 0.03913039650048305 0.06235876135636784
470 0.0283191956068439 0.05032097938203479 0.07599434145813976
471 0.04033546312244927 0.03644265603241856 0.04575975764579832
472 0.03191278400921036 0.05820578892438796 0.06824235185923973
473 0.04592284851680738 0.03106115471546291 0.07581746975924478
474 0.04155165635245986 0.02154037100963693 0.06643275269464881
475 0.0187461961550783 0.05447145473896627 0.05975922332333004
476 0.04372452969778269 0.02879172626586401 0.06993415831263604
477 0.0362487839075875 0.05083578870326332 0.06904001461586709
478 0.03308332865884497 0.04936745724094352 0.03792463486531683
479 0.02793245041416328 0.02099196780978707 0.05934730564693108
480 0.0253635262542954 0.01056192415155631 0.06235226392969768
481 0.01492817942997687 0.009488675795564309 0.049674521288446
482 0.0348313947088661 0.008640735381303083 0.05809297132250671
483 0.0472055563175237 0.03787830576778561 0.07633783087553707
484 0.04108745558652618 0.04578608595537467 0.04218073575234371
485 0.05145752312122984 0.00955354331414748 0.0710143212420935
486 0.06667922443100845 0.03455043836703967 0.01325185235822931
487 0.04961039524795351 0.03413350228644269 0.05361297246232444
488 0.03849243225276396 0.07201752968419646 0.06684937643482275
489 0.05333617242087539 0.03674104759126708 0.05978717185610525
490 0.05689264576529659 0.03168834296142264 0.05608474755571709
491 0.02502681508542141 0.03188779120833394 0.07557875612354384
492 0.06344774968534821 0.0239599331009494 0.0738162375762144
493 0.02042952357206862 0.05405548419751928 0.03765470721324732
494 0.01368297775686897 0.06407649172333355 0.02839527906978162
495 0.06765211617735656 0.0357488085278149 0.03241017311540591
496 0.009237672192208134 0.05179655955111569 0.05519924497578862
497 0.01205892560622986 0.01349587159922059 0.03492012407936246
498 0.0213278938770936 0.02718037443781676 0.07155581173384404
499 0.06907646903207702 0.01453929520369104 0.05089750248603812
500 0.04187970595674339 0.07207722115506937 0.04597773536947599
501 0.03752993994307013 0.03532225512427391 0.07593000797273265
502 0.06196373079137325 0.0334819080893098 0.07475484558646789
503 0.06971085199530981 0.0656151523438472 0.06131959611461514
504 0.02529681160995067 0.03457853808899689 0.07069904519991342
505 0.05598114952877135 0.053021881984416 0.07496295746709174
506 0.02789086387436287 0.03489853363605547 0.06172959906780744
507 0.04347269709690562 0.03193803546050664 0.05295369214559675
508 0.01292561603339738 0.06494912859417831 0.07175133134042504
509 0.04846316369302167 0.02399447919695875 0.06059090496597971
510 0.05742622605215479 0.02176439985294713 0.05961087116171074
511 0.05791927071692536 0.009402938898651949 0.05806225365740451
512 0.0338672725400127 0.0481783563469869 0.04815100554543592
513 0.05215590414846712 0.04034800305977114 0.07572780064624163
514 0.07147340011738157 0.02943396726750763 0.0688690791952436
515 0.009355343123295928 0.03911516571499935 0.07219707027904212
516 0.05001611055295888 0.03457677765714141 0.01335045856796729
517 0.02037250563188113 0.03459146848657334 0.04313221435317004
518 0.03851098078262544 0.05850678638801838 0.07517016615276095
519 0.03764819279456302 0.04572278249564912 0.07654102171745839
520 0.01095095103920814 0.02807731141870677 0.034261131068411
521 0.03366200972213338 0.05372117730053711 0.07442561660526086
522 0.03083777219655901 0.02834917600605142 0.07598914588126938
523 0.05340394741522482 0.02952182824402823 0.06915253673670309
524 0.04524360572009882 0.03755513380728147 0.02722414464482288
525 0.03082869054762756 0.02502213873544857 0.06834257770361027
526 0.02757419627382574 0.02343413826262295 0.07442307833022646
527 0.03719919228872898 0.04400102850660385 0.07018255352238105
528 0.02600936664247072 0.03048609648316582 0.06611726106526038
529 0.04439604511686011 0.009838940950559129 0.06029984539881066
530 0.05840395617834704 0.07071428162494227 0.06936412258044172
531 0.04783870899034562 0.03024670304623723 0.06540271821032514
532 0.05471832617458436 0.04761989714861941 0.06855917150056548
533 0.05023014896523578 0.04398246067217466 0.03701481888190959
534 0.0453409231173463 0.01845396468130206 0.07365397998731672
535 0.0223366372276526 0.05837376767753946 0.06805680218015814
536 0.02556080243775172 0.06708293672852965 0.06233661093544076
537 0.04783927693241215 0.03725504593720221 0.06375258081892901
538 0.02347555047020541 0.03993177542195376 0.07499565089936303
539 0.01705322190053626 0.066041291099926 0.01416040044602692
540 0.03983629152544878 0.05751582787197845 0.05951406319042177
541 0.0637139155234815 0.015912636086839 0.01593043437564301
542 0.04267339798858309 0.04300862645853274 0.06366631560992961
543 0.03379357791449916 0.072979411875124 0.007252119787491682
544 0.07262370288403705 0.007665371199393737 0.02157297174582618
545 0.0324449584436456 0.007054076062014032 0.009679093037873137
546 0.07345666379913381 0.06052759977970115 0.008204721503528875
547 0.04762804270396513 0.07439772702284683 0.07502277266755805
548 0.03026061893320314 0.07436863785214905 0.07508492433517018
549 0.006285558251096252 0.07358460116445446 0.06006554300720483
550 0.07269032680666174 0.02143150062195881 0.07402423742046235
551 0.006510973445849381 0.03587258009052178 0.007056011965427873
552 0.004804508797890398 0.02083633650495329 0.07496832042507511
553 0.02920947788419079 0.006645801348770774 0.07356189187140673
554 0.05932025172340914 0.007429168838048994 0.007515138194644028
555 0.00787002336570105 0.07330696003265033 0.01977186398380471
556 0.07318628198719143 0.06143501953183854 0.07323879215123764
557 0.07277099345672919 0.02020838278041028 0.007140748644208841
558 0.0188770441927478 0.005573129841279636 0.07342424252627507
559 0.008047881483074238 0.007362444785081841 0.02102817190789152
560 0.005390042219415944 0.05012154823873485 0.07444934898628092
561 0.003585542304704757 0.03341757116517653 0.07662302192997372
562 0.06021521410000934 0.007814510016914984 0.07437064430970784
563 0.007325955116393811 0.007041293864889968 0.06103667249611992
564 0.07156541331038092 0.0711231832067514 0.07253029027232509
565 0.008385044809174198 0.007949382247756522 0.008038781181184795
566 0.07258350520746848 0.006485158717166592 0.03637393945946656
567 0.005419142186255758 0.06139185096709567 0.07529566059437283
568 0.0747430279716995 0.05037167726324068 0.07425283530618147
569 0.008026261197034307 0.02146417706168209 0.007320693150171644
570 0.01865900615371732 0.07361101582985245 0.07397124179479028
571 0.05556678230768188 0.07204978571755011 0.00879366695925175
572 0.01976267967187611 0.07365205557017905 0.006472652082564884
573 0.008326447004457782 0.05411920178066089 0.00789581050828923
574 0.07197671623795424 0.007921988931542147 0.008017287525293041
575 0.07269887425486515 0.0730906406565999 0.007964040385446588
576 0.02035626672987534 0.006800416976636705 0.006848863476044909
577 0.005692379808720376 0.07272295515969947 0.07297204182274059
578 0.007274030874966714 0.007172536464446052 0.07334521046782705
579 0.01091261199928275 0.07503498010465363 0.07582384301098319
580 0.008052590553300942 0.07215019329759466 0.007528393011683648
$EndNodes
$Elements
2443
1 4 2 1 1 303 359 341 390
2 4 2 1 1 314 383 341 390
3 4 2 1 1 341 383 328 390
4 4 2 1 1 303 341 359 372
5 4 2 1 1 376 403 348 315
6 4 2 1 1 305 374 391 418
7 4 2 1 1 464 382 390 342
8 4 2 1 1 347 435 304 540
9 4 2 1 1 344 413 444 479
10 4 2 1 1 417 430 304 488
11 4 2 1 1 192 316 180 455
12 4 2 1 1 52 580 189 572
13 4 2 1 1 341 328 405 346
14 4 2 1 1 113 313 445 499
15 4 2 1 1 328 341 390 346
16 4 2 1 1 564 503 556 326
17 4 2 1 1 464 382 342 396
18 4 2 1 1 416 410 448 344
19 4 2 1 1 349 413 414 474
20 4 2 1 1 334 169 191 466
21 4 2 1 1 537 542 357 452
22 4 2 1 1 325 436 384 473
23 4 2 1 1 328 383 341 405
24 4 2 1 1 417 488 304 536
25 4 2 1 1 103 313 113 499
26 4 2 1 1 257 518 458 521
27 4 2 1 1 336 422 400 389
28 4 2 1 1 537 542 452 352
29 4 2 1 1 321 366 358 489
30 4 2 1 1 359 379 341 464
31 4 2 1 1 357 361 328 364
32 4 2 1 1 189 572 580 539
33 4 2 1 1 267 406 367 522
34 4 2 1 1 158 571 316 455
35 4 2 1 1 416 448 410 333
36 4 2 1 1 463 255 254 473
37 4 2 1 1 52 580 572 163
38 4 2 1 1 332 401 361 426
39 4 2 1 1 409 478 407 318
40 4 2 1 1 341 303 390 346
41 4 2 1 1 501 459 221 428
42 4 2 1 1 552 281 578 465
43 4 2 1 1 303 341 372 346
44 4 2 1 1 464 382 396 314
45 4 2 1 1 311 313 402 453
46 4 2 1 1 328 361 357 452
47 4 2 1 1 552 281 13 578
48 4 2 1 1 354 426 449 490
49 4 2 1 1 306 361 401 426
50 4 2 1 1 334 169 466 419
51 4 2 1 1 341 359 300 379
52 4 2 1 1 341 314 390 464
53 4 2 1 1 293 206 294 467
54 4 2 1 1 305 418 391 438
55 4 2 1 1 352 382 342 390
56 4 2 1 1 462 546 104 443
57 4 2 1 1 149 377 376 500
58 4 2 1 1 267 367 406 424
59 4 2 1 1 322 349 414 301
60 4 2 1 1 300 379 359 336
61 4 2 1 1 167 377 327 494
62 4 2 1 1 428 459 221 519
63 4 2 1 1 298 409 333 471
64 4 2 1 1 356 384 325 433
65 4 2 1 1 360 367 261 424
66 4 2 1 1 87 317 423 386
67 4 2 1 1 375 384 523 436
68 4 2 1 1 458 518 329 521
69 4 2 1 1 314 341 383 512
70 4 2 1 1 314 341 379 464
71 4 2 1 1 314 383 390 415
72 4 2 1 1 328 390 383 415
73 4 2 1 1 227 451 351 454
74 4 2 1 1 1 13 281 578
75 4 2 1 1 281 345 578 465
76 4 2 1 1 133 545 419 466
77 4 2 1 1 339 406 398 522
78 4 2 1 1 334 420 419 466
79 4 2 1 1 309 344 130 482
80 4 2 1 1 42 575 188 546
81 4 2 1 1 325 463 436 473
82 4 2 1 1 451 222 227 351
83 4 2 1 1 325 384 356 473
84 4 2 1 1 186 334 404 386
85 4 2 1 1 379 464 359 336
86 4 2 1 1 451 222 351 428
87 4 2 1 1 348 403 376 447
88 4 2 1 1 346 299 405 540
89 4 2 1 1 463 255 256 254
90 4 2 1 1 42 575 546 108
91 4 2 1 1 384 436 205 473
92 4 2 1 1 230 408 277 454
93 4 2 1 1 77 573 317 386
94 4 2 1 1 342 457 441 307
95 4 2 1 1 149 316 376 377
96 4 2 1 1 346 372 303 477
97 4 2 1 1 342 322 352 307
98 4 2 1 1 575 546 462 188
99 4 2 1 1 432 499 313 510
100 4 2 1 1 394 402 313 426
101 4 2 1 1 355 375 439 532
102 4 2 1 1 329 346 440 477
103 4 2 1 1 365 394 306 447
104 4 2 1 1 306 394 354 426
105 4 2 1 1 406 522 525 367
106 4 2 1 1 188 443 546 462
107 4 2 1 1 375 523 384 358
108 4 2 1 1 46 574 187 554
109 4 2 1 1 574 187 554 541
110 4 2 1 1 351 408 227 454
111 4 2 1 1 251 384 375 436
112 4 2 1 1 306 402 394 426
113 4 2 1 1 271 355 375 513
114 4 2 1 1 346 303 440 477
115 4 2 1 1 258 459 398 219
116 4 2 1 1 490 469 449 354
117 4 2 1 1 314 379 341 512
118 4 2 1 1 118 11 481 497
119 4 2 1 1 46 574 554 135
120 4 2 1 1 501 459 428 335
121 4 2 1 1 167 160 377 494
122 4 2 1 1 317 377 160 494
123 4 2 1 1 562 276 51 363
124 4 2 1 1 429 434 319 470
125 4 2 1 1 351 440 370 324
126 4 2 1 1 383 484 409 512
127 4 2 1 1 570 331 417 508
128 4 2 1 1 398 491 339 522
129 4 2 1 1 307 441 413 525
130 4 2 1 1 5 363 51 276
131 4 2 1 1 328 364 361 348
132 4 2 1 1 307 367 413 474
133 4 2 1 1 186 334 386 184
134 4 2 1 1 308 378 421 538
135 4 2 1 1 356 324 433 307
136 4 2 1 1 565 576 190 419
137 4 2 1 1 333 416 380 517
138 4 2 1 1 43 565 576 190
139 4 2 1 1 383 405 328 348
140 4 2 1 1 421 400 399 337
141 4 2 1 1 43 565 190 2
142 4 2 1 1 321 366 489 490
143 4 2 1 1 337 389 400 422
144 4 2 1 1 113 313 394 495
145 4 2 1 1 356 384 324 483
146 4 2 1 1 344 479 368 480
147 4 2 1 1 480 392 323 467
148 4 2 1 1 433 324 352 307
149 4 2 1 1 503 166 564 38
150 4 2 1 1 342 382 352 322
151 4 2 1 1 315 383 348 405
152 4 2 1 1 128 118 11 481
153 4 2 1 1 38 564 7 166
154 4 2 1 1 305 374 418 364
155 4 2 1 1 439 489 469 358
156 4 2 1 1 133 419 420 466
157 4 2 1 1 421 400 337 389
158 4 2 1 1 147 425 340 503
159 4 2 1 1 27 26 125 544
160 4 2 1 1 573 61 551 386
161 4 2 1 1 456 509 366 510
162 4 2 1 1 148 376 340 425
163 4 2 1 1 573 189 580 539
164 4 2 1 1 464 382 314 390
165 4 2 1 1 87 317 386 77
166 4 2 1 1 160 377 317 455
167 4 2 1 1 332 426 361 487
168 4 2 1 1 310 497 368 520
169 4 2 1 1 573 189 25 580
170 4 2 1 1 318 450 373 517
171 4 2 1 1 304 369 347 540
172 4 2 1 1 530 418 425 503
173 4 2 1 1 133 545 466 115
174 4 2 1 1 409 407 478 298
175 4 2 1 1 455 182 170 185
176 4 2 1 1 356 324 384 433
177 4 2 1 1 283 521 429 518
178 4 2 1 1 421 400 389 308
179 4 2 1 1 307 433 476 352
180 4 2 1 1 155 331 327 431
181 4 2 1 1 302 442 416 479
182 4 2 1 1 321 358 366 523
183 4 2 1 1 305 381 375 469
184 4 2 1 1 342 464 308 359
185 4 2 1 1 205 436 463 473
186 4 2 1 1 349 414 413 322
187 4 2 1 1 333 471 397 448
188 4 2 1 1 321 358 469 489
189 4 2 1 1 545 179 419 169
190 4 2 1 1 308 388 378 446
191 4 2 1 1 433 476 356 307
192 4 2 1 1 375 381 305 385
193 4 2 1 1 536 156 146 417
194 4 2 1 1 350 490 366 510
195 4 2 1 1 444 441 413 322
196 4 2 1 1 444 441 322 396
197 4 2 1 1 341 390 359 464
198 4 2 1 1 455 182 543 170
199 4 2 1 1 189 4 25 580
200 4 2 1 1 344 413 479 323
201 4 2 1 1 311 313 113 495
202 4 2 1 1 451 224 222 428
203 4 2 1 1 476 367 307 474
204 4 2 1 1 3 17 577 274
205 4 2 1 1 375 384 251 513
206 4 2 1 1 490 469 354 489
207 4 2 1 1 573 172 386 551
208 4 2 1 1 221 459 220 519
209 4 2 1 1 577 567 274 17
210 4 2 1 1 333 310 410 416
211 4 2 1 1 336 422 389 450
212 4 2 1 1 77 317 573 539
213 4 2 1 1 378 446 388 319
214 4 2 1 1 499 510 432 511
215 4 2 1 1 307 413 367 525
216 4 2 1 1 396 397 322 444
217 4 2 1 1 311 113 313 445
218 4 2 1 1 490 321 510 449
219 4 2 1 1 351 320 454 370
220 4 2 1 1 133 545 115 132
221 4 2 1 1 346 372 477 329
222 4 2 1 1 342 464 359 390
223 4 2 1 1 147 425 503 530
224 4 2 1 1 350 366 509 510
225 4 2 1 1 382 415 390 452
226 4 2 1 1 227 228 451 454
227 4 2 1 1 501 459 335 398
228 4 2 1 1 362 332 471 448
229 4 2 1 1 305 391 374 532
230 4 2 1 1 243 273 274 508
231 4 2 1 1 309 432 445 453
232 4 2 1 1 342 396 382 322
233 4 2 1 1 451 222 224 225
234 4 2 1 1 192 316 455 404
235 4 2 1 1 452 537 352 301
236 4 2 1 1 299 461 346 328
237 4 2 1 1 400 504 528 308
238 4 2 1 1 396 416 397 444
239 4 2 1 1 577 567 508 274
240 4 2 1 1 318 333 407 409
241 4 2 1 1 351 454 451 370
242 4 2 1 1 563 138 578 12
243 4 2 1 1 564 556 503 112
244 4 2 1 1 302 396 422 506
245 4 2 1 1 309 130 344 410
246 4 2 1 1 342 307 441 322
247 4 2 1 1 424 267 259 406
248 4 2 1 1 170 53 543 54
249 4 2 1 1 138 12 1 578
250 4 2 1 1 368 410 344 481
251 4 2 1 1 542 357 452 328
252 4 2 1 1 169 184 179 419
253 4 2 1 1 303 359 390 342
254 4 2 1 1 299 411 418 425
255 4 2 1 1 236 264 291 326
256 4 2 1 1 316 145 340 462
257 4 2 1 1 563 138 345 578
258 4 2 1 1 306 354 394 365
259 4 2 1 1 550 276 198 492
260 4 2 1 1 420 453 309 445
261 4 2 1 1 380 397 396 416
262 4 2 1 1 537 542 352 324
263 4 2 1 1 537 542 324 357
264 4 2 1 1 545 169 419 466
265 4 2 1 1 318 407 423 493
266 4 2 1 1 212 337 498 465
267 4 2 1 1 278 491 398 522
268 4 2 1 1 306 354 365 364
269 4 2 1 1 299 346 405 328
270 4 2 1 1 176 404 334 516
271 4 2 1 1 182 170 53 543
272 4 2 1 1 340 425 418 503
273 4 2 1 1 334 404 386 407
274 4 2 1 1 558 480 345 467
275 4 2 1 1 421 400 308 399
276 4 2 1 1 5 30 363 276
277 4 2 1 1 382 397 314 415
278 4 2 1 1 553 480 467 392
279 4 2 1 1 345 371 209 467
280 4 2 1 1 319 434 429 535
281 4 2 1 1 439 489 358 537
282 4 2 1 1 393 321 363 510
283 4 2 1 1 321 375 358 523
284 4 2 1 1 531 537 301 352
285 4 2 1 1 105 311 541 445
286 4 2 1 1 545 576 44 132
287 4 2 1 1 545 576 132 419
288 4 2 1 1 337 343 389 422
289 4 2 1 1 82 9 2 565
290 4 2 1 1 337 421 389 515
291 4 2 1 1 367 392 467 323
292 4 2 1 1 487 415 452 361
293 4 2 1 1 307 406 367 424
294 4 2 1 1 192 316 404 443
295 4 2 1 1 362 310 334 410
296 4 2 1 1 246 60 7 564
297 4 2 1 1 218 353 378 470
298 4 2 1 1 314 380 397 396
299 4 2 1 1 337 368 343 422
300 4 2 1 1 530 418 503 326
301 4 2 1 1 266 428 483 356
302 4 2 1 1 87 317 77 494
303 4 2 1 1 209 467 371 526
304 4 2 1 1 335 406 457 307
305 4 2 1 1 460 425 418 340
306 4 2 1 1 538 245 279 215
307 4 2 1 1 459 428 527 519
308 4 2 1 1 358 384 375 439
309 4 2 1 1 378 470 353 319
310 4 2 1 1 397 415 382 507
311 4 2 1 1 261 367 267 424
312 4 2 1 1 410 368 497 481
313 4 2 1 1 252 384 473 483
314 4 2 1 1 571 142 54 543
315 4 2 1 1 538 279 245 421
316 4 2 1 1 349 509 414 301
317 4 2 1 1 383 328 415 348
318 4 2 1 1 60 564 246 530
319 4 2 1 1 472 518 429 521
320 4 2 1 1 354 426 394 449
321 4 2 1 1 368 481 64 497
322 4 2 1 1 504 446 538 398
323 4 2 1 1 374 411 391 418
324 4 2 1 1 332 298 401 402
325 4 2 1 1 444 441 396 302
326 4 2 1 1 157 431 327 377
327 4 2 1 1 314 397 380 409
328 4 2 1 1 299 376 460 348
329 4 2 1 1 330 304 435 329
330 4 2 1 1 146 417 331 536
331 4 2 1 1 64 368 76 468
332 4 2 1 1 564 326 246 530
333 4 2 1 1 544 135 574 26
334 4 2 1 1 218 378 353 459
335 4 2 1 1 370 324 440 542
336 4 2 1 1 324 428 356 483
337 4 2 1 1 366 358 301 531
338 4 2 1 1 451 222 225 227
339 4 2 1 1 308 399 504 538
340 4 2 1 1 77 87 61 386
341 4 2 1 1 184 334 386 419
342 4 2 1 1 476 367 474 360
343 4 2 1 1 222 351 428 519
344 4 2 1 1 377 494 493 327
345 4 2 1 1 266 428 356 226
346 4 2 1 1 306 354 361 426
347 4 2 1 1 244 434 429 470
348 4 2 1 1 377 403 376 315
349 4 2 1 1 343 368 76 520
350 4 2 1 1 366 393 321 523
351 4 2 1 1 344 413 323 414
352 4 2 1 1 406 441 339 457
353 4 2 1 1 365 447 306 460
354 4 2 1 1 26 6 135 574
355 4 2 1 1 299 460 364 348
356 4 2 1 1 265 398 406 522
357 4 2 1 1 324 451 428 483
358 4 2 1 1 298 362 332 471
359 4 2 1 1 480 392 129 482
360 4 2 1 1 212 399 337 515
361 4 2 1 1 314 382 396 397
362 4 2 1 1 322 396 382 397
363 4 2 1 1 192 316 443 180
364 4 2 1 1 558 480 467 553
365 4 2 1 1 544 135 541 574
366 4 2 1 1 530 418 326 411
367 4 2 1 1 227 228 225 451
368 4 2 1 1 378 216 217 538
369 4 2 1 1 331 327 431 437
370 4 2 1 1 357 364 469 489
371 4 2 1 1 446 342 457 308
372 4 2 1 1 570 331 508 165
373 4 2 1 1 468 465 84 345
374 4 2 1 1 333 362 471 448
375 4 2 1 1 176 334 191 516
376 4 2 1 1 299 315 376 348
377 4 2 1 1 468 84 465 65
378 4 2 1 1 366 301 358 489
379 4 2 1 1 308 359 388 446
380 4 2 1 1 227 408 351 458
381 4 2 1 1 336 380 379 396
382 4 2 1 1 527 542 440 324
383 4 2 1 1 321 393 366 510
384 4 2 1 1 327 493 68 494
385 4 2 1 1 433 439 384 358
386 4 2 1 1 203 562 280 485
387 4 2 1 1 368 410 310 416
388 4 2 1 1 578 345 84 465
389 4 2 1 1 22 2 190 565
390 4 2 1 1 556 503 112 100
391 4 2 1 1 265 278 398 522
392 4 2 1 1 203 363 492 276
393 4 2 1 1 331 437 431 536
394 4 2 1 1 444 441 302 413
395 4 2 1 1 378 308 446 538
396 4 2 1 1 565 136 576 419
397 4 2 1 1 467 209 197 294
398 4 2 1 1 314 397 409 471
399 4 2 1 1 433 439 358 537
400 4 2 1 1 325 384 358 433
401 4 2 1 1 424 259 267 297
402 4 2 1 1 224 428 451 483
403 4 2 1 1 318 333 409 380
404 4 2 1 1 351 451 428 324
405 4 2 1 1 248 355 451 454
406 4 2 1 1 320 351 440 370
407 4 2 1 1 325 356 433 476
408 4 2 1 1 569 565 22 190
409 4 2 1 1 252 384 483 250
410 4 2 1 1 347 405 299 540
411 4 2 1 1 571 142 158 54
412 4 2 1 1 578 12 1 84
413 4 2 1 1 349 322 352 301
414 4 2 1 1 386 404 317 407
415 4 2 1 1 356 226 428 501
416 4 2 1 1 332 401 298 471
417 4 2 1 1 237 330 412 518
418 4 2 1 1 354 306 361 364
419 4 2 1 1 43 565 2 136
420 4 2 1 1 323 413 367 474
421 4 2 1 1 277 408 412 454
422 4 2 1 1 459 527 428 335
423 4 2 1 1 218 223 353 470
424 4 2 1 1 520 368 517 343
425 4 2 1 1 357 305 439 469
426 4 2 1 1 334 169 419 184
427 4 2 1 1 302 371 525 528
428 4 2 1 1 302 422 416 442
429 4 2 1 1 396 441 342 506
430 4 2 1 1 569 565 190 419
431 4 2 1 1 29 5 363 139
432 4 2 1 1 361 364 306 348
433 4 2 1 1 176 191 334 184
434 4 2 1 1 580 4 18 163
435 4 2 1 1 342 441 396 322
436 4 2 1 1 298 333 362 471
437 4 2 1 1 52 580 163 4
438 4 2 1 1 555 580 18 163
439 4 2 1 1 440 527 351 477
440 4 2 1 1 417 430 429 472
441 4 2 1 1 290 381 375 385
442 4 2 1 1 283 521 518 257
443 4 2 1 1 160 317 494 539
444 4 2 1 1 193 381 385 438
445 4 2 1 1 572 163 580 539
446 4 2 1 1 322 414 413 444
447 4 2 1 1 379 380 314 396
448 4 2 1 1 319 388 378 434
449 4 2 1 1 555 580 163 539
450 4 2 1 1 357 361 489 452
451 4 2 1 1 316 145 462 149
452 4 2 1 1 333 409 397 471
453 4 2 1 1 42 575 108 8
454 4 2 1 1 552 84 65 465
455 4 2 1 1 188 575 8 55
456 4 2 1 1 324 433 352 537
457 4 2 1 1 29 5 111 363
458 4 2 1 1 368 497 76 520
459 4 2 1 1 552 281 465 275
460 4 2 1 1 353 477 351 527
461 4 2 1 1 356 424 282 501
462 4 2 1 1 440 527 477 303
463 4 2 1 1 388 421 378 434
464 4 2 1 1 218 353 220 459
465 4 2 1 1 575 571 188 462
466 4 2 1 1 261 367 360 208
467 4 2 1 1 354 469 449 365
468 4 2 1 1 460 425 340 376
469 4 2 1 1 378 216 538 459
470 4 2 1 1 313 311 445 453
471 4 2 1 1 196 330 430 488
472 4 2 1 1 413 349 322 307
473 4 2 1 1 487 415 361 332
474 4 2 1 1 575 571 55 188
475 4 2 1 1 217 470 378 289
476 4 2 1 1 305 439 375 532
477 4 2 1 1 5 363 139 51
478 4 2 1 1 168 158 316 455
479 4 2 1 1 314 390 382 415
480 4 2 1 1 203 363 485 393
481 4 2 1 1 351 320 408 454
482 4 2 1 1 304 435 347 488
483 4 2 1 1 341 379 300 512
484 4 2 1 1 351 353 458 477
485 4 2 1 1 490 510 321 366
486 4 2 1 1 313 311 402 495
487 4 2 1 1 393 456 366 510
488 4 2 1 1 577 579 3 274
489 4 2 1 1 579 274 577 508
490 4 2 1 1 535 243 434 429
491 4 2 1 1 148 145 340 376
492 4 2 1 1 160 455 317 539
493 4 2 1 1 332 361 401 415
494 4 2 1 1 298 407 333 409
495 4 2 1 1 536 156 417 488
496 4 2 1 1 359 372 341 300
497 4 2 1 1 467 197 209 345
498 4 2 1 1 449 365 97 394
499 4 2 1 1 307 349 322 352
500 4 2 1 1 307 424 501 406
501 4 2 1 1 359 372 300 388
502 4 2 1 1 258 459 219 221
503 4 2 1 1 318 423 407 517
504 4 2 1 1 391 418 326 438
505 4 2 1 1 313 449 426 490
506 4 2 1 1 216 459 398 538
507 4 2 1 1 252 384 250 205
508 4 2 1 1 442 480 368 479
509 4 2 1 1 317 478 377 493
510 4 2 1 1 311 402 362 453
511 4 2 1 1 274 579 3 56
512 4 2 1 1 570 579 274 56
513 4 2 1 1 570 579 508 274
514 4 2 1 1 340 376 316 447
515 4 2 1 1 233 355 248 454
516 4 2 1 1 558 281 578 47
517 4 2 1 1 359 342 446 308
518 4 2 1 1 452 489 357 537
519 4 2 1 1 266 428 226 224
520 4 2 1 1 336 380 422 450
521 4 2 1 1 346 461 370 328
522 4 2 1 1 446 538 459 378
523 4 2 1 1 375 439 384 513
524 4 2 1 1 353 446 378 319
525 4 2 1 1 94 394 365 447
526 4 2 1 1 118 10 11 497
527 4 2 1 1 356 473 384 483
528 4 2 1 1 322 444 448 414
529 4 2 1 1 341 300 405 512
530 4 2 1 1 445 499 432 511
531 4 2 1 1 388 446 359 319
532 4 2 1 1 238 257 283 518
533 4 2 1 1 356 325 473 476
534 4 2 1 1 335 398 446 457
535 4 2 1 1 504 446 398 457
536 4 2 1 1 432 445 313 499
537 4 2 1 1 324 384 439 513
538 4 2 1 1 148 340 147 425
539 4 2 1 1 347 435 425 488
540 4 2 1 1 459 538 446 398
541 4 2 1 1 570 331 165 146
542 4 2 1 1 546 188 173 443
543 4 2 1 1 330 430 304 329
544 4 2 1 1 341 405 383 512
545 4 2 1 1 1 281 47 578
546 4 2 1 1 405 300 369 512
547 4 2 1 1 353 223 458 521
548 4 2 1 1 505 320 355 454
549 4 2 1 1 77 494 317 539
550 4 2 1 1 340 460 376 447
551 4 2 1 1 220 218 223 353
552 4 2 1 1 303 372 359 319
553 4 2 1 1 308 421 378 388
554 4 2 1 1 361 364 357 489
555 4 2 1 1 308 388 359 336
556 4 2 1 1 149 168 158 316
557 4 2 1 1 536 156 488 161
558 4 2 1 1 368 422 416 517
559 4 2 1 1 318 493 478 407
560 4 2 1 1 558 281 345 578
561 4 2 1 1 346 542 440 303
562 4 2 1 1 378 434 289 470
563 4 2 1 1 351 451 324 370
564 4 2 1 1 168 316 149 377
565 4 2 1 1 339 491 526 522
566 4 2 1 1 549 165 577 331
567 4 2 1 1 577 85 331 508
568 4 2 1 1 314 383 409 512
569 4 2 1 1 382 390 352 452
570 4 2 1 1 377 493 494 317
571 4 2 1 1 549 165 21 577
572 4 2 1 1 357 324 439 370
573 4 2 1 1 329 440 346 461
574 4 2 1 1 305 418 365 364
575 4 2 1 1 315 484 383 512
576 4 2 1 1 373 450 343 517
577 4 2 1 1 387 114 447 495
578 4 2 1 1 569 82 565 419
579 4 2 1 1 472 477 372 329
580 4 2 1 1 178 186 317 386
581 4 2 1 1 253 351 519 458
582 4 2 1 1 217 470 289 262
583 4 2 1 1 259 282 424 501
584 4 2 1 1 309 410 344 448
585 4 2 1 1 165 3 21 577
586 4 2 1 1 266 282 356 473
587 4 2 1 1 409 484 478 512
588 4 2 1 1 420 453 445 311
589 4 2 1 1 353 470 223 521
590 4 2 1 1 420 453 362 309
591 4 2 1 1 338 331 73 508
592 4 2 1 1 312 509 456 510
593 4 2 1 1 577 165 3 579
594 4 2 1 1 80 343 337 468
595 4 2 1 1 165 579 577 508
596 4 2 1 1 302 441 396 506
597 4 2 1 1 369 437 431 377
598 4 2 1 1 68 373 423 493
599 4 2 1 1 299 347 376 315
600 4 2 1 1 178 317 185 539
601 4 2 1 1 253 351 458 227
602 4 2 1 1 300 388 389 336
603 4 2 1 1 372 346 341 405
604 4 2 1 1 266 428 224 483
605 4 2 1 1 300 373 389 475
606 4 2 1 1 271 375 355 385
607 4 2 1 1 334 169 184 191
608 4 2 1 1 165 577 331 508
609 4 2 1 1 380 397 333 409
610 4 2 1 1 361 306 401 348
611 4 2 1 1 480 392 482 323
612 4 2 1 1 527 542 324 342
613 4 2 1 1 442 480 479 371
614 4 2 1 1 324 357 439 537
615 4 2 1 1 252 384 205 473
616 4 2 1 1 302 422 396 416
617 4 2 1 1 344 416 368 479
618 4 2 1 1 51 363 127 562
619 4 2 1 1 534 367 360 474
620 4 2 1 1 308 421 399 538
621 4 2 1 1 332 350 426 487
622 4 2 1 1 252 473 266 483
623 4 2 1 1 440 542 346 370
624 4 2 1 1 355 385 375 532
625 4 2 1 1 332 402 401 426
626 4 2 1 1 203 562 485 363
627 4 2 1 1 434 194 273 338
628 4 2 1 1 545 179 576 419
629 4 2 1 1 221 220 459 219
630 4 2 1 1 351 408 320 440
631 4 2 1 1 168 316 377 455
632 4 2 1 1 370 374 357 328
633 4 2 1 1 545 179 44 576
634 4 2 1 1 307 501 424 356
635 4 2 1 1 300 395 379 450
636 4 2 1 1 373 395 300 450
637 4 2 1 1 171 41 443 486
638 4 2 1 1 321 436 375 523
639 4 2 1 1 203 363 393 492
640 4 2 1 1 190 576 43 179
641 4 2 1 1 121 529 137 511
642 4 2 1 1 463 523 436 393
643 4 2 1 1 347 369 315 405
644 4 2 1 1 157 327 167 377
645 4 2 1 1 300 389 373 450
646 4 2 1 1 333 298 362 407
647 4 2 1 1 232 458 257 518
648 4 2 1 1 36 340 145 462
649 4 2 1 1 324 439 355 513
650 4 2 1 1 282 424 356 473
651 4 2 1 1 227 408 230 454
652 4 2 1 1 151 347 431 500
653 4 2 1 1 335 446 398 459
654 4 2 1 1 576 44 43 179
655 4 2 1 1 327 68 493 373
656 4 2 1 1 36 340 37 145
657 4 2 1 1 230 277 231 454
658 4 2 1 1 273 194 434 285
659 4 2 1 1 190 576 179 419
660 4 2 1 1 151 347 500 425
661 4 2 1 1 300 450 379 336
662 4 2 1 1 368 410 416 344
663 4 2 1 1 162 8 35 575
664 4 2 1 1 344 444 414 448
665 4 2 1 1 158 149 316 462
666 4 2 1 1 416 422 380 517
667 4 2 1 1 334 310 407 386
668 4 2 1 1 462 104 546 108
669 4 2 1 1 314 409 379 512
670 4 2 1 1 470 521 353 319
671 4 2 1 1 245 421 378 538
672 4 2 1 1 474 509 349 456
673 4 2 1 1 79 419 386 520
674 4 2 1 1 162 152 158 462
675 4 2 1 1 575 462 35 162
676 4 2 1 1 257 458 223 521
677 4 2 1 1 40 41 171 486
678 4 2 1 1 299 425 347 435
679 4 2 1 1 564 503 326 530
680 4 2 1 1 39 6 574 187
681 4 2 1 1 373 423 318 517
682 4 2 1 1 46 574 135 6
683 4 2 1 1 574 554 135 541
684 4 2 1 1 360 255 473 424
685 4 2 1 1 443 571 180 316
686 4 2 1 1 316 145 149 376
687 4 2 1 1 105 311 445 113
688 4 2 1 1 237 330 518 270
689 4 2 1 1 574 557 39 187
690 4 2 1 1 462 571 316 158
691 4 2 1 1 574 557 187 541
692 4 2 1 1 270 430 330 518
693 4 2 1 1 351 458 440 477
694 4 2 1 1 313 490 350 510
695 4 2 1 1 463 523 393 456
696 4 2 1 1 291 438 385 326
697 4 2 1 1 303 446 359 342
698 4 2 1 1 303 359 446 319
699 4 2 1 1 573 172 551 24
700 4 2 1 1 356 266 473 483
701 4 2 1 1 117 511 499 445
702 4 2 1 1 273 508 434 338
703 4 2 1 1 490 469 489 321
704 4 2 1 1 305 391 385 438
705 4 2 1 1 573 172 24 178
706 4 2 1 1 505 320 454 412
707 4 2 1 1 24 25 573 178
708 4 2 1 1 573 580 81 539
709 4 2 1 1 106 311 113 495
710 4 2 1 1 322 397 382 507
711 4 2 1 1 457 506 528 308
712 4 2 1 1 363 550 514 492
713 4 2 1 1 317 403 377 478
714 4 2 1 1 573 580 25 81
715 4 2 1 1 180 173 188 443
716 4 2 1 1 363 321 449 510
717 4 2 1 1 577 3 21 85
718 4 2 1 1 220 459 353 519
719 4 2 1 1 305 374 357 532
720 4 2 1 1 318 333 380 517
721 4 2 1 1 364 357 374 328
722 4 2 1 1 320 374 370 461
723 4 2 1 1 358 384 325 523
724 4 2 1 1 463 523 456 325
725 4 2 1 1 324 355 451 513
726 4 2 1 1 496 343 67 373
727 4 2 1 1 332 362 298 402
728 4 2 1 1 315 377 403 478
729 4 2 1 1 457 506 441 528
730 4 2 1 1 155 327 157 431
731 4 2 1 1 514 102 97 381
732 4 2 1 1 573 317 178 539
733 4 2 1 1 387 114 495 486
734 4 2 1 1 343 368 337 468
735 4 2 1 1 266 282 226 356
736 4 2 1 1 393 312 510 511
737 4 2 1 1 573 178 317 386
738 4 2 1 1 476 367 360 424
739 4 2 1 1 376 460 348 447
740 4 2 1 1 335 457 406 398
741 4 2 1 1 290 375 381 502
742 4 2 1 1 406 525 522 339
743 4 2 1 1 393 363 321 492
744 4 2 1 1 78 86 497 520
745 4 2 1 1 347 431 304 488
746 4 2 1 1 78 79 86 520
747 4 2 1 1 323 367 413 525
748 4 2 1 1 200 32 31 514
749 4 2 1 1 313 445 432 453
750 4 2 1 1 251 436 375 502
751 4 2 1 1 353 458 223 519
752 4 2 1 1 460 425 376 299
753 4 2 1 1 300 379 395 512
754 4 2 1 1 78 419 79 520
755 4 2 1 1 197 553 558 467
756 4 2 1 1 505 532 320 391
757 4 2 1 1 348 383 315 484
758 4 2 1 1 382 301 507 452
759 4 2 1 1 416 442 368 479
760 4 2 1 1 287 330 241 412
761 4 2 1 1 300 359 388 336
762 4 2 1 1 346 440 370 461
763 4 2 1 1 461 540 435 299
764 4 2 1 1 563 468 481 74
765 4 2 1 1 250 252 266 483
766 4 2 1 1 344 413 414 444
767 4 2 1 1 387 114 486 443
768 4 2 1 1 417 304 430 472
769 4 2 1 1 314 383 415 471
770 4 2 1 1 194 421 338 434
771 4 2 1 1 108 104 98 462
772 4 2 1 1 471 507 415 397
773 4 2 1 1 78 497 419 520
774 4 2 1 1 463 523 325 436
775 4 2 1 1 213 399 421 538
776 4 2 1 1 330 412 411 530
777 4 2 1 1 186 317 386 404
778 4 2 1 1 331 431 155 536
779 4 2 1 1 242 429 417 430
780 4 2 1 1 205 384 251 436
781 4 2 1 1 345 468 368 481
782 4 2 1 1 130 344 410 481
783 4 2 1 1 389 422 343 450
784 4 2 1 1 383 415 401 348
785 4 2 1 1 313 426 350 490
786 4 2 1 1 313 402 394 495
787 4 2 1 1 311 445 420 541
788 4 2 1 1 308 457 504 528
789 4 2 1 1 213 491 399 538
790 4 2 1 1 380 336 422 396
791 4 2 1 1 62 389 338 515
792 4 2 1 1 301 452 382 352
793 4 2 1 1 32 514 200 381
794 4 2 1 1 305 469 357 364
795 4 2 1 1 217 470 262 218
796 4 2 1 1 306 401 402 426
797 4 2 1 1 424 473 360 476
798 4 2 1 1 259 424 406 501
799 4 2 1 1 196 430 239 488
800 4 2 1 1 538 245 217 378
801 4 2 1 1 543 572 53 182
802 4 2 1 1 72 386 79 419
803 4 2 1 1 538 217 245 215
804 4 2 1 1 220 353 223 519
805 4 2 1 1 259 282 297 424
806 4 2 1 1 572 53 182 52
807 4 2 1 1 572 189 52 182
808 4 2 1 1 375 355 439 513
809 4 2 1 1 70 337 343 389
810 4 2 1 1 148 149 145 376
811 4 2 1 1 543 572 182 539
812 4 2 1 1 337 368 422 442
813 4 2 1 1 318 379 409 512
814 4 2 1 1 514 97 102 107
815 4 2 1 1 170 571 543 455
816 4 2 1 1 283 429 284 518
817 4 2 1 1 553 480 392 129
818 4 2 1 1 355 370 320 532
819 4 2 1 1 299 405 347 315
820 4 2 1 1 170 571 455 180
821 4 2 1 1 443 571 316 462
822 4 2 1 1 457 342 335 307
823 4 2 1 1 320 411 374 461
824 4 2 1 1 443 571 462 188
825 4 2 1 1 55 571 54 180
826 4 2 1 1 113 445 91 499
827 4 2 1 1 498 210 209 295
828 4 2 1 1 366 301 489 490
829 4 2 1 1 571 188 180 55
830 4 2 1 1 307 476 349 352
831 4 2 1 1 358 375 321 469
832 4 2 1 1 415 382 507 452
833 4 2 1 1 388 308 421 389
834 4 2 1 1 214 491 213 538
835 4 2 1 1 349 474 456 476
836 4 2 1 1 471 507 397 448
837 4 2 1 1 474 509 456 312
838 4 2 1 1 571 180 316 455
839 4 2 1 1 350 414 509 301
840 4 2 1 1 490 469 321 449
841 4 2 1 1 355 439 324 370
842 4 2 1 1 350 490 487 301
843 4 2 1 1 419 420 334 410
844 4 2 1 1 315 478 484 512
845 4 2 1 1 191 334 466 516
846 4 2 1 1 331 475 338 496
847 4 2 1 1 570 57 56 199
848 4 2 1 1 212 498 209 465
849 4 2 1 1 56 274 570 199
850 4 2 1 1 355 454 320 370
851 4 2 1 1 353 519 459 527
852 4 2 1 1 461 540 299 346
853 4 2 1 1 74 11 481 563
854 4 2 1 1 1 13 578 84
855 4 2 1 1 502 251 201 375
856 4 2 1 1 91 113 105 445
857 4 2 1 1 570 548 57 199
858 4 2 1 1 324 451 355 370
859 4 2 1 1 355 451 454 370
860 4 2 1 1 356 424 307 476
861 4 2 1 1 305 357 374 364
862 4 2 1 1 502 201 251 260
863 4 2 1 1 305 365 418 438
864 4 2 1 1 209 207 467 526
865 4 2 1 1 387 114 443 447
866 4 2 1 1 507 301 414 350
867 4 2 1 1 431 437 369 536
868 4 2 1 1 274 570 199 508
869 4 2 1 1 64 76 368 497
870 4 2 1 1 502 251 286 260
871 4 2 1 1 105 311 113 106
872 4 2 1 1 439 489 537 357
873 4 2 1 1 301 358 489 537
874 4 2 1 1 313 426 402 453
875 4 2 1 1 322 444 397 448
876 4 2 1 1 301 489 487 452
877 4 2 1 1 570 548 199 417
878 4 2 1 1 133 545 132 419
879 4 2 1 1 420 445 122 541
880 4 2 1 1 248 451 355 513
881 4 2 1 1 545 45 169 466
882 4 2 1 1 570 417 199 508
883 4 2 1 1 209 371 345 465
884 4 2 1 1 379 380 336 450
885 4 2 1 1 569 22 23 183
886 4 2 1 1 398 491 214 538
887 4 2 1 1 178 172 186 386
888 4 2 1 1 350 366 490 301
889 4 2 1 1 397 444 416 448
890 4 2 1 1 75 337 212 465
891 4 2 1 1 569 190 22 183
892 4 2 1 1 357 374 370 532
893 4 2 1 1 531 537 433 358
894 4 2 1 1 302 416 444 479
895 4 2 1 1 408 440 351 458
896 4 2 1 1 329 440 408 458
897 4 2 1 1 452 489 537 301
898 4 2 1 1 551 569 23 183
899 4 2 1 1 461 540 346 329
900 4 2 1 1 315 405 369 512
901 4 2 1 1 314 415 397 471
902 4 2 1 1 344 309 448 414
903 4 2 1 1 378 216 459 218
904 4 2 1 1 551 569 183 386
905 4 2 1 1 569 183 386 419
906 4 2 1 1 563 138 128 345
907 4 2 1 1 556 503 100 438
908 4 2 1 1 381 449 321 469
909 4 2 1 1 571 142 543 455
910 4 2 1 1 411 412 326 530
911 4 2 1 1 439 489 357 469
912 4 2 1 1 569 190 183 419
913 4 2 1 1 415 361 328 452
914 4 2 1 1 487 489 361 452
915 4 2 1 1 33 32 193 568
916 4 2 1 1 186 334 184 176
917 4 2 1 1 502 286 251 436
918 4 2 1 1 343 423 373 517
919 4 2 1 1 389 421 338 515
920 4 2 1 1 149 376 148 500
921 4 2 1 1 226 356 282 501
922 4 2 1 1 398 339 457 406
923 4 2 1 1 366 456 393 523
924 4 2 1 1 147 145 37 340
925 4 2 1 1 394 426 313 449
926 4 2 1 1 487 507 301 452
927 4 2 1 1 338 388 421 389
928 4 2 1 1 193 32 381 568
929 4 2 1 1 185 317 404 455
930 4 2 1 1 415 328 361 348
931 4 2 1 1 361 489 487 490
932 4 2 1 1 347 369 304 431
933 4 2 1 1 200 502 381 514
934 4 2 1 1 476 352 433 531
935 4 2 1 1 216 398 214 538
936 4 2 1 1 248 451 228 454
937 4 2 1 1 217 470 218 378
938 4 2 1 1 205 463 254 473
939 4 2 1 1 231 454 412 505
940 4 2 1 1 320 412 408 454
941 4 2 1 1 290 32 200 381
942 4 2 1 1 314 380 379 409
943 4 2 1 1 297 261 267 424
944 4 2 1 1 440 527 324 351
945 4 2 1 1 264 568 556 33
946 4 2 1 1 299 364 374 328
947 4 2 1 1 363 514 550 92
948 4 2 1 1 412 505 391 326
949 4 2 1 1 125 445 544 541
950 4 2 1 1 351 519 353 527
951 4 2 1 1 350 509 432 510
952 4 2 1 1 301 382 322 352
953 4 2 1 1 70 337 389 515
954 4 2 1 1 363 321 492 514
955 4 2 1 1 556 112 564 34
956 4 2 1 1 544 445 105 541
957 4 2 1 1 549 165 331 155
958 4 2 1 1 353 351 458 519
959 4 2 1 1 369 300 395 512
960 4 2 1 1 312 474 414 529
961 4 2 1 1 228 227 230 454
962 4 2 1 1 360 473 463 476
963 4 2 1 1 193 568 381 438
964 4 2 1 1 65 337 465 468
965 4 2 1 1 264 568 33 193
966 4 2 1 1 298 478 409 484
967 4 2 1 1 395 437 369 377
968 4 2 1 1 299 418 364 460
969 4 2 1 1 133 419 410 420
970 4 2 1 1 307 474 349 476
971 4 2 1 1 316 376 403 447
972 4 2 1 1 273 16 17 567
973 4 2 1 1 569 82 419 72
974 4 2 1 1 334 310 386 419
975 4 2 1 1 136 576 132 43
976 4 2 1 1 105 566 445 544
977 4 2 1 1 73 331 85 508
978 4 2 1 1 354 449 394 365
979 4 2 1 1 186 185 317 404
980 4 2 1 1 204 463 393 534
981 4 2 1 1 487 415 332 507
982 4 2 1 1 300 437 373 475
983 4 2 1 1 107 449 363 514
984 4 2 1 1 400 504 308 399
985 4 2 1 1 304 488 431 536
986 4 2 1 1 476 367 424 307
987 4 2 1 1 273 17 274 567
988 4 2 1 1 273 567 274 508
989 4 2 1 1 320 391 374 411
990 4 2 1 1 567 560 273 16
991 4 2 1 1 303 527 477 319
992 4 2 1 1 529 323 482 392
993 4 2 1 1 293 392 206 467
994 4 2 1 1 305 385 381 438
995 4 2 1 1 316 145 376 340
996 4 2 1 1 129 482 392 529
997 4 2 1 1 267 367 268 522
998 4 2 1 1 277 412 231 454
999 4 2 1 1 303 446 527 319
1000 4 2 1 1 130 344 481 480
1001 4 2 1 1 146 548 570 417
1002 4 2 1 1 302 442 371 528
1003 4 2 1 1 310 416 333 517
1004 4 2 1 1 349 352 476 531
1005 4 2 1 1 290 193 381 385
1006 4 2 1 1 253 351 227 222
1007 4 2 1 1 245 421 194 434
1008 4 2 1 1 210 278 295 491
1009 4 2 1 1 325 523 456 531
1010 4 2 1 1 325 433 358 531
1011 4 2 1 1 312 456 393 510
1012 4 2 1 1 79 423 87 69
1013 4 2 1 1 401 415 361 348
1014 4 2 1 1 567 560 338 273
1015 4 2 1 1 342 464 396 506
1016 4 2 1 1 299 376 347 425
1017 4 2 1 1 164 330 425 530
1018 4 2 1 1 217 245 289 378
1019 4 2 1 1 363 449 321 514
1020 4 2 1 1 567 273 338 508
1021 4 2 1 1 178 186 185 317
1022 4 2 1 1 331 338 83 496
1023 4 2 1 1 408 458 232 518
1024 4 2 1 1 311 420 466 541
1025 4 2 1 1 427 304 472 372
1026 4 2 1 1 245 378 421 434
1027 4 2 1 1 72 569 386 419
1028 4 2 1 1 381 375 321 502
1029 4 2 1 1 185 317 455 539
1030 4 2 1 1 105 566 544 27
1031 4 2 1 1 566 27 28 117
1032 4 2 1 1 398 504 491 538
1033 4 2 1 1 300 389 450 336
1034 4 2 1 1 433 439 537 324
1035 4 2 1 1 339 526 491 498
1036 4 2 1 1 300 395 373 437
1037 4 2 1 1 440 458 329 477
1038 4 2 1 1 212 337 75 515
1039 4 2 1 1 223 470 263 521
1040 4 2 1 1 402 447 394 495
1041 4 2 1 1 28 566 117 499
1042 4 2 1 1 547 241 196 330
1043 4 2 1 1 319 434 378 470
1044 4 2 1 1 306 364 460 348
1045 4 2 1 1 325 463 473 476
1046 4 2 1 1 1 578 47 138
1047 4 2 1 1 457 506 308 342
1048 4 2 1 1 402 394 447 306
1049 4 2 1 1 319 472 427 535
1050 4 2 1 1 335 356 324 428
1051 4 2 1 1 507 414 301 322
1052 4 2 1 1 535 243 429 417
1053 4 2 1 1 79 423 386 87
1054 4 2 1 1 360 456 474 476
1055 4 2 1 1 117 566 445 499
1056 4 2 1 1 72 79 78 419
1057 4 2 1 1 433 439 324 384
1058 4 2 1 1 73 567 338 508
1059 4 2 1 1 468 481 64 368
1060 4 2 1 1 125 566 27 544
1061 4 2 1 1 186 334 176 404
1062 4 2 1 1 125 566 544 445
1063 4 2 1 1 413 349 307 474
1064 4 2 1 1 379 314 464 396
1065 4 2 1 1 449 469 381 365
1066 4 2 1 1 340 447 365 460
1067 4 2 1 1 318 333 517 407
1068 4 2 1 1 348 306 401 533
1069 4 2 1 1 228 233 248 454
1070 4 2 1 1 312 432 414 509
1071 4 2 1 1 192 404 174 443
1072 4 2 1 1 468 64 481 74
1073 4 2 1 1 463 255 360 256
1074 4 2 1 1 565 9 2 136
1075 4 2 1 1 147 164 425 530
1076 4 2 1 1 463 255 473 360
1077 4 2 1 1 457 506 342 441
1078 4 2 1 1 368 344 480 481
1079 4 2 1 1 298 524 403 533
1080 4 2 1 1 136 576 419 132
1081 4 2 1 1 562 363 127 485
1082 4 2 1 1 559 565 136 9
1083 4 2 1 1 390 328 346 542
1084 4 2 1 1 331 338 535 508
1085 4 2 1 1 237 330 270 287
1086 4 2 1 1 401 471 383 484
1087 4 2 1 1 232 408 227 458
1088 4 2 1 1 419 497 310 520
1089 4 2 1 1 377 403 317 455
1090 4 2 1 1 340 316 462 447
1091 4 2 1 1 409 478 318 512
1092 4 2 1 1 224 451 229 483
1093 4 2 1 1 224 225 229 451
1094 4 2 1 1 338 73 331 83
1095 4 2 1 1 131 420 541 466
1096 4 2 1 1 320 440 329 461
1097 4 2 1 1 477 527 353 319
1098 4 2 1 1 559 565 419 136
1099 4 2 1 1 242 284 429 430
1100 4 2 1 1 336 506 422 396
1101 4 2 1 1 86 76 497 520
1102 4 2 1 1 7 34 246 564
1103 4 2 1 1 347 377 431 500
1104 4 2 1 1 393 485 312 511
1105 4 2 1 1 306 365 460 364
1106 4 2 1 1 299 411 374 418
1107 4 2 1 1 349 476 456 531
1108 4 2 1 1 378 446 353 459
1109 4 2 1 1 209 345 281 465
1110 4 2 1 1 267 261 268 367
1111 4 2 1 1 318 395 379 512
1112 4 2 1 1 316 376 377 403
1113 4 2 1 1 325 456 476 531
1114 4 2 1 1 487 415 507 452
1115 4 2 1 1 472 518 521 329
1116 4 2 1 1 452 390 328 415
1117 4 2 1 1 375 385 305 532
1118 4 2 1 1 370 346 328 542
1119 4 2 1 1 184 386 183 419
1120 4 2 1 1 403 524 387 533
1121 4 2 1 1 170 571 180 54
1122 4 2 1 1 318 423 373 493
1123 4 2 1 1 556 564 246 34
1124 4 2 1 1 509 301 349 531
1125 4 2 1 1 265 278 247 398
1126 4 2 1 1 141 466 133 420
1127 4 2 1 1 257 223 263 521
1128 4 2 1 1 542 357 328 370
1129 4 2 1 1 380 333 397 416
1130 4 2 1 1 390 452 328 542
1131 4 2 1 1 371 467 345 480
1132 4 2 1 1 310 368 416 517
1133 4 2 1 1 304 369 540 372
1134 4 2 1 1 65 337 75 465
1135 4 2 1 1 371 479 323 480
1136 4 2 1 1 446 353 527 319
1137 4 2 1 1 320 408 329 440
1138 4 2 1 1 556 564 326 246
1139 4 2 1 1 413 441 302 525
1140 4 2 1 1 492 203 296 393
1141 4 2 1 1 251 201 375 513
1142 4 2 1 1 403 317 404 407
1143 4 2 1 1 401 415 383 471
1144 4 2 1 1 266 252 282 473
1145 4 2 1 1 369 300 427 437
1146 4 2 1 1 492 296 203 202
1147 4 2 1 1 33 32 568 89
1148 4 2 1 1 307 413 441 322
1149 4 2 1 1 363 510 499 511
1150 4 2 1 1 513 250 229 483
1151 4 2 1 1 543 153 572 539
1152 4 2 1 1 505 320 412 391
1153 4 2 1 1 299 411 425 435
1154 4 2 1 1 347 299 435 540
1155 4 2 1 1 564 503 530 166
1156 4 2 1 1 558 480 553 119
1157 4 2 1 1 314 409 383 471
1158 4 2 1 1 500 377 157 150
1159 4 2 1 1 277 408 237 412
1160 4 2 1 1 371 498 209 526
1161 4 2 1 1 180 192 174 443
1162 4 2 1 1 345 563 481 128
1163 4 2 1 1 358 439 375 469
1164 4 2 1 1 196 330 270 430
1165 4 2 1 1 372 477 472 319
1166 4 2 1 1 563 12 11 128
1167 4 2 1 1 550 276 492 363
1168 4 2 1 1 374 411 299 461
1169 4 2 1 1 498 525 371 528
1170 4 2 1 1 291 438 326 264
1171 4 2 1 1 240 355 505 385
1172 4 2 1 1 370 440 320 461
1173 4 2 1 1 241 326 412 530
1174 4 2 1 1 161 155 431 536
1175 4 2 1 1 106 486 311 495
1176 4 2 1 1 299 374 364 418
1177 4 2 1 1 385 438 391 326
1178 4 2 1 1 563 138 12 128
1179 4 2 1 1 377 347 376 500
1180 4 2 1 1 151 143 156 488
1181 4 2 1 1 305 357 439 532
1182 4 2 1 1 348 315 403 484
1183 4 2 1 1 87 317 494 423
1184 4 2 1 1 253 223 458 519
1185 4 2 1 1 133 466 141 115
1186 4 2 1 1 334 404 407 524
1187 4 2 1 1 335 324 527 428
1188 4 2 1 1 237 412 408 518
1189 4 2 1 1 475 535 427 536
1190 4 2 1 1 357 370 439 532
1191 4 2 1 1 374 391 320 532
1192 4 2 1 1 563 578 84 12
1193 4 2 1 1 307 525 406 441
1194 4 2 1 1 245 289 378 434
1195 4 2 1 1 76 368 343 468
1196 4 2 1 1 184 183 179 419
1197 4 2 1 1 563 11 481 128
1198 4 2 1 1 472 535 536 427
1199 4 2 1 1 386 419 310 520
1200 4 2 1 1 335 356 428 501
1201 4 2 1 1 372 319 427 388
1202 4 2 1 1 277 230 237 408
1203 4 2 1 1 75 212 561 552
1204 4 2 1 1 354 364 361 489
1205 4 2 1 1 384 436 325 523
1206 4 2 1 1 280 562 50 485
1207 4 2 1 1 496 343 373 389
1208 4 2 1 1 562 280 51 276
1209 4 2 1 1 258 459 221 501
1210 4 2 1 1 361 426 354 490
1211 4 2 1 1 505 532 391 385
1212 4 2 1 1 307 406 525 367
1213 4 2 1 1 210 399 491 498
1214 4 2 1 1 310 423 520 517
1215 4 2 1 1 500 157 377 431
1216 4 2 1 1 366 456 523 531
1217 4 2 1 1 242 417 239 430
1218 4 2 1 1 203 562 363 276
1219 4 2 1 1 323 467 371 480
1220 4 2 1 1 114 486 106 495
1221 4 2 1 1 536 156 161 146
1222 4 2 1 1 217 216 215 538
1223 4 2 1 1 422 450 380 517
1224 4 2 1 1 361 354 489 490
1225 4 2 1 1 205 250 251 384
1226 4 2 1 1 326 411 391 412
1227 4 2 1 1 520 517 368 310
1228 4 2 1 1 14 15 269 561
1229 4 2 1 1 403 404 317 455
1230 4 2 1 1 431 488 161 536
1231 4 2 1 1 563 468 84 345
1232 4 2 1 1 350 426 313 453
1233 4 2 1 1 241 412 330 530
1234 4 2 1 1 384 324 483 513
1235 4 2 1 1 371 209 498 465
1236 4 2 1 1 213 421 279 538
1237 4 2 1 1 308 389 388 336
1238 4 2 1 1 337 400 399 498
1239 4 2 1 1 213 279 215 538
1240 4 2 1 1 293 392 467 367
1241 4 2 1 1 374 320 370 532
1242 4 2 1 1 361 487 426 490
1243 4 2 1 1 456 463 325 476
1244 4 2 1 1 558 281 197 345
1245 4 2 1 1 369 395 315 512
1246 4 2 1 1 344 482 309 414
1247 4 2 1 1 338 421 388 434
1248 4 2 1 1 256 208 360 534
1249 4 2 1 1 68 67 373 327
1250 4 2 1 1 339 406 525 441
1251 4 2 1 1 553 480 129 119
1252 4 2 1 1 563 468 74 84
1253 4 2 1 1 335 457 446 342
1254 4 2 1 1 238 232 257 518
1255 4 2 1 1 146 548 417 156
1256 4 2 1 1 269 561 15 515
1257 4 2 1 1 138 558 119 345
1258 4 2 1 1 561 269 14 212
1259 4 2 1 1 563 468 345 481
1260 4 2 1 1 358 366 523 531
1261 4 2 1 1 329 458 408 518
1262 4 2 1 1 318 395 373 450
1263 4 2 1 1 400 506 308 528
1264 4 2 1 1 160 167 159 494
1265 4 2 1 1 291 438 264 193
1266 4 2 1 1 144 167 327 494
1267 4 2 1 1 269 212 561 515
1268 4 2 1 1 174 486 443 516
1269 4 2 1 1 331 535 338 475
1270 4 2 1 1 117 511 445 121
1271 4 2 1 1 545 44 169 45
1272 4 2 1 1 173 41 546 443
1273 4 2 1 1 337 399 421 515
1274 4 2 1 1 322 507 382 301
1275 4 2 1 1 201 375 271 385
1276 4 2 1 1 380 422 416 396
1277 4 2 1 1 332 350 487 507
1278 4 2 1 1 336 308 400 506
1279 4 2 1 1 299 405 315 348
1280 4 2 1 1 373 69 68 423
1281 4 2 1 1 271 375 201 513
1282 4 2 1 1 121 432 511 445
1283 4 2 1 1 362 410 448 333
1284 4 2 1 1 369 395 300 437
1285 4 2 1 1 471 507 448 332
1286 4 2 1 1 149 150 377 500
1287 4 2 1 1 400 504 399 498
1288 4 2 1 1 315 369 347 377
1289 4 2 1 1 60 241 59 530
1290 4 2 1 1 366 301 509 531
1291 4 2 1 1 383 405 315 512
1292 4 2 1 1 570 165 508 579
1293 4 2 1 1 323 414 413 474
1294 4 2 1 1 95 443 447 462
1295 4 2 1 1 570 165 579 56
1296 4 2 1 1 94 365 340 447
1297 4 2 1 1 317 403 478 407
1298 4 2 1 1 311 362 334 420
1299 4 2 1 1 381 321 375 469
1300 4 2 1 1 448 410 362 309
1301 4 2 1 1 74 64 76 468
1302 4 2 1 1 529 323 392 474
1303 4 2 1 1 373 389 343 450
1304 4 2 1 1 310 423 517 407
1305 4 2 1 1 215 214 213 538
1306 4 2 1 1 60 246 241 530
1307 4 2 1 1 348 401 383 484
1308 4 2 1 1 265 406 267 522
1309 4 2 1 1 290 381 200 502
1310 4 2 1 1 296 436 393 463
1311 4 2 1 1 130 344 480 482
1312 4 2 1 1 310 423 407 386
1313 4 2 1 1 406 307 441 457
1314 4 2 1 1 235 505 412 326
1315 4 2 1 1 334 310 419 410
1316 4 2 1 1 15 16 194 560
1317 4 2 1 1 513 250 483 384
1318 4 2 1 1 379 380 318 409
1319 4 2 1 1 241 287 196 330
1320 4 2 1 1 513 229 250 249
1321 4 2 1 1 387 311 486 495
1322 4 2 1 1 487 489 301 490
1323 4 2 1 1 293 367 467 526
1324 4 2 1 1 11 64 481 497
1325 4 2 1 1 348 484 403 533
1326 4 2 1 1 559 82 419 565
1327 4 2 1 1 300 389 388 475
1328 4 2 1 1 78 82 72 419
1329 4 2 1 1 66 549 85 331
1330 4 2 1 1 560 194 15 515
1331 4 2 1 1 265 501 259 406
1332 4 2 1 1 212 515 213 399
1333 4 2 1 1 320 329 411 461
1334 4 2 1 1 391 411 326 418
1335 4 2 1 1 295 491 522 526
1336 4 2 1 1 93 340 503 37
1337 4 2 1 1 303 477 372 319
1338 4 2 1 1 334 362 311 524
1339 4 2 1 1 390 342 352 542
1340 4 2 1 1 58 196 239 488
1341 4 2 1 1 205 436 296 463
1342 4 2 1 1 120 363 499 511
1343 4 2 1 1 365 381 110 438
1344 4 2 1 1 243 429 417 242
1345 4 2 1 1 157 155 144 327
1346 4 2 1 1 319 477 472 521
1347 4 2 1 1 180 170 192 455
1348 4 2 1 1 294 207 293 467
1349 4 2 1 1 253 351 222 519
1350 4 2 1 1 412 330 329 518
1351 4 2 1 1 273 194 16 560
1352 4 2 1 1 322 397 507 448
1353 4 2 1 1 355 454 233 505
1354 4 2 1 1 265 501 406 398
1355 4 2 1 1 571 142 455 158
1356 4 2 1 1 298 403 478 484
1357 4 2 1 1 258 459 501 398
1358 4 2 1 1 455 182 185 539
1359 4 2 1 1 350 313 432 453
1360 4 2 1 1 367 323 467 525
1361 4 2 1 1 303 342 390 542
1362 4 2 1 1 400 422 336 506
1363 4 2 1 1 309 362 420 410
1364 4 2 1 1 311 486 106 541
1365 4 2 1 1 353 521 477 319
1366 4 2 1 1 416 422 368 442
1367 4 2 1 1 325 358 523 531
1368 4 2 1 1 194 560 338 515
1369 4 2 1 1 313 350 432 510
1370 4 2 1 1 267 265 259 406
1371 4 2 1 1 316 403 377 455
1372 4 2 1 1 305 381 469 365
1373 4 2 1 1 320 391 411 412
1374 4 2 1 1 179 183 190 419
1375 4 2 1 1 393 436 321 523
1376 4 2 1 1 283 521 257 263
1377 4 2 1 1 546 188 42 173
1378 4 2 1 1 336 379 464 396
1379 4 2 1 1 117 511 121 120
1380 4 2 1 1 302 416 396 444
1381 4 2 1 1 114 95 443 447
1382 4 2 1 1 330 435 304 488
1383 4 2 1 1 363 449 107 499
1384 4 2 1 1 372 427 319 472
1385 4 2 1 1 286 205 251 436
1386 4 2 1 1 70 337 80 343
1387 4 2 1 1 427 388 319 535
1388 4 2 1 1 343 422 368 517
1389 4 2 1 1 420 453 311 362
1390 4 2 1 1 363 393 510 511
1391 4 2 1 1 75 552 465 212
1392 4 2 1 1 455 182 539 543
1393 4 2 1 1 356 473 424 476
1394 4 2 1 1 240 355 385 271
1395 4 2 1 1 373 69 423 343
1396 4 2 1 1 320 408 412 329
1397 4 2 1 1 360 255 424 261
1398 4 2 1 1 273 194 560 338
1399 4 2 1 1 472 536 535 417
1400 4 2 1 1 74 11 64 481
1401 4 2 1 1 403 404 387 524
1402 4 2 1 1 531 537 352 433
1403 4 2 1 1 387 443 316 447
1404 4 2 1 1 93 340 37 90
1405 4 2 1 1 387 447 403 533
1406 4 2 1 1 35 36 152 462
1407 4 2 1 1 344 414 323 482
1408 4 2 1 1 311 362 402 524
1409 4 2 1 1 462 152 35 162
1410 4 2 1 1 62 389 515 70
1411 4 2 1 1 303 446 342 527
1412 4 2 1 1 377 376 347 315
1413 4 2 1 1 325 476 433 531
1414 4 2 1 1 10 9 559 126
1415 4 2 1 1 429 430 284 518
1416 4 2 1 1 360 463 456 476
1417 4 2 1 1 185 404 192 455
1418 4 2 1 1 451 483 324 513
1419 4 2 1 1 284 242 239 430
1420 4 2 1 1 68 493 423 494
1421 4 2 1 1 126 559 10 497
1422 4 2 1 1 159 160 494 539
1423 4 2 1 1 350 509 366 301
1424 4 2 1 1 559 9 136 126
1425 4 2 1 1 97 365 94 394
1426 4 2 1 1 265 501 398 258
1427 4 2 1 1 378 216 218 217
1428 4 2 1 1 431 437 327 377
1429 4 2 1 1 302 400 442 528
1430 4 2 1 1 402 524 298 533
1431 4 2 1 1 68 423 87 494
1432 4 2 1 1 335 446 459 527
1433 4 2 1 1 364 418 365 460
1434 4 2 1 1 174 175 486 516
1435 4 2 1 1 288 204 393 534
1436 4 2 1 1 212 213 515 269
1437 4 2 1 1 412 329 408 518
1438 4 2 1 1 265 501 258 259
1439 4 2 1 1 352 452 390 542
1440 4 2 1 1 318 379 395 450
1441 4 2 1 1 318 380 379 450
1442 4 2 1 1 302 422 400 506
1443 4 2 1 1 559 126 419 497
1444 4 2 1 1 255 424 282 473
1445 4 2 1 1 516 541 175 486
1446 4 2 1 1 145 147 148 340
1447 4 2 1 1 496 343 389 70
1448 4 2 1 1 302 525 441 528
1449 4 2 1 1 388 338 434 535
1450 4 2 1 1 316 404 403 455
1451 4 2 1 1 347 369 431 377
1452 4 2 1 1 559 126 136 419
1453 4 2 1 1 503 530 166 147
1454 4 2 1 1 100 568 556 438
1455 4 2 1 1 362 402 332 453
1456 4 2 1 1 353 459 446 527
1457 4 2 1 1 558 197 47 48
1458 4 2 1 1 194 338 421 515
1459 4 2 1 1 401 402 298 533
1460 4 2 1 1 350 507 332 448
1461 4 2 1 1 174 443 404 516
1462 4 2 1 1 559 82 565 9
1463 4 2 1 1 103 313 499 449
1464 4 2 1 1 332 362 453 448
1465 4 2 1 1 121 432 445 309
1466 4 2 1 1 472 518 329 430
1467 4 2 1 1 370 461 374 328
1468 4 2 1 1 558 281 47 197
1469 4 2 1 1 127 485 363 511
1470 4 2 1 1 319 388 434 535
1471 4 2 1 1 456 509 349 531
1472 4 2 1 1 393 436 296 492
1473 4 2 1 1 337 442 400 498
1474 4 2 1 1 197 553 467 294
1475 4 2 1 1 400 498 442 528
1476 4 2 1 1 362 310 410 333
1477 4 2 1 1 442 498 371 528
1478 4 2 1 1 147 37 503 340
1479 4 2 1 1 226 221 224 428
1480 4 2 1 1 362 407 298 524
1481 4 2 1 1 281 209 197 345
1482 4 2 1 1 350 332 426 453
1483 4 2 1 1 491 504 399 538
1484 4 2 1 1 427 304 372 369
1485 4 2 1 1 335 324 307 342
1486 4 2 1 1 529 323 474 414
1487 4 2 1 1 171 41 173 443
1488 4 2 1 1 14 75 561 552
1489 4 2 1 1 73 560 338 567
1490 4 2 1 1 369 304 431 536
1491 4 2 1 1 271 248 355 513
1492 4 2 1 1 558 578 138 47
1493 4 2 1 1 368 480 345 481
1494 4 2 1 1 95 340 462 447
1495 4 2 1 1 513 250 384 251
1496 4 2 1 1 125 566 445 117
1497 4 2 1 1 373 69 343 67
1498 4 2 1 1 387 403 316 404
1499 4 2 1 1 19 327 63 494
1500 4 2 1 1 197 553 294 48
1501 4 2 1 1 336 389 400 308
1502 4 2 1 1 293 367 526 268
1503 4 2 1 1 197 558 345 467
1504 4 2 1 1 425 435 330 488
1505 4 2 1 1 437 475 427 536
1506 4 2 1 1 95 340 447 94
1507 4 2 1 1 362 298 402 524
1508 4 2 1 1 427 304 369 536
1509 4 2 1 1 551 72 569 386
1510 4 2 1 1 350 414 432 509
1511 4 2 1 1 367 392 323 474
1512 4 2 1 1 51 127 363 139
1513 4 2 1 1 238 283 284 518
1514 4 2 1 1 244 289 434 470
1515 4 2 1 1 93 340 90 94
1516 4 2 1 1 387 404 316 443
1517 4 2 1 1 427 369 437 536
1518 4 2 1 1 395 318 478 512
1519 4 2 1 1 174 404 176 516
1520 4 2 1 1 413 479 323 525
1521 4 2 1 1 547 330 143 530
1522 4 2 1 1 148 147 164 425
1523 4 2 1 1 288 393 485 534
1524 4 2 1 1 344 444 416 479
1525 4 2 1 1 403 407 404 524
1526 4 2 1 1 406 307 335 501
1527 4 2 1 1 287 270 196 330
1528 4 2 1 1 557 177 40 39
1529 4 2 1 1 313 449 490 510
1530 4 2 1 1 306 402 401 533
1531 4 2 1 1 105 566 27 91
1532 4 2 1 1 375 439 305 469
1533 4 2 1 1 333 397 416 448
1534 4 2 1 1 306 447 402 533
1535 4 2 1 1 92 107 363 514
1536 4 2 1 1 350 453 432 414
1537 4 2 1 1 170 571 54 543
1538 4 2 1 1 488 417 548 156
1539 4 2 1 1 175 541 466 181
1540 4 2 1 1 164 330 530 143
1541 4 2 1 1 253 223 257 458
1542 4 2 1 1 341 372 405 300
1543 4 2 1 1 551 72 386 61
1544 4 2 1 1 221 428 226 501
1545 4 2 1 1 248 233 271 355
1546 4 2 1 1 375 436 321 502
1547 4 2 1 1 377 478 395 493
1548 4 2 1 1 299 328 405 348
1549 4 2 1 1 455 153 543 539
1550 4 2 1 1 174 171 443 486
1551 4 2 1 1 543 153 142 53
1552 4 2 1 1 310 333 407 517
1553 4 2 1 1 310 423 386 520
1554 4 2 1 1 218 262 223 470
1555 4 2 1 1 168 149 150 377
1556 4 2 1 1 111 101 29 363
1557 4 2 1 1 530 418 411 425
1558 4 2 1 1 115 44 132 545
1559 4 2 1 1 545 179 169 44
1560 4 2 1 1 124 130 482 309
1561 4 2 1 1 557 177 39 187
1562 4 2 1 1 95 104 443 462
1563 4 2 1 1 393 456 312 534
1564 4 2 1 1 263 470 429 521
1565 4 2 1 1 304 430 330 488
1566 4 2 1 1 371 479 302 525
1567 4 2 1 1 40 177 557 486
1568 4 2 1 1 105 566 91 445
1569 4 2 1 1 332 415 401 471
1570 4 2 1 1 344 323 479 480
1571 4 2 1 1 177 557 486 541
1572 4 2 1 1 297 282 255 424
1573 4 2 1 1 216 214 215 538
1574 4 2 1 1 469 364 354 489
1575 4 2 1 1 474 509 312 414
1576 4 2 1 1 66 496 327 331
1577 4 2 1 1 339 525 498 528
1578 4 2 1 1 131 420 466 141
1579 4 2 1 1 340 365 94 503
1580 4 2 1 1 177 187 557 541
1581 4 2 1 1 76 343 80 468
1582 4 2 1 1 335 324 342 527
1583 4 2 1 1 125 122 445 541
1584 4 2 1 1 120 139 29 363
1585 4 2 1 1 410 497 368 310
1586 4 2 1 1 329 435 411 461
1587 4 2 1 1 488 239 417 430
1588 4 2 1 1 232 230 227 408
1589 4 2 1 1 62 389 70 496
1590 4 2 1 1 402 426 332 453
1591 4 2 1 1 547 241 330 530
1592 4 2 1 1 547 143 330 488
1593 4 2 1 1 335 356 501 307
1594 4 2 1 1 73 560 567 16
1595 4 2 1 1 263 244 429 470
1596 4 2 1 1 298 407 403 524
1597 4 2 1 1 237 330 287 412
1598 4 2 1 1 251 249 201 513
1599 4 2 1 1 219 398 216 459
1600 4 2 1 1 351 428 519 527
1601 4 2 1 1 400 504 498 528
1602 4 2 1 1 316 447 443 462
1603 4 2 1 1 122 309 445 420
1604 4 2 1 1 34 33 264 556
1605 4 2 1 1 41 88 104 443
1606 4 2 1 1 94 96 394 447
1607 4 2 1 1 115 45 545 466
1608 4 2 1 1 175 541 181 177
1609 4 2 1 1 105 311 106 541
1610 4 2 1 1 556 264 34 246
1611 4 2 1 1 264 568 193 438
1612 4 2 1 1 505 532 385 355
1613 4 2 1 1 351 324 428 527
1614 4 2 1 1 66 496 331 83
1615 4 2 1 1 568 89 381 438
1616 4 2 1 1 400 302 506 528
1617 4 2 1 1 155 146 165 331
1618 4 2 1 1 449 97 365 381
1619 4 2 1 1 216 398 219 247
1620 4 2 1 1 498 504 339 528
1621 4 2 1 1 168 377 160 455
1622 4 2 1 1 513 250 251 249
1623 4 2 1 1 221 222 224 428
1624 4 2 1 1 65 80 337 468
1625 4 2 1 1 460 425 299 418
1626 4 2 1 1 390 346 303 542
1627 4 2 1 1 285 245 194 434
1628 4 2 1 1 385 290 201 375
1629 4 2 1 1 441 506 302 528
1630 4 2 1 1 264 568 438 556
1631 4 2 1 1 320 412 411 329
1632 4 2 1 1 134 130 480 482
1633 4 2 1 1 504 446 457 308
1634 4 2 1 1 398 457 339 504
1635 4 2 1 1 413 302 479 525
1636 4 2 1 1 326 438 418 503
1637 4 2 1 1 298 478 403 407
1638 4 2 1 1 435 329 304 540
1639 4 2 1 1 229 451 248 513
1640 4 2 1 1 573 189 539 178
1641 4 2 1 1 337 422 400 442
1642 4 2 1 1 253 232 227 458
1643 4 2 1 1 264 246 556 326
1644 4 2 1 1 243 429 242 244
1645 4 2 1 1 335 356 307 324
1646 4 2 1 1 112 93 100 503
1647 4 2 1 1 253 220 223 519
1648 4 2 1 1 366 509 456 531
1649 4 2 1 1 229 483 451 513
1650 4 2 1 1 264 556 438 326
1651 4 2 1 1 204 296 393 463
1652 4 2 1 1 37 38 147 503
1653 4 2 1 1 365 110 381 97
1654 4 2 1 1 256 360 463 534
1655 4 2 1 1 295 498 491 526
1656 4 2 1 1 131 420 141 122
1657 4 2 1 1 414 309 432 529
1658 4 2 1 1 503 166 38 147
1659 4 2 1 1 363 485 393 511
1660 4 2 1 1 546 41 104 443
1661 4 2 1 1 299 374 461 328
1662 4 2 1 1 315 395 369 377
1663 4 2 1 1 75 337 70 515
1664 4 2 1 1 64 86 76 497
1665 4 2 1 1 128 345 480 481
1666 4 2 1 1 212 498 337 399
1667 4 2 1 1 144 155 20 327
1668 4 2 1 1 549 331 66 327
1669 4 2 1 1 529 323 414 482
1670 4 2 1 1 315 395 478 512
1671 4 2 1 1 423 517 343 520
1672 4 2 1 1 248 225 228 451
1673 4 2 1 1 317 423 386 407
1674 4 2 1 1 299 411 435 461
1675 4 2 1 1 334 516 404 524
1676 4 2 1 1 385 201 290 292
1677 4 2 1 1 174 176 175 516
1678 4 2 1 1 443 486 387 516
1679 4 2 1 1 442 480 371 345
1680 4 2 1 1 268 522 367 526
1681 4 2 1 1 209 498 295 526
1682 4 2 1 1 388 389 338 475
1683 4 2 1 1 503 564 112 38
1684 4 2 1 1 196 270 239 430
1685 4 2 1 1 387 402 495 447
1686 4 2 1 1 279 213 269 515
1687 4 2 1 1 175 541 177 486
1688 4 2 1 1 159 19 18 555
1689 4 2 1 1 240 355 271 233
1690 4 2 1 1 368 442 337 468
1691 4 2 1 1 158 152 149 462
1692 4 2 1 1 174 175 171 486
1693 4 2 1 1 305 438 381 365
1694 4 2 1 1 417 304 472 536
1695 4 2 1 1 555 81 580 539
1696 4 2 1 1 558 480 119 345
1697 4 2 1 1 566 91 445 499
1698 4 2 1 1 279 194 421 515
1699 4 2 1 1 221 222 428 519
1700 4 2 1 1 150 157 167 377
1701 4 2 1 1 311 402 387 524
1702 4 2 1 1 322 507 414 448
1703 4 2 1 1 343 450 422 517
1704 4 2 1 1 554 187 181 541
1705 4 2 1 1 159 18 163 555
1706 4 2 1 1 555 159 19 494
1707 4 2 1 1 421 515 213 279
1708 4 2 1 1 321 449 381 514
1709 4 2 1 1 474 509 414 349
1710 4 2 1 1 68 87 77 494
1711 4 2 1 1 114 443 88 486
1712 4 2 1 1 292 201 271 385
1713 4 2 1 1 123 410 130 309
1714 4 2 1 1 159 494 555 539
1715 4 2 1 1 381 449 97 514
1716 4 2 1 1 244 262 289 470
1717 4 2 1 1 159 555 163 539
1718 4 2 1 1 371 323 479 525
1719 4 2 1 1 467 367 525 526
1720 4 2 1 1 231 412 235 505
1721 4 2 1 1 28 117 120 499
1722 4 2 1 1 140 410 133 419
1723 4 2 1 1 214 247 278 398
1724 4 2 1 1 365 438 110 503
1725 4 2 1 1 110 438 100 503
1726 4 2 1 1 185 192 170 455
1727 4 2 1 1 275 209 281 465
1728 4 2 1 1 181 554 45 46
1729 4 2 1 1 311 387 486 516
1730 4 2 1 1 472 477 329 521
1731 4 2 1 1 66 496 67 327
1732 4 2 1 1 81 77 573 539
1733 4 2 1 1 246 326 241 530
1734 4 2 1 1 226 282 259 501
1735 4 2 1 1 85 73 66 331
1736 4 2 1 1 305 385 391 532
1737 4 2 1 1 277 237 287 412
1738 4 2 1 1 103 313 449 394
1739 4 2 1 1 376 425 148 500
1740 4 2 1 1 550 200 514 492
1741 4 2 1 1 72 61 79 386
1742 4 2 1 1 350 332 453 448
1743 4 2 1 1 554 187 46 181
1744 4 2 1 1 125 566 117 27
1745 4 2 1 1 60 166 564 530
1746 4 2 1 1 554 181 45 466
1747 4 2 1 1 36 340 462 90
1748 4 2 1 1 214 398 278 491
1749 4 2 1 1 555 81 539 71
1750 4 2 1 1 554 181 466 541
1751 4 2 1 1 348 403 447 533
1752 4 2 1 1 359 372 388 319
1753 4 2 1 1 48 49 553 206
1754 4 2 1 1 311 420 334 466
1755 4 2 1 1 203 198 276 492
1756 4 2 1 1 256 272 208 534
1757 4 2 1 1 427 304 536 472
1758 4 2 1 1 339 525 522 526
1759 4 2 1 1 493 437 373 395
1760 4 2 1 1 202 296 436 492
1761 4 2 1 1 544 574 109 26
1762 4 2 1 1 398 339 491 504
1763 4 2 1 1 350 426 487 490
1764 4 2 1 1 317 493 423 407
1765 4 2 1 1 427 475 300 388
1766 4 2 1 1 294 48 553 206
1767 4 2 1 1 369 405 347 540
1768 4 2 1 1 549 165 155 21
1769 4 2 1 1 261 256 208 360
1770 4 2 1 1 404 443 387 516
1771 4 2 1 1 58 143 547 488
1772 4 2 1 1 100 568 438 89
1773 4 2 1 1 95 104 114 443
1774 4 2 1 1 414 309 529 482
1775 4 2 1 1 371 467 323 525
1776 4 2 1 1 206 49 553 392
1777 4 2 1 1 71 494 77 539
1778 4 2 1 1 218 220 219 459
1779 4 2 1 1 563 84 74 12
1780 4 2 1 1 324 342 352 307
1781 4 2 1 1 66 73 83 331
1782 4 2 1 1 28 91 566 499
1783 4 2 1 1 294 206 553 467
1784 4 2 1 1 555 494 71 539
1785 4 2 1 1 131 135 554 541
1786 4 2 1 1 268 261 208 367
1787 4 2 1 1 318 373 395 493
1788 4 2 1 1 297 255 261 424
1789 4 2 1 1 430 329 330 518
1790 4 2 1 1 295 491 278 522
1791 4 2 1 1 331 437 475 496
1792 4 2 1 1 206 195 49 392
1793 4 2 1 1 388 475 338 535
1794 4 2 1 1 496 343 70 67
1795 4 2 1 1 128 345 119 480
1796 4 2 1 1 181 169 45 466
1797 4 2 1 1 418 438 365 503
1798 4 2 1 1 302 400 422 442
1799 4 2 1 1 271 240 292 385
1800 4 2 1 1 493 437 395 377
1801 4 2 1 1 352 342 324 542
1802 4 2 1 1 131 45 115 466
1803 4 2 1 1 156 58 548 488
1804 4 2 1 1 156 161 151 488
1805 4 2 1 1 531 537 358 301
1806 4 2 1 1 360 255 261 256
1807 4 2 1 1 283 521 263 429
1808 4 2 1 1 134 480 129 482
1809 4 2 1 1 41 88 443 486
1810 4 2 1 1 434 338 508 535
1811 4 2 1 1 206 392 553 467
1812 4 2 1 1 164 330 143 488
1813 4 2 1 1 339 498 491 504
1814 4 2 1 1 193 381 32 290
1815 4 2 1 1 293 367 268 208
1816 4 2 1 1 330 425 411 435
1817 4 2 1 1 124 482 529 309
1818 4 2 1 1 527 542 342 303
1819 4 2 1 1 568 32 381 89
1820 4 2 1 1 421 213 515 399
1821 4 2 1 1 117 511 120 499
1822 4 2 1 1 195 534 485 392
1823 4 2 1 1 144 167 157 327
1824 4 2 1 1 499 29 101 363
1825 4 2 1 1 81 71 77 539
1826 4 2 1 1 252 205 254 473
1827 4 2 1 1 241 326 235 412
1828 4 2 1 1 69 423 343 520
1829 4 2 1 1 442 480 345 368
1830 4 2 1 1 505 532 355 320
1831 4 2 1 1 550 200 492 198
1832 4 2 1 1 195 50 49 485
1833 4 2 1 1 298 403 484 533
1834 4 2 1 1 319 429 470 521
1835 4 2 1 1 472 518 430 429
1836 4 2 1 1 95 98 104 462
1837 4 2 1 1 131 420 122 541
1838 4 2 1 1 66 20 549 327
1839 4 2 1 1 304 430 472 329
1840 4 2 1 1 302 371 442 479
1841 4 2 1 1 529 432 414 312
1842 4 2 1 1 279 194 245 421
1843 4 2 1 1 499 29 363 120
1844 4 2 1 1 49 392 195 485
1845 4 2 1 1 516 541 486 311
1846 4 2 1 1 186 176 185 404
1847 4 2 1 1 348 447 306 533
1848 4 2 1 1 316 403 387 447
1849 4 2 1 1 144 19 159 494
1850 4 2 1 1 561 212 75 515
1851 4 2 1 1 65 80 75 337
1852 4 2 1 1 109 557 574 541
1853 4 2 1 1 560 62 338 515
1854 4 2 1 1 150 160 168 377
1855 4 2 1 1 319 472 429 521
1856 4 2 1 1 143 59 547 530
1857 4 2 1 1 298 471 401 484
1858 4 2 1 1 547 241 530 59
1859 4 2 1 1 315 478 403 484
1860 4 2 1 1 63 19 20 327
1861 4 2 1 1 353 458 477 521
1862 4 2 1 1 329 477 458 521
1863 4 2 1 1 114 96 447 495
1864 4 2 1 1 315 395 377 478
1865 4 2 1 1 410 419 140 497
1866 4 2 1 1 144 159 167 494
1867 4 2 1 1 312 432 511 529
1868 4 2 1 1 339 498 525 526
1869 4 2 1 1 146 548 156 57
1870 4 2 1 1 291 438 193 385
1871 4 2 1 1 236 505 235 326
1872 4 2 1 1 131 554 466 541
1873 4 2 1 1 550 31 92 514
1874 4 2 1 1 61 87 79 386
1875 4 2 1 1 235 326 241 236
1876 4 2 1 1 573 61 386 77
1877 4 2 1 1 427 437 300 475
1878 4 2 1 1 68 494 63 327
1879 4 2 1 1 131 122 125 541
1880 4 2 1 1 411 425 330 530
1881 4 2 1 1 542 357 370 324
1882 4 2 1 1 484 409 471 383
1883 4 2 1 1 484 471 409 298
1884 4 2 1 1 205 296 254 463
1885 4 2 1 1 294 209 207 467
1886 4 2 1 1 14 13 552 275
1887 4 2 1 1 389 475 373 496
1888 4 2 1 1 75 552 14 65
1889 4 2 1 1 312 392 474 529
1890 4 2 1 1 552 578 84 465
1891 4 2 1 1 71 19 63 494
1892 4 2 1 1 552 212 14 275
1893 4 2 1 1 122 309 420 123
1894 4 2 1 1 546 173 42 41
1895 4 2 1 1 94 365 110 503
1896 4 2 1 1 176 191 175 516
1897 4 2 1 1 109 557 541 99
1898 4 2 1 1 32 102 514 381
1899 4 2 1 1 544 135 26 125
1900 4 2 1 1 230 232 237 408
1901 4 2 1 1 127 363 120 511
1902 4 2 1 1 75 70 337 80
1903 4 2 1 1 199 239 242 417
1904 4 2 1 1 229 225 248 451
1905 4 2 1 1 349 301 352 531
1906 4 2 1 1 406 501 335 398
1907 4 2 1 1 339 441 525 528
1908 4 2 1 1 275 552 212 465
1909 4 2 1 1 573 172 178 386
1910 4 2 1 1 339 457 441 528
1911 4 2 1 1 202 436 286 502
1912 4 2 1 1 313 499 449 510
1913 4 2 1 1 167 160 150 377
1914 4 2 1 1 312 432 509 510
1915 4 2 1 1 393 312 485 534
1916 4 2 1 1 168 142 158 455
1917 4 2 1 1 504 446 308 538
1918 4 2 1 1 299 364 328 348
1919 4 2 1 1 402 447 387 533
1920 4 2 1 1 151 347 425 488
1921 4 2 1 1 535 243 417 508
1922 4 2 1 1 96 394 447 495
1923 4 2 1 1 290 292 193 385
1924 4 2 1 1 123 420 410 309
1925 4 2 1 1 362 310 333 407
1926 4 2 1 1 493 437 377 327
1927 4 2 1 1 95 340 94 90
1928 4 2 1 1 329 540 346 372
1929 4 2 1 1 237 408 232 518
1930 4 2 1 1 78 559 419 497
1931 4 2 1 1 337 465 442 498
1932 4 2 1 1 553 49 129 392
1933 4 2 1 1 93 340 94 503
1934 4 2 1 1 95 340 90 462
1935 4 2 1 1 321 381 502 514
1936 4 2 1 1 551 72 61 23
1937 4 2 1 1 427 300 372 388
1938 4 2 1 1 113 394 96 495
1939 4 2 1 1 123 133 410 420
1940 4 2 1 1 202 200 198 492
1941 4 2 1 1 241 326 246 236
1942 4 2 1 1 131 554 45 466
1943 4 2 1 1 71 555 19 494
1944 4 2 1 1 240 355 233 505
1945 4 2 1 1 503 38 112 93
1946 4 2 1 1 350 453 414 448
1947 4 2 1 1 180 174 173 443
1948 4 2 1 1 287 241 235 412
1949 4 2 1 1 302 444 413 479
1950 4 2 1 1 344 323 480 482
1951 4 2 1 1 103 449 97 394
1952 4 2 1 1 89 110 381 438
1953 4 2 1 1 551 72 23 569
1954 4 2 1 1 334 407 362 524
1955 4 2 1 1 331 535 475 536
1956 4 2 1 1 128 138 119 345
1957 4 2 1 1 534 367 474 392
1958 4 2 1 1 342 308 464 506
1959 4 2 1 1 176 192 185 404
1960 4 2 1 1 309 453 362 448
1961 4 2 1 1 455 153 142 543
1962 4 2 1 1 21 66 549 85
1963 4 2 1 1 563 578 345 84
1964 4 2 1 1 122 309 123 121
1965 4 2 1 1 253 257 232 458
1966 4 2 1 1 557 99 486 541
1967 4 2 1 1 362 334 420 410
1968 4 2 1 1 347 425 376 500
1969 4 2 1 1 203 562 276 280
1970 4 2 1 1 191 466 175 516
1971 4 2 1 1 256 463 204 534
1972 4 2 1 1 335 342 446 527
1973 4 2 1 1 75 552 65 465
1974 4 2 1 1 493 437 327 373
1975 4 2 1 1 321 436 393 492
1976 4 2 1 1 334 311 516 524
1977 4 2 1 1 120 127 139 363
1978 4 2 1 1 317 478 493 407
1979 4 2 1 1 151 347 488 431
1980 4 2 1 1 67 70 69 343
1981 4 2 1 1 100 568 89 33
1982 4 2 1 1 350 414 507 448
1983 4 2 1 1 166 154 147 530
1984 4 2 1 1 492 502 200 514
1985 4 2 1 1 184 186 183 386
1986 4 2 1 1 553 119 129 48
1987 4 2 1 1 146 548 57 570
1988 4 2 1 1 210 399 213 491
1989 4 2 1 1 242 284 283 429
1990 4 2 1 1 102 32 89 381
1991 4 2 1 1 235 231 277 412
1992 4 2 1 1 62 83 73 338
1993 4 2 1 1 464 308 359 336
1994 4 2 1 1 233 228 231 454
1995 4 2 1 1 216 247 214 398
1996 4 2 1 1 310 419 410 497
1997 4 2 1 1 334 311 466 516
1998 4 2 1 1 228 230 231 454
1999 4 2 1 1 346 540 405 372
2000 4 2 1 1 309 432 453 414
2001 4 2 1 1 442 465 337 468
2002 4 2 1 1 291 505 326 385
2003 4 2 1 1 103 97 449 107
2004 4 2 1 1 464 308 336 506
2005 4 2 1 1 393 463 456 534
2006 4 2 1 1 183 186 172 386
2007 4 2 1 1 134 128 119 480
2008 4 2 1 1 40 557 99 486
2009 4 2 1 1 439 370 355 532
2010 4 2 1 1 449 499 363 510
2011 4 2 1 1 516 541 311 466
2012 4 2 1 1 114 104 88 443
2013 4 2 1 1 255 282 252 473
2014 4 2 1 1 181 187 177 541
2015 4 2 1 1 211 265 267 522
2016 4 2 1 1 427 475 388 535
2017 4 2 1 1 211 278 265 522
2018 4 2 1 1 30 92 363 550
2019 4 2 1 1 107 97 449 514
2020 4 2 1 1 101 363 107 499
2021 4 2 1 1 101 92 107 363
2022 4 2 1 1 362 310 407 334
2023 4 2 1 1 49 116 129 392
2024 4 2 1 1 559 82 9 78
2025 4 2 1 1 99 106 486 541
2026 4 2 1 1 162 571 55 575
2027 4 2 1 1 527 542 303 440
2028 4 2 1 1 442 465 371 498
2029 4 2 1 1 516 541 466 175
2030 4 2 1 1 552 578 13 84
2031 4 2 1 1 136 126 132 419
2032 4 2 1 1 128 480 130 481
2033 4 2 1 1 573 189 178 25
2034 4 2 1 1 195 534 392 272
2035 4 2 1 1 365 418 340 460
2036 4 2 1 1 455 153 160 142
2037 4 2 1 1 23 24 551 172
2038 4 2 1 1 114 106 96 495
2039 4 2 1 1 271 201 249 513
2040 4 2 1 1 543 153 53 572
2041 4 2 1 1 176 174 192 404
2042 4 2 1 1 62 389 496 338
2043 4 2 1 1 40 88 41 486
2044 4 2 1 1 373 69 67 68
2045 4 2 1 1 387 524 402 533
2046 4 2 1 1 443 571 188 180
2047 4 2 1 1 305 365 469 364
2048 4 2 1 1 40 99 88 486
2049 4 2 1 1 534 367 392 208
2050 4 2 1 1 110 94 97 365
2051 4 2 1 1 212 498 399 210
2052 4 2 1 1 231 233 454 505
2053 4 2 1 1 162 571 158 55
2054 4 2 1 1 164 330 488 425
2055 4 2 1 1 60 166 530 154
2056 4 2 1 1 306 348 460 447
2057 4 2 1 1 177 40 171 486
2058 4 2 1 1 153 163 572 539
2059 4 2 1 1 114 88 106 486
2060 4 2 1 1 535 243 508 434
2061 4 2 1 1 401 484 348 533
2062 4 2 1 1 469 365 354 364
2063 4 2 1 1 437 496 331 327
2064 4 2 1 1 201 375 290 502
2065 4 2 1 1 295 210 491 498
2066 4 2 1 1 371 442 345 465
2067 4 2 1 1 183 23 551 172
2068 4 2 1 1 311 387 402 495
2069 4 2 1 1 203 288 204 393
2070 4 2 1 1 272 392 208 534
2071 4 2 1 1 199 417 243 508
2072 4 2 1 1 213 210 212 399
2073 4 2 1 1 28 101 91 499
2074 4 2 1 1 572 153 52 163
2075 4 2 1 1 573 61 77 24
2076 4 2 1 1 121 432 309 529
2077 4 2 1 1 162 571 462 158
2078 4 2 1 1 109 557 99 39
2079 4 2 1 1 371 467 525 526
2080 4 2 1 1 162 571 575 462
2081 4 2 1 1 111 92 101 363
2082 4 2 1 1 464 506 336 396
2083 4 2 1 1 288 393 203 485
2084 4 2 1 1 553 558 119 48
2085 4 2 1 1 350 487 507 301
2086 4 2 1 1 573 25 77 81
2087 4 2 1 1 243 429 244 434
2088 4 2 1 1 559 82 78 419
2089 4 2 1 1 266 224 229 483
2090 4 2 1 1 331 475 437 536
2091 4 2 1 1 551 183 172 386
2092 4 2 1 1 62 496 70 83
2093 4 2 1 1 291 505 385 240
2094 4 2 1 1 31 102 92 514
2095 4 2 1 1 156 143 58 488
2096 4 2 1 1 76 70 80 343
2097 4 2 1 1 151 425 164 488
2098 4 2 1 1 339 504 457 528
2099 4 2 1 1 129 392 116 529
2100 4 2 1 1 108 462 98 35
2101 4 2 1 1 573 61 24 551
2102 4 2 1 1 392 485 312 534
2103 4 2 1 1 125 122 117 445
2104 4 2 1 1 116 392 49 485
2105 4 2 1 1 461 540 329 435
2106 4 2 1 1 544 135 125 541
2107 4 2 1 1 572 189 182 539
2108 4 2 1 1 140 481 410 497
2109 4 2 1 1 221 220 222 519
2110 4 2 1 1 250 266 229 483
2111 4 2 1 1 131 554 135 46
2112 4 2 1 1 236 505 326 291
2113 4 2 1 1 258 221 226 501
2114 4 2 1 1 161 155 157 431
2115 4 2 1 1 105 109 544 541
2116 4 2 1 1 103 313 394 113
2117 4 2 1 1 411 329 330 435
2118 4 2 1 1 109 557 39 574
2119 4 2 1 1 345 442 368 468
2120 4 2 1 1 491 498 399 504
2121 4 2 1 1 522 525 367 526
2122 4 2 1 1 380 450 318 517
2123 4 2 1 1 471 507 332 415
2124 4 2 1 1 559 78 10 497
2125 4 2 1 1 550 30 31 198
2126 4 2 1 1 234 231 235 505
2127 4 2 1 1 30 363 92 111
2128 4 2 1 1 360 474 456 534
2129 4 2 1 1 345 465 442 468
2130 4 2 1 1 550 200 198 31
2131 4 2 1 1 432 510 312 511
2132 4 2 1 1 36 340 90 37
2133 4 2 1 1 293 392 367 208
2134 4 2 1 1 131 115 141 466
2135 4 2 1 1 416 444 344 448
2136 4 2 1 1 207 209 295 526
2137 4 2 1 1 373 475 437 496
2138 4 2 1 1 562 280 50 51
2139 4 2 1 1 286 202 296 436
2140 4 2 1 1 85 567 508 577
2141 4 2 1 1 100 568 33 556
2142 4 2 1 1 108 462 35 575
2143 4 2 1 1 126 140 133 419
2144 4 2 1 1 85 567 577 17
2145 4 2 1 1 249 229 248 513
2146 4 2 1 1 63 20 66 327
2147 4 2 1 1 550 276 363 30
2148 4 2 1 1 550 200 31 514
2149 4 2 1 1 145 152 36 462
2150 4 2 1 1 159 153 160 539
2151 4 2 1 1 129 124 482 529
2152 4 2 1 1 73 560 16 62
2153 4 2 1 1 68 63 67 327
2154 4 2 1 1 175 191 181 466
2155 4 2 1 1 312 485 392 529
2156 4 2 1 1 218 219 216 459
2157 4 2 1 1 122 309 121 445
2158 4 2 1 1 195 534 272 288
2159 4 2 1 1 134 124 130 482
2160 4 2 1 1 205 286 296 436
2161 4 2 1 1 106 113 96 495
2162 4 2 1 1 97 94 96 394
2163 4 2 1 1 254 255 252 473
2164 4 2 1 1 157 151 431 500
2165 4 2 1 1 569 82 72 22
2166 4 2 1 1 126 140 419 497
2167 4 2 1 1 140 123 133 410
2168 4 2 1 1 84 74 65 468
2169 4 2 1 1 264 236 246 326
2170 4 2 1 1 36 98 90 462
2171 4 2 1 1 178 185 182 539
2172 4 2 1 1 154 60 59 530
2173 4 2 1 1 76 69 343 520
2174 4 2 1 1 148 425 151 500
2175 4 2 1 1 318 395 478 493
2176 4 2 1 1 405 540 369 372
2177 4 2 1 1 78 64 10 497
2178 4 2 1 1 330 411 412 329
2179 4 2 1 1 148 151 425 164
2180 4 2 1 1 211 267 268 522
2181 4 2 1 1 154 59 143 530
2182 4 2 1 1 550 276 30 198
2183 4 2 1 1 124 123 130 309
2184 4 2 1 1 268 295 211 522
2185 4 2 1 1 103 107 449 499
2186 4 2 1 1 202 286 260 502
2187 4 2 1 1 291 193 292 385
2188 4 2 1 1 268 295 522 526
2189 4 2 1 1 570 165 56 146
2190 4 2 1 1 456 474 312 534
2191 4 2 1 1 99 105 106 541
2192 4 2 1 1 93 110 100 503
2193 4 2 1 1 202 492 436 502
2194 4 2 1 1 20 21 549 155
2195 4 2 1 1 549 577 85 331
2196 4 2 1 1 546 42 108 104
2197 4 2 1 1 223 262 263 470
2198 4 2 1 1 456 463 360 534
2199 4 2 1 1 404 516 387 524
2200 4 2 1 1 263 262 244 470
2201 4 2 1 1 555 81 71 18
2202 4 2 1 1 26 544 105 109
2203 4 2 1 1 555 81 18 580
2204 4 2 1 1 544 574 541 109
2205 4 2 1 1 309 414 453 448
2206 4 2 1 1 197 553 48 558
2207 4 2 1 1 295 278 211 522
2208 4 2 1 1 73 560 62 338
2209 4 2 1 1 174 171 173 443
2210 4 2 1 1 549 20 155 327
2211 4 2 1 1 11 10 64 497
2212 4 2 1 1 387 516 311 524
2213 4 2 1 1 126 133 132 419
2214 4 2 1 1 570 331 146 417
2215 4 2 1 1 340 418 365 503
2216 4 2 1 1 423 493 317 494
2217 4 2 1 1 212 14 561 552
2218 4 2 1 1 155 331 549 327
2219 4 2 1 1 293 207 268 526
2220 4 2 1 1 134 119 129 480
2221 4 2 1 1 121 432 529 511
2222 4 2 1 1 118 481 140 497
2223 4 2 1 1 79 423 69 520
2224 4 2 1 1 126 10 118 497
2225 4 2 1 1 284 430 270 518
2226 4 2 1 1 70 76 69 343
2227 4 2 1 1 123 141 133 420
2228 4 2 1 1 338 475 389 496
2229 4 2 1 1 455 153 539 160
2230 4 2 1 1 194 269 15 515
2231 4 2 1 1 130 410 140 481
2232 4 2 1 1 124 134 129 482
2233 4 2 1 1 485 511 137 529
2234 4 2 1 1 331 417 508 535
2235 4 2 1 1 258 226 259 501
2236 4 2 1 1 392 312 474 534
2237 4 2 1 1 195 534 288 485
2238 4 2 1 1 312 511 485 529
2239 4 2 1 1 86 64 78 497
2240 4 2 1 1 331 417 535 536
2241 4 2 1 1 62 496 83 338
2242 4 2 1 1 244 242 263 429
2243 4 2 1 1 253 222 220 519
2244 4 2 1 1 93 94 110 503
2245 4 2 1 1 181 191 169 466
2246 4 2 1 1 195 280 50 485
2247 4 2 1 1 49 50 116 485
2248 4 2 1 1 279 269 194 515
2249 4 2 1 1 291 505 240 234
2250 4 2 1 1 103 96 113 394
2251 4 2 1 1 203 204 296 393
2252 4 2 1 1 149 148 150 500
2253 4 2 1 1 114 96 95 447
2254 4 2 1 1 556 112 34 100
2255 4 2 1 1 569 82 22 565
2256 4 2 1 1 116 392 485 529
2257 4 2 1 1 272 392 206 208
2258 4 2 1 1 95 96 94 447
2259 4 2 1 1 256 288 272 534
2260 4 2 1 1 62 560 15 515
2261 4 2 1 1 79 423 520 386
2262 4 2 1 1 85 567 17 73
2263 4 2 1 1 243 434 273 508
2264 4 2 1 1 118 130 140 481
2265 4 2 1 1 10 9 78 559
2266 4 2 1 1 24 25 77 573
2267 4 2 1 1 55 158 54 571
2268 4 2 1 1 128 130 480 134
2269 4 2 1 1 99 106 88 486
2270 4 2 1 1 99 557 40 39
2271 4 2 1 1 373 496 437 327
2272 4 2 1 1 37 38 503 93
2273 4 2 1 1 77 71 68 494
2274 4 2 1 1 13 65 552 84
2275 4 2 1 1 239 270 284 430
2276 4 2 1 1 284 270 238 518
2277 4 2 1 1 238 237 232 518
2278 4 2 1 1 554 131 45 46
2279 4 2 1 1 298 484 401 533
2280 4 2 1 1 85 567 73 508
2281 4 2 1 1 287 235 277 412
2282 4 2 1 1 291 292 240 385
2283 4 2 1 1 549 577 21 85
2284 4 2 1 1 20 21 66 549
2285 4 2 1 1 149 152 145 462
2286 4 2 1 1 74 12 11 563
2287 4 2 1 1 552 281 275 13
2288 4 2 1 1 89 110 97 381
2289 4 2 1 1 293 467 207 526
2290 4 2 1 1 35 36 462 98
2291 4 2 1 1 127 137 485 511
2292 4 2 1 1 128 130 118 481
2293 4 2 1 1 556 503 438 326
2294 4 2 1 1 132 44 43 576
2295 4 2 1 1 153 53 572 52
2296 4 2 1 1 161 431 151 488
2297 4 2 1 1 168 160 142 455
2298 4 2 1 1 472 535 429 417
2299 4 2 1 1 321 502 492 514
2300 4 2 1 1 499 29 120 28
2301 4 2 1 1 103 113 91 499
2302 4 2 1 1 125 135 131 541
2303 4 2 1 1 288 256 204 534
2304 4 2 1 1 247 258 265 398
2305 4 2 1 1 104 546 42 41
2306 4 2 1 1 555 19 18 71
2307 4 2 1 1 27 26 544 105
2308 4 2 1 1 236 505 291 234
2309 4 2 1 1 436 492 321 502
2310 4 2 1 1 498 371 525 526
2311 4 2 1 1 116 485 137 529
2312 4 2 1 1 260 201 290 502
2313 4 2 1 1 304 329 472 372
2314 4 2 1 1 499 29 28 101
2315 4 2 1 1 369 427 300 372
2316 4 2 1 1 289 285 244 434
2317 4 2 1 1 171 175 177 486
2318 4 2 1 1 429 535 472 319
2319 4 2 1 1 247 219 258 398
2320 4 2 1 1 293 392 208 206
2321 4 2 1 1 290 200 260 502
2322 4 2 1 1 138 558 47 119
2323 4 2 1 1 140 130 123 410
2324 4 2 1 1 488 417 239 548
2325 4 2 1 1 90 98 95 462
2326 4 2 1 1 68 69 87 423
2327 4 2 1 1 274 199 243 508
2328 4 2 1 1 391 505 385 326
2329 4 2 1 1 115 44 545 45
2330 4 2 1 1 543 53 142 54
2331 4 2 1 1 76 86 69 520
2332 4 2 1 1 137 120 121 511
2333 4 2 1 1 534 367 208 360
2334 4 2 1 1 536 146 155 331
2335 4 2 1 1 121 529 309 124
2336 4 2 1 1 159 163 153 539
2337 4 2 1 1 157 150 151 500
2338 4 2 1 1 182 189 178 539
2339 4 2 1 1 97 96 103 394
2340 4 2 1 1 285 243 244 434
2341 4 2 1 1 242 243 199 417
2342 4 2 1 1 67 496 373 327
2343 4 2 1 1 206 272 195 392
2344 4 2 1 1 304 540 329 372
2345 4 2 1 1 562 127 50 485
2346 4 2 1 1 245 285 289 434
2347 4 2 1 1 57 548 58 239
2348 4 2 1 1 283 263 242 429
2349 4 2 1 1 575 108 462 546
2350 4 2 1 1 239 57 548 199
2351 4 2 1 1 548 58 239 488
2352 4 2 1 1 199 548 239 417
2353 4 2 1 1 558 578 345 138
2354 4 2 1 1 210 214 278 491
2355 4 2 1 1 116 50 127 485
2356 4 2 1 1 288 280 195 485
2357 4 2 1 1 117 122 121 445
2358 4 2 1 1 561 75 15 515
2359 4 2 1 1 19 144 20 327
2360 4 2 1 1 91 27 28 566
2361 4 2 1 1 271 249 248 513
2362 4 2 1 1 100 110 89 438
2363 4 2 1 1 68 71 63 494
2364 4 2 1 1 92 30 31 550
2365 4 2 1 1 48 49 129 553
2366 4 2 1 1 5 111 363 30
2367 4 2 1 1 144 327 19 494
2368 4 2 1 1 202 200 492 502
2369 4 2 1 1 369 300 405 372
2370 4 2 1 1 547 58 196 59
2371 4 2 1 1 236 505 234 235
2372 4 2 1 1 57 156 58 548
2373 4 2 1 1 150 148 151 500
2374 4 2 1 1 146 57 56 570
2375 4 2 1 1 296 204 254 463
2376 4 2 1 1 72 22 23 569
2377 4 2 1 1 123 122 141 420
2378 4 2 1 1 124 121 123 309
2379 4 2 1 1 127 137 116 485
2380 4 2 1 1 154 143 164 530
2381 4 2 1 1 127 120 137 511
2382 4 2 1 1 143 151 164 488
2383 4 2 1 1 124 116 137 529
2384 4 2 1 1 15 16 560 62
2385 4 2 1 1 288 203 280 485
2386 4 2 1 1 74 76 80 468
2387 4 2 1 1 198 203 202 492
2388 4 2 1 1 536 155 146 161
2389 4 2 1 1 547 241 59 196
2390 4 2 1 1 83 70 67 496
2391 4 2 1 1 154 164 147 530
2392 4 2 1 1 66 496 83 67
2393 4 2 1 1 63 66 67 327
2394 4 2 1 1 514 32 31 102
2395 4 2 1 1 126 118 140 497
2396 4 2 1 1 97 102 89 381
2397 4 2 1 1 268 207 295 526
2398 4 2 1 1 121 529 124 137
2399 4 2 1 1 7 34 564 112
2400 4 2 1 1 105 99 109 541
2401 4 2 1 1 86 79 69 520
2402 4 2 1 1 91 101 103 499
2403 4 2 1 1 58 547 196 488
2404 4 2 1 1 231 234 233 505
2405 4 2 1 1 14 13 65 552
2406 4 2 1 1 34 33 556 100
2407 4 2 1 1 575 8 35 108
2408 4 2 1 1 14 15 561 75
2409 4 2 1 1 43 565 136 576
2410 4 2 1 1 39 6 109 574
2411 4 2 1 1 52 580 4 189
2412 4 2 1 1 23 24 61 551
2413 4 2 1 1 234 240 233 505
2414 4 2 1 1 567 16 17 73
2415 4 2 1 1 15 75 62 515
2416 4 2 1 1 75 70 62 515
2417 4 2 1 1 579 165 3 56
2418 4 2 1 1 151 161 157 431
2419 4 2 1 1 129 116 124 529
2420 4 2 1 1 202 260 200 502
2421 4 2 1 1 143 58 547 59
2422 4 2 1 1 564 60 7 166
2423 4 2 1 1 119 558 47 48
2424 4 2 1 1 275 212 209 465
2425 4 2 1 1 212 498 210 209
2426 4 2 1 1 22 2 565 82
2427 4 2 1 1 256 254 204 463
2428 4 2 1 1 3 17 85 577
2429 4 2 1 1 237 238 270 518
2430 4 2 1 1 127 562 50 51
2431 4 2 1 1 196 547 330 488
2432 4 2 1 1 103 101 107 499
2433 4 2 1 1 38 112 7 564
2434 4 2 1 1 92 102 107 514
2435 4 2 1 1 210 213 214 491
2436 4 2 1 1 65 74 80 468
2437 4 2 1 1 46 574 6 187
2438 4 2 1 1 575 162 8 55
2439 4 2 1 1 580 4 25 81
2440 4 2 1 1 42 575 8 188
2441 4 2 1 1 243 273 434 285
2442 4 2 1 1 81 4 18 580
2443 4 2 1 1 26 6 574 109
$EndElements
